%TF.GenerationSoftware,KiCad,Pcbnew,(6.0.7)*%
%TF.CreationDate,2022-10-15T23:14:36+02:00*%
%TF.ProjectId,15_button_controller,31355f62-7574-4746-9f6e-5f636f6e7472,rev?*%
%TF.SameCoordinates,Original*%
%TF.FileFunction,Drillmap*%
%TF.FilePolarity,Positive*%
%FSLAX45Y45*%
G04 Gerber Fmt 4.5, Leading zero omitted, Abs format (unit mm)*
G04 Created by KiCad (PCBNEW (6.0.7)) date 2022-10-15 23:14:36*
%MOMM*%
%LPD*%
G01*
G04 APERTURE LIST*
%ADD10C,0.100000*%
%ADD11C,0.200000*%
%ADD12C,0.102000*%
%ADD13C,0.120000*%
G04 APERTURE END LIST*
D10*
X12065000Y-12319000D02*
X12065000Y-5842000D01*
X12065000Y-5842000D02*
G75*
G03*
X11811000Y-5588000I-254000J0D01*
G01*
X6223000Y-5842000D02*
X6223000Y-12319000D01*
X11811000Y-5588000D02*
X6477000Y-5588000D01*
X6477000Y-5588000D02*
G75*
G03*
X6223000Y-5842000I0J-254000D01*
G01*
X6223000Y-12319000D02*
G75*
G03*
X6477000Y-12573000I254000J0D01*
G01*
X6477000Y-12573000D02*
X11811000Y-12573000D01*
X11811000Y-12573000D02*
G75*
G03*
X12065000Y-12319000I0J254000D01*
G01*
D11*
D12*
X6426000Y-6299000D02*
X6528000Y-6401000D01*
X6528000Y-6299000D02*
X6426000Y-6401000D01*
X6426000Y-8077000D02*
X6528000Y-8179000D01*
X6528000Y-8077000D02*
X6426000Y-8179000D01*
X6680000Y-6299000D02*
X6782000Y-6401000D01*
X6782000Y-6299000D02*
X6680000Y-6401000D01*
X6680000Y-8077000D02*
X6782000Y-8179000D01*
X6782000Y-8077000D02*
X6680000Y-8179000D01*
X6934000Y-6299000D02*
X7036000Y-6401000D01*
X7036000Y-6299000D02*
X6934000Y-6401000D01*
X6934000Y-8077000D02*
X7036000Y-8179000D01*
X7036000Y-8077000D02*
X6934000Y-8179000D01*
X7188000Y-6299000D02*
X7290000Y-6401000D01*
X7290000Y-6299000D02*
X7188000Y-6401000D01*
X7188000Y-8077000D02*
X7290000Y-8179000D01*
X7290000Y-8077000D02*
X7188000Y-8179000D01*
X7442000Y-6299000D02*
X7544000Y-6401000D01*
X7544000Y-6299000D02*
X7442000Y-6401000D01*
X7442000Y-8077000D02*
X7544000Y-8179000D01*
X7544000Y-8077000D02*
X7442000Y-8179000D01*
X7696000Y-6299000D02*
X7798000Y-6401000D01*
X7798000Y-6299000D02*
X7696000Y-6401000D01*
X7696000Y-8077000D02*
X7798000Y-8179000D01*
X7798000Y-8077000D02*
X7696000Y-8179000D01*
X7950000Y-6299000D02*
X8052000Y-6401000D01*
X8052000Y-6299000D02*
X7950000Y-6401000D01*
X7950000Y-8077000D02*
X8052000Y-8179000D01*
X8052000Y-8077000D02*
X7950000Y-8179000D01*
X8204000Y-6299000D02*
X8306000Y-6401000D01*
X8306000Y-6299000D02*
X8204000Y-6401000D01*
X8204000Y-8077000D02*
X8306000Y-8179000D01*
X8306000Y-8077000D02*
X8204000Y-8179000D01*
X8458000Y-6299000D02*
X8560000Y-6401000D01*
X8560000Y-6299000D02*
X8458000Y-6401000D01*
X8458000Y-8077000D02*
X8560000Y-8179000D01*
X8560000Y-8077000D02*
X8458000Y-8179000D01*
X8712000Y-6299000D02*
X8814000Y-6401000D01*
X8814000Y-6299000D02*
X8712000Y-6401000D01*
X8712000Y-8077000D02*
X8814000Y-8179000D01*
X8814000Y-8077000D02*
X8712000Y-8179000D01*
X8966000Y-6299000D02*
X9068000Y-6401000D01*
X9068000Y-6299000D02*
X8966000Y-6401000D01*
X8966000Y-8077000D02*
X9068000Y-8179000D01*
X9068000Y-8077000D02*
X8966000Y-8179000D01*
X9220000Y-6299000D02*
X9322000Y-6401000D01*
X9322000Y-6299000D02*
X9220000Y-6401000D01*
X9220000Y-8077000D02*
X9322000Y-8179000D01*
X9322000Y-8077000D02*
X9220000Y-8179000D01*
X9474000Y-6299000D02*
X9576000Y-6401000D01*
X9576000Y-6299000D02*
X9474000Y-6401000D01*
X9474000Y-8077000D02*
X9576000Y-8179000D01*
X9576000Y-8077000D02*
X9474000Y-8179000D01*
X9728000Y-6299000D02*
X9830000Y-6401000D01*
X9830000Y-6299000D02*
X9728000Y-6401000D01*
X9728000Y-8077000D02*
X9830000Y-8179000D01*
X9830000Y-8077000D02*
X9728000Y-8179000D01*
X9982000Y-6299000D02*
X10084000Y-6401000D01*
X10084000Y-6299000D02*
X9982000Y-6401000D01*
X9982000Y-8077000D02*
X10084000Y-8179000D01*
X10084000Y-8077000D02*
X9982000Y-8179000D01*
X10236000Y-6299000D02*
X10338000Y-6401000D01*
X10338000Y-6299000D02*
X10236000Y-6401000D01*
X10236000Y-8077000D02*
X10338000Y-8179000D01*
X10338000Y-8077000D02*
X10236000Y-8179000D01*
X10490000Y-6299000D02*
X10592000Y-6401000D01*
X10592000Y-6299000D02*
X10490000Y-6401000D01*
X10490000Y-8077000D02*
X10592000Y-8179000D01*
X10592000Y-8077000D02*
X10490000Y-8179000D01*
X10744000Y-6299000D02*
X10846000Y-6401000D01*
X10846000Y-6299000D02*
X10744000Y-6401000D01*
X10744000Y-8077000D02*
X10846000Y-8179000D01*
X10846000Y-8077000D02*
X10744000Y-8179000D01*
X10998000Y-6299000D02*
X11100000Y-6401000D01*
X11100000Y-6299000D02*
X10998000Y-6401000D01*
X10998000Y-8077000D02*
X11100000Y-8179000D01*
X11100000Y-8077000D02*
X10998000Y-8179000D01*
X11229000Y-6934000D02*
X11331000Y-7036000D01*
X11331000Y-6934000D02*
X11229000Y-7036000D01*
X11229000Y-7188000D02*
X11331000Y-7290000D01*
X11331000Y-7188000D02*
X11229000Y-7290000D01*
X11229000Y-7442000D02*
X11331000Y-7544000D01*
X11331000Y-7442000D02*
X11229000Y-7544000D01*
X11252000Y-6299000D02*
X11354000Y-6401000D01*
X11354000Y-6299000D02*
X11252000Y-6401000D01*
X11252000Y-8077000D02*
X11354000Y-8179000D01*
X11354000Y-8077000D02*
X11252000Y-8179000D01*
D13*
X6638600Y-9123800D02*
G75*
G03*
X6638600Y-9123800I-60000J0D01*
G01*
X6638600Y-9773800D02*
G75*
G03*
X6638600Y-9773800I-60000J0D01*
G01*
X6638600Y-10368400D02*
G75*
G03*
X6638600Y-10368400I-60000J0D01*
G01*
X6638600Y-11018400D02*
G75*
G03*
X6638600Y-11018400I-60000J0D01*
G01*
X6638600Y-11613000D02*
G75*
G03*
X6638600Y-11613000I-60000J0D01*
G01*
X6638600Y-12263000D02*
G75*
G03*
X6638600Y-12263000I-60000J0D01*
G01*
X7088600Y-9123800D02*
G75*
G03*
X7088600Y-9123800I-60000J0D01*
G01*
X7088600Y-9773800D02*
G75*
G03*
X7088600Y-9773800I-60000J0D01*
G01*
X7088600Y-10368400D02*
G75*
G03*
X7088600Y-10368400I-60000J0D01*
G01*
X7088600Y-11018400D02*
G75*
G03*
X7088600Y-11018400I-60000J0D01*
G01*
X7088600Y-11613000D02*
G75*
G03*
X7088600Y-11613000I-60000J0D01*
G01*
X7088600Y-12263000D02*
G75*
G03*
X7088600Y-12263000I-60000J0D01*
G01*
X7807000Y-9123800D02*
G75*
G03*
X7807000Y-9123800I-60000J0D01*
G01*
X7807000Y-9773800D02*
G75*
G03*
X7807000Y-9773800I-60000J0D01*
G01*
X7807000Y-10368400D02*
G75*
G03*
X7807000Y-10368400I-60000J0D01*
G01*
X7807000Y-11018400D02*
G75*
G03*
X7807000Y-11018400I-60000J0D01*
G01*
X7807000Y-11613000D02*
G75*
G03*
X7807000Y-11613000I-60000J0D01*
G01*
X7807000Y-12263000D02*
G75*
G03*
X7807000Y-12263000I-60000J0D01*
G01*
X8257000Y-9123800D02*
G75*
G03*
X8257000Y-9123800I-60000J0D01*
G01*
X8257000Y-9773800D02*
G75*
G03*
X8257000Y-9773800I-60000J0D01*
G01*
X8257000Y-10368400D02*
G75*
G03*
X8257000Y-10368400I-60000J0D01*
G01*
X8257000Y-11018400D02*
G75*
G03*
X8257000Y-11018400I-60000J0D01*
G01*
X8257000Y-11613000D02*
G75*
G03*
X8257000Y-11613000I-60000J0D01*
G01*
X8257000Y-12263000D02*
G75*
G03*
X8257000Y-12263000I-60000J0D01*
G01*
X8975400Y-9123800D02*
G75*
G03*
X8975400Y-9123800I-60000J0D01*
G01*
X8975400Y-9773800D02*
G75*
G03*
X8975400Y-9773800I-60000J0D01*
G01*
X8975400Y-10368400D02*
G75*
G03*
X8975400Y-10368400I-60000J0D01*
G01*
X8975400Y-11018400D02*
G75*
G03*
X8975400Y-11018400I-60000J0D01*
G01*
X8975400Y-11613000D02*
G75*
G03*
X8975400Y-11613000I-60000J0D01*
G01*
X8975400Y-12263000D02*
G75*
G03*
X8975400Y-12263000I-60000J0D01*
G01*
X9425400Y-9123800D02*
G75*
G03*
X9425400Y-9123800I-60000J0D01*
G01*
X9425400Y-9773800D02*
G75*
G03*
X9425400Y-9773800I-60000J0D01*
G01*
X9425400Y-10368400D02*
G75*
G03*
X9425400Y-10368400I-60000J0D01*
G01*
X9425400Y-11018400D02*
G75*
G03*
X9425400Y-11018400I-60000J0D01*
G01*
X9425400Y-11613000D02*
G75*
G03*
X9425400Y-11613000I-60000J0D01*
G01*
X9425400Y-12263000D02*
G75*
G03*
X9425400Y-12263000I-60000J0D01*
G01*
X10143800Y-9123800D02*
G75*
G03*
X10143800Y-9123800I-60000J0D01*
G01*
X10143800Y-9773800D02*
G75*
G03*
X10143800Y-9773800I-60000J0D01*
G01*
X10143800Y-10368400D02*
G75*
G03*
X10143800Y-10368400I-60000J0D01*
G01*
X10143800Y-11018400D02*
G75*
G03*
X10143800Y-11018400I-60000J0D01*
G01*
X10143800Y-11613000D02*
G75*
G03*
X10143800Y-11613000I-60000J0D01*
G01*
X10143800Y-12263000D02*
G75*
G03*
X10143800Y-12263000I-60000J0D01*
G01*
X10593800Y-9123800D02*
G75*
G03*
X10593800Y-9123800I-60000J0D01*
G01*
X10593800Y-9773800D02*
G75*
G03*
X10593800Y-9773800I-60000J0D01*
G01*
X10593800Y-10368400D02*
G75*
G03*
X10593800Y-10368400I-60000J0D01*
G01*
X10593800Y-11018400D02*
G75*
G03*
X10593800Y-11018400I-60000J0D01*
G01*
X10593800Y-11613000D02*
G75*
G03*
X10593800Y-11613000I-60000J0D01*
G01*
X10593800Y-12263000D02*
G75*
G03*
X10593800Y-12263000I-60000J0D01*
G01*
X11312200Y-9123800D02*
G75*
G03*
X11312200Y-9123800I-60000J0D01*
G01*
X11312200Y-9773800D02*
G75*
G03*
X11312200Y-9773800I-60000J0D01*
G01*
X11312200Y-10368400D02*
G75*
G03*
X11312200Y-10368400I-60000J0D01*
G01*
X11312200Y-11018400D02*
G75*
G03*
X11312200Y-11018400I-60000J0D01*
G01*
X11312200Y-11613000D02*
G75*
G03*
X11312200Y-11613000I-60000J0D01*
G01*
X11312200Y-12263000D02*
G75*
G03*
X11312200Y-12263000I-60000J0D01*
G01*
X11762200Y-9123800D02*
G75*
G03*
X11762200Y-9123800I-60000J0D01*
G01*
X11762200Y-9773800D02*
G75*
G03*
X11762200Y-9773800I-60000J0D01*
G01*
X11762200Y-10368400D02*
G75*
G03*
X11762200Y-10368400I-60000J0D01*
G01*
X11762200Y-11018400D02*
G75*
G03*
X11762200Y-11018400I-60000J0D01*
G01*
X11762200Y-11613000D02*
G75*
G03*
X11762200Y-11613000I-60000J0D01*
G01*
X11762200Y-12263000D02*
G75*
G03*
X11762200Y-12263000I-60000J0D01*
G01*
D11*
X6475619Y-12888476D02*
X6475619Y-12688476D01*
X6523238Y-12688476D01*
X6551809Y-12698000D01*
X6570857Y-12717048D01*
X6580381Y-12736095D01*
X6589905Y-12774190D01*
X6589905Y-12802762D01*
X6580381Y-12840857D01*
X6570857Y-12859905D01*
X6551809Y-12878952D01*
X6523238Y-12888476D01*
X6475619Y-12888476D01*
X6675619Y-12888476D02*
X6675619Y-12755143D01*
X6675619Y-12793238D02*
X6685143Y-12774190D01*
X6694667Y-12764667D01*
X6713714Y-12755143D01*
X6732762Y-12755143D01*
X6799428Y-12888476D02*
X6799428Y-12755143D01*
X6799428Y-12688476D02*
X6789905Y-12698000D01*
X6799428Y-12707524D01*
X6808952Y-12698000D01*
X6799428Y-12688476D01*
X6799428Y-12707524D01*
X6923238Y-12888476D02*
X6904190Y-12878952D01*
X6894667Y-12859905D01*
X6894667Y-12688476D01*
X7028000Y-12888476D02*
X7008952Y-12878952D01*
X6999428Y-12859905D01*
X6999428Y-12688476D01*
X7256571Y-12888476D02*
X7256571Y-12688476D01*
X7323238Y-12831333D01*
X7389905Y-12688476D01*
X7389905Y-12888476D01*
X7570857Y-12888476D02*
X7570857Y-12783714D01*
X7561333Y-12764667D01*
X7542286Y-12755143D01*
X7504190Y-12755143D01*
X7485143Y-12764667D01*
X7570857Y-12878952D02*
X7551809Y-12888476D01*
X7504190Y-12888476D01*
X7485143Y-12878952D01*
X7475619Y-12859905D01*
X7475619Y-12840857D01*
X7485143Y-12821809D01*
X7504190Y-12812286D01*
X7551809Y-12812286D01*
X7570857Y-12802762D01*
X7666095Y-12755143D02*
X7666095Y-12955143D01*
X7666095Y-12764667D02*
X7685143Y-12755143D01*
X7723238Y-12755143D01*
X7742286Y-12764667D01*
X7751809Y-12774190D01*
X7761333Y-12793238D01*
X7761333Y-12850381D01*
X7751809Y-12869428D01*
X7742286Y-12878952D01*
X7723238Y-12888476D01*
X7685143Y-12888476D01*
X7666095Y-12878952D01*
X7847048Y-12869428D02*
X7856571Y-12878952D01*
X7847048Y-12888476D01*
X7837524Y-12878952D01*
X7847048Y-12869428D01*
X7847048Y-12888476D01*
X7847048Y-12764667D02*
X7856571Y-12774190D01*
X7847048Y-12783714D01*
X7837524Y-12774190D01*
X7847048Y-12764667D01*
X7847048Y-12783714D01*
D12*
X6116000Y-13167000D02*
X6218000Y-13269000D01*
X6218000Y-13167000D02*
X6116000Y-13269000D01*
D11*
X6580381Y-13308476D02*
X6466095Y-13308476D01*
X6523238Y-13308476D02*
X6523238Y-13108476D01*
X6504190Y-13137048D01*
X6485143Y-13156095D01*
X6466095Y-13165619D01*
X6666095Y-13289428D02*
X6675619Y-13298952D01*
X6666095Y-13308476D01*
X6656571Y-13298952D01*
X6666095Y-13289428D01*
X6666095Y-13308476D01*
X6799428Y-13108476D02*
X6818476Y-13108476D01*
X6837524Y-13118000D01*
X6847048Y-13127524D01*
X6856571Y-13146571D01*
X6866095Y-13184667D01*
X6866095Y-13232286D01*
X6856571Y-13270381D01*
X6847048Y-13289428D01*
X6837524Y-13298952D01*
X6818476Y-13308476D01*
X6799428Y-13308476D01*
X6780381Y-13298952D01*
X6770857Y-13289428D01*
X6761333Y-13270381D01*
X6751809Y-13232286D01*
X6751809Y-13184667D01*
X6761333Y-13146571D01*
X6770857Y-13127524D01*
X6780381Y-13118000D01*
X6799428Y-13108476D01*
X6942286Y-13127524D02*
X6951809Y-13118000D01*
X6970857Y-13108476D01*
X7018476Y-13108476D01*
X7037524Y-13118000D01*
X7047048Y-13127524D01*
X7056571Y-13146571D01*
X7056571Y-13165619D01*
X7047048Y-13194190D01*
X6932762Y-13308476D01*
X7056571Y-13308476D01*
X7180381Y-13108476D02*
X7199428Y-13108476D01*
X7218476Y-13118000D01*
X7228000Y-13127524D01*
X7237524Y-13146571D01*
X7247048Y-13184667D01*
X7247048Y-13232286D01*
X7237524Y-13270381D01*
X7228000Y-13289428D01*
X7218476Y-13298952D01*
X7199428Y-13308476D01*
X7180381Y-13308476D01*
X7161333Y-13298952D01*
X7151809Y-13289428D01*
X7142286Y-13270381D01*
X7132762Y-13232286D01*
X7132762Y-13184667D01*
X7142286Y-13146571D01*
X7151809Y-13127524D01*
X7161333Y-13118000D01*
X7180381Y-13108476D01*
X7332762Y-13308476D02*
X7332762Y-13175143D01*
X7332762Y-13194190D02*
X7342286Y-13184667D01*
X7361333Y-13175143D01*
X7389905Y-13175143D01*
X7408952Y-13184667D01*
X7418476Y-13203714D01*
X7418476Y-13308476D01*
X7418476Y-13203714D02*
X7428000Y-13184667D01*
X7447048Y-13175143D01*
X7475619Y-13175143D01*
X7494667Y-13184667D01*
X7504190Y-13203714D01*
X7504190Y-13308476D01*
X7599428Y-13308476D02*
X7599428Y-13175143D01*
X7599428Y-13194190D02*
X7608952Y-13184667D01*
X7628000Y-13175143D01*
X7656571Y-13175143D01*
X7675619Y-13184667D01*
X7685143Y-13203714D01*
X7685143Y-13308476D01*
X7685143Y-13203714D02*
X7694667Y-13184667D01*
X7713714Y-13175143D01*
X7742286Y-13175143D01*
X7761333Y-13184667D01*
X7770857Y-13203714D01*
X7770857Y-13308476D01*
X8161333Y-13098952D02*
X7989905Y-13356095D01*
X8418476Y-13108476D02*
X8437524Y-13108476D01*
X8456571Y-13118000D01*
X8466095Y-13127524D01*
X8475619Y-13146571D01*
X8485143Y-13184667D01*
X8485143Y-13232286D01*
X8475619Y-13270381D01*
X8466095Y-13289428D01*
X8456571Y-13298952D01*
X8437524Y-13308476D01*
X8418476Y-13308476D01*
X8399429Y-13298952D01*
X8389905Y-13289428D01*
X8380381Y-13270381D01*
X8370857Y-13232286D01*
X8370857Y-13184667D01*
X8380381Y-13146571D01*
X8389905Y-13127524D01*
X8399429Y-13118000D01*
X8418476Y-13108476D01*
X8570857Y-13289428D02*
X8580381Y-13298952D01*
X8570857Y-13308476D01*
X8561333Y-13298952D01*
X8570857Y-13289428D01*
X8570857Y-13308476D01*
X8704190Y-13108476D02*
X8723238Y-13108476D01*
X8742286Y-13118000D01*
X8751810Y-13127524D01*
X8761333Y-13146571D01*
X8770857Y-13184667D01*
X8770857Y-13232286D01*
X8761333Y-13270381D01*
X8751810Y-13289428D01*
X8742286Y-13298952D01*
X8723238Y-13308476D01*
X8704190Y-13308476D01*
X8685143Y-13298952D01*
X8675619Y-13289428D01*
X8666095Y-13270381D01*
X8656571Y-13232286D01*
X8656571Y-13184667D01*
X8666095Y-13146571D01*
X8675619Y-13127524D01*
X8685143Y-13118000D01*
X8704190Y-13108476D01*
X8942286Y-13175143D02*
X8942286Y-13308476D01*
X8894667Y-13098952D02*
X8847048Y-13241809D01*
X8970857Y-13241809D01*
X9085143Y-13108476D02*
X9104190Y-13108476D01*
X9123238Y-13118000D01*
X9132762Y-13127524D01*
X9142286Y-13146571D01*
X9151810Y-13184667D01*
X9151810Y-13232286D01*
X9142286Y-13270381D01*
X9132762Y-13289428D01*
X9123238Y-13298952D01*
X9104190Y-13308476D01*
X9085143Y-13308476D01*
X9066095Y-13298952D01*
X9056571Y-13289428D01*
X9047048Y-13270381D01*
X9037524Y-13232286D01*
X9037524Y-13184667D01*
X9047048Y-13146571D01*
X9056571Y-13127524D01*
X9066095Y-13118000D01*
X9085143Y-13108476D01*
X9228000Y-13127524D02*
X9237524Y-13118000D01*
X9256571Y-13108476D01*
X9304190Y-13108476D01*
X9323238Y-13118000D01*
X9332762Y-13127524D01*
X9342286Y-13146571D01*
X9342286Y-13165619D01*
X9332762Y-13194190D01*
X9218476Y-13308476D01*
X9342286Y-13308476D01*
X9418476Y-13108476D02*
X9418476Y-13146571D01*
X9494667Y-13108476D02*
X9494667Y-13146571D01*
X9789905Y-13384667D02*
X9780381Y-13375143D01*
X9761333Y-13346571D01*
X9751810Y-13327524D01*
X9742286Y-13298952D01*
X9732762Y-13251333D01*
X9732762Y-13213238D01*
X9742286Y-13165619D01*
X9751810Y-13137048D01*
X9761333Y-13118000D01*
X9780381Y-13089428D01*
X9789905Y-13079905D01*
X9951810Y-13175143D02*
X9951810Y-13308476D01*
X9904190Y-13098952D02*
X9856571Y-13241809D01*
X9980381Y-13241809D01*
X10037524Y-13108476D02*
X10161333Y-13108476D01*
X10094667Y-13184667D01*
X10123238Y-13184667D01*
X10142286Y-13194190D01*
X10151810Y-13203714D01*
X10161333Y-13222762D01*
X10161333Y-13270381D01*
X10151810Y-13289428D01*
X10142286Y-13298952D01*
X10123238Y-13308476D01*
X10066095Y-13308476D01*
X10047048Y-13298952D01*
X10037524Y-13289428D01*
X10399429Y-13308476D02*
X10399429Y-13108476D01*
X10485143Y-13308476D02*
X10485143Y-13203714D01*
X10475619Y-13184667D01*
X10456571Y-13175143D01*
X10428000Y-13175143D01*
X10408952Y-13184667D01*
X10399429Y-13194190D01*
X10608952Y-13308476D02*
X10589905Y-13298952D01*
X10580381Y-13289428D01*
X10570857Y-13270381D01*
X10570857Y-13213238D01*
X10580381Y-13194190D01*
X10589905Y-13184667D01*
X10608952Y-13175143D01*
X10637524Y-13175143D01*
X10656571Y-13184667D01*
X10666095Y-13194190D01*
X10675619Y-13213238D01*
X10675619Y-13270381D01*
X10666095Y-13289428D01*
X10656571Y-13298952D01*
X10637524Y-13308476D01*
X10608952Y-13308476D01*
X10789905Y-13308476D02*
X10770857Y-13298952D01*
X10761333Y-13279905D01*
X10761333Y-13108476D01*
X10942286Y-13298952D02*
X10923238Y-13308476D01*
X10885143Y-13308476D01*
X10866095Y-13298952D01*
X10856571Y-13279905D01*
X10856571Y-13203714D01*
X10866095Y-13184667D01*
X10885143Y-13175143D01*
X10923238Y-13175143D01*
X10942286Y-13184667D01*
X10951810Y-13203714D01*
X10951810Y-13222762D01*
X10856571Y-13241809D01*
X11028000Y-13298952D02*
X11047048Y-13308476D01*
X11085143Y-13308476D01*
X11104190Y-13298952D01*
X11113714Y-13279905D01*
X11113714Y-13270381D01*
X11104190Y-13251333D01*
X11085143Y-13241809D01*
X11056571Y-13241809D01*
X11037524Y-13232286D01*
X11028000Y-13213238D01*
X11028000Y-13203714D01*
X11037524Y-13184667D01*
X11056571Y-13175143D01*
X11085143Y-13175143D01*
X11104190Y-13184667D01*
X11180381Y-13384667D02*
X11189905Y-13375143D01*
X11208952Y-13346571D01*
X11218476Y-13327524D01*
X11228000Y-13298952D01*
X11237524Y-13251333D01*
X11237524Y-13213238D01*
X11228000Y-13165619D01*
X11218476Y-13137048D01*
X11208952Y-13118000D01*
X11189905Y-13089428D01*
X11180381Y-13079905D01*
D13*
X6218000Y-13482000D02*
G75*
G03*
X6218000Y-13482000I-60000J0D01*
G01*
D11*
X6580381Y-13572476D02*
X6466095Y-13572476D01*
X6523238Y-13572476D02*
X6523238Y-13372476D01*
X6504190Y-13401048D01*
X6485143Y-13420095D01*
X6466095Y-13429619D01*
X6666095Y-13553428D02*
X6675619Y-13562952D01*
X6666095Y-13572476D01*
X6656571Y-13562952D01*
X6666095Y-13553428D01*
X6666095Y-13572476D01*
X6751809Y-13391524D02*
X6761333Y-13382000D01*
X6780381Y-13372476D01*
X6828000Y-13372476D01*
X6847048Y-13382000D01*
X6856571Y-13391524D01*
X6866095Y-13410571D01*
X6866095Y-13429619D01*
X6856571Y-13458190D01*
X6742286Y-13572476D01*
X6866095Y-13572476D01*
X6989905Y-13372476D02*
X7008952Y-13372476D01*
X7028000Y-13382000D01*
X7037524Y-13391524D01*
X7047048Y-13410571D01*
X7056571Y-13448667D01*
X7056571Y-13496286D01*
X7047048Y-13534381D01*
X7037524Y-13553428D01*
X7028000Y-13562952D01*
X7008952Y-13572476D01*
X6989905Y-13572476D01*
X6970857Y-13562952D01*
X6961333Y-13553428D01*
X6951809Y-13534381D01*
X6942286Y-13496286D01*
X6942286Y-13448667D01*
X6951809Y-13410571D01*
X6961333Y-13391524D01*
X6970857Y-13382000D01*
X6989905Y-13372476D01*
X7180381Y-13372476D02*
X7199428Y-13372476D01*
X7218476Y-13382000D01*
X7228000Y-13391524D01*
X7237524Y-13410571D01*
X7247048Y-13448667D01*
X7247048Y-13496286D01*
X7237524Y-13534381D01*
X7228000Y-13553428D01*
X7218476Y-13562952D01*
X7199428Y-13572476D01*
X7180381Y-13572476D01*
X7161333Y-13562952D01*
X7151809Y-13553428D01*
X7142286Y-13534381D01*
X7132762Y-13496286D01*
X7132762Y-13448667D01*
X7142286Y-13410571D01*
X7151809Y-13391524D01*
X7161333Y-13382000D01*
X7180381Y-13372476D01*
X7332762Y-13572476D02*
X7332762Y-13439143D01*
X7332762Y-13458190D02*
X7342286Y-13448667D01*
X7361333Y-13439143D01*
X7389905Y-13439143D01*
X7408952Y-13448667D01*
X7418476Y-13467714D01*
X7418476Y-13572476D01*
X7418476Y-13467714D02*
X7428000Y-13448667D01*
X7447048Y-13439143D01*
X7475619Y-13439143D01*
X7494667Y-13448667D01*
X7504190Y-13467714D01*
X7504190Y-13572476D01*
X7599428Y-13572476D02*
X7599428Y-13439143D01*
X7599428Y-13458190D02*
X7608952Y-13448667D01*
X7628000Y-13439143D01*
X7656571Y-13439143D01*
X7675619Y-13448667D01*
X7685143Y-13467714D01*
X7685143Y-13572476D01*
X7685143Y-13467714D02*
X7694667Y-13448667D01*
X7713714Y-13439143D01*
X7742286Y-13439143D01*
X7761333Y-13448667D01*
X7770857Y-13467714D01*
X7770857Y-13572476D01*
X8161333Y-13362952D02*
X7989905Y-13620095D01*
X8418476Y-13372476D02*
X8437524Y-13372476D01*
X8456571Y-13382000D01*
X8466095Y-13391524D01*
X8475619Y-13410571D01*
X8485143Y-13448667D01*
X8485143Y-13496286D01*
X8475619Y-13534381D01*
X8466095Y-13553428D01*
X8456571Y-13562952D01*
X8437524Y-13572476D01*
X8418476Y-13572476D01*
X8399429Y-13562952D01*
X8389905Y-13553428D01*
X8380381Y-13534381D01*
X8370857Y-13496286D01*
X8370857Y-13448667D01*
X8380381Y-13410571D01*
X8389905Y-13391524D01*
X8399429Y-13382000D01*
X8418476Y-13372476D01*
X8570857Y-13553428D02*
X8580381Y-13562952D01*
X8570857Y-13572476D01*
X8561333Y-13562952D01*
X8570857Y-13553428D01*
X8570857Y-13572476D01*
X8704190Y-13372476D02*
X8723238Y-13372476D01*
X8742286Y-13382000D01*
X8751810Y-13391524D01*
X8761333Y-13410571D01*
X8770857Y-13448667D01*
X8770857Y-13496286D01*
X8761333Y-13534381D01*
X8751810Y-13553428D01*
X8742286Y-13562952D01*
X8723238Y-13572476D01*
X8704190Y-13572476D01*
X8685143Y-13562952D01*
X8675619Y-13553428D01*
X8666095Y-13534381D01*
X8656571Y-13496286D01*
X8656571Y-13448667D01*
X8666095Y-13410571D01*
X8675619Y-13391524D01*
X8685143Y-13382000D01*
X8704190Y-13372476D01*
X8942286Y-13439143D02*
X8942286Y-13572476D01*
X8894667Y-13362952D02*
X8847048Y-13505809D01*
X8970857Y-13505809D01*
X9028000Y-13372476D02*
X9161333Y-13372476D01*
X9075619Y-13572476D01*
X9228000Y-13391524D02*
X9237524Y-13382000D01*
X9256571Y-13372476D01*
X9304190Y-13372476D01*
X9323238Y-13382000D01*
X9332762Y-13391524D01*
X9342286Y-13410571D01*
X9342286Y-13429619D01*
X9332762Y-13458190D01*
X9218476Y-13572476D01*
X9342286Y-13572476D01*
X9418476Y-13372476D02*
X9418476Y-13410571D01*
X9494667Y-13372476D02*
X9494667Y-13410571D01*
X9789905Y-13648667D02*
X9780381Y-13639143D01*
X9761333Y-13610571D01*
X9751810Y-13591524D01*
X9742286Y-13562952D01*
X9732762Y-13515333D01*
X9732762Y-13477238D01*
X9742286Y-13429619D01*
X9751810Y-13401048D01*
X9761333Y-13382000D01*
X9780381Y-13353428D01*
X9789905Y-13343905D01*
X9951810Y-13372476D02*
X9913714Y-13372476D01*
X9894667Y-13382000D01*
X9885143Y-13391524D01*
X9866095Y-13420095D01*
X9856571Y-13458190D01*
X9856571Y-13534381D01*
X9866095Y-13553428D01*
X9875619Y-13562952D01*
X9894667Y-13572476D01*
X9932762Y-13572476D01*
X9951810Y-13562952D01*
X9961333Y-13553428D01*
X9970857Y-13534381D01*
X9970857Y-13486762D01*
X9961333Y-13467714D01*
X9951810Y-13458190D01*
X9932762Y-13448667D01*
X9894667Y-13448667D01*
X9875619Y-13458190D01*
X9866095Y-13467714D01*
X9856571Y-13486762D01*
X10094667Y-13372476D02*
X10113714Y-13372476D01*
X10132762Y-13382000D01*
X10142286Y-13391524D01*
X10151810Y-13410571D01*
X10161333Y-13448667D01*
X10161333Y-13496286D01*
X10151810Y-13534381D01*
X10142286Y-13553428D01*
X10132762Y-13562952D01*
X10113714Y-13572476D01*
X10094667Y-13572476D01*
X10075619Y-13562952D01*
X10066095Y-13553428D01*
X10056571Y-13534381D01*
X10047048Y-13496286D01*
X10047048Y-13448667D01*
X10056571Y-13410571D01*
X10066095Y-13391524D01*
X10075619Y-13382000D01*
X10094667Y-13372476D01*
X10399429Y-13572476D02*
X10399429Y-13372476D01*
X10485143Y-13572476D02*
X10485143Y-13467714D01*
X10475619Y-13448667D01*
X10456571Y-13439143D01*
X10428000Y-13439143D01*
X10408952Y-13448667D01*
X10399429Y-13458190D01*
X10608952Y-13572476D02*
X10589905Y-13562952D01*
X10580381Y-13553428D01*
X10570857Y-13534381D01*
X10570857Y-13477238D01*
X10580381Y-13458190D01*
X10589905Y-13448667D01*
X10608952Y-13439143D01*
X10637524Y-13439143D01*
X10656571Y-13448667D01*
X10666095Y-13458190D01*
X10675619Y-13477238D01*
X10675619Y-13534381D01*
X10666095Y-13553428D01*
X10656571Y-13562952D01*
X10637524Y-13572476D01*
X10608952Y-13572476D01*
X10789905Y-13572476D02*
X10770857Y-13562952D01*
X10761333Y-13543905D01*
X10761333Y-13372476D01*
X10942286Y-13562952D02*
X10923238Y-13572476D01*
X10885143Y-13572476D01*
X10866095Y-13562952D01*
X10856571Y-13543905D01*
X10856571Y-13467714D01*
X10866095Y-13448667D01*
X10885143Y-13439143D01*
X10923238Y-13439143D01*
X10942286Y-13448667D01*
X10951810Y-13467714D01*
X10951810Y-13486762D01*
X10856571Y-13505809D01*
X11028000Y-13562952D02*
X11047048Y-13572476D01*
X11085143Y-13572476D01*
X11104190Y-13562952D01*
X11113714Y-13543905D01*
X11113714Y-13534381D01*
X11104190Y-13515333D01*
X11085143Y-13505809D01*
X11056571Y-13505809D01*
X11037524Y-13496286D01*
X11028000Y-13477238D01*
X11028000Y-13467714D01*
X11037524Y-13448667D01*
X11056571Y-13439143D01*
X11085143Y-13439143D01*
X11104190Y-13448667D01*
X11180381Y-13648667D02*
X11189905Y-13639143D01*
X11208952Y-13610571D01*
X11218476Y-13591524D01*
X11228000Y-13562952D01*
X11237524Y-13515333D01*
X11237524Y-13477238D01*
X11228000Y-13429619D01*
X11218476Y-13401048D01*
X11208952Y-13382000D01*
X11189905Y-13353428D01*
X11180381Y-13343905D01*
M02*
