%TF.GenerationSoftware,KiCad,Pcbnew,(6.0.7)*%
%TF.CreationDate,2022-10-15T23:14:27+02:00*%
%TF.ProjectId,15_button_controller,31355f62-7574-4746-9f6e-5f636f6e7472,rev?*%
%TF.SameCoordinates,Original*%
%TF.FileFunction,Soldermask,Bot*%
%TF.FilePolarity,Negative*%
%FSLAX46Y46*%
G04 Gerber Fmt 4.6, Leading zero omitted, Abs format (unit mm)*
G04 Created by KiCad (PCBNEW (6.0.7)) date 2022-10-15 23:14:27*
%MOMM*%
%LPD*%
G01*
G04 APERTURE LIST*
%ADD10R,2.200000X2.200000*%
%ADD11C,2.200000*%
%ADD12O,1.500000X1.500000*%
%ADD13O,1.800000X1.800000*%
%ADD14O,1.700000X1.700000*%
%ADD15R,1.700000X1.700000*%
G04 APERTURE END LIST*
D10*
%TO.C,S3*%
X89154000Y-122630000D03*
D11*
X89154000Y-116130000D03*
X93654000Y-122630000D03*
X93654000Y-116130000D03*
%TD*%
D10*
%TO.C,S10*%
X112522000Y-110184000D03*
D11*
X112522000Y-103684000D03*
X117022000Y-110184000D03*
X117022000Y-103684000D03*
%TD*%
D10*
%TO.C,S4*%
X100838000Y-122630000D03*
D11*
X100838000Y-116130000D03*
X105338000Y-122630000D03*
X105338000Y-116130000D03*
%TD*%
D10*
%TO.C,S8*%
X89154000Y-110184000D03*
D11*
X89154000Y-103684000D03*
X93654000Y-110184000D03*
X93654000Y-103684000D03*
%TD*%
D10*
%TO.C,S11*%
X65786000Y-97738000D03*
D11*
X65786000Y-91238000D03*
X70286000Y-97738000D03*
X70286000Y-91238000D03*
%TD*%
D10*
%TO.C,S2*%
X77470000Y-122630000D03*
D11*
X77470000Y-116130000D03*
X81970000Y-122630000D03*
X81970000Y-116130000D03*
%TD*%
D10*
%TO.C,S15*%
X112522000Y-97738000D03*
D11*
X112522000Y-91238000D03*
X117022000Y-97738000D03*
X117022000Y-91238000D03*
%TD*%
D10*
%TO.C,S14*%
X100838000Y-97738000D03*
D11*
X100838000Y-91238000D03*
X105338000Y-97738000D03*
X105338000Y-91238000D03*
%TD*%
D10*
%TO.C,S9*%
X100838000Y-110184000D03*
D11*
X100838000Y-103684000D03*
X105338000Y-110184000D03*
X105338000Y-103684000D03*
%TD*%
D10*
%TO.C,S7*%
X77470000Y-110184000D03*
D11*
X77470000Y-103684000D03*
X81970000Y-110184000D03*
X81970000Y-103684000D03*
%TD*%
D10*
%TO.C,S12*%
X77470000Y-97738000D03*
D11*
X77470000Y-91238000D03*
X81970000Y-97738000D03*
X81970000Y-91238000D03*
%TD*%
D12*
%TO.C,U1*%
X67930000Y-74815000D03*
D13*
X64900000Y-75115000D03*
X64900000Y-69665000D03*
D12*
X67930000Y-69965000D03*
D14*
X64770000Y-81280000D03*
X67310000Y-81280000D03*
D15*
X69850000Y-81280000D03*
D14*
X72390000Y-81280000D03*
X74930000Y-81280000D03*
X77470000Y-81280000D03*
X80010000Y-81280000D03*
D15*
X82550000Y-81280000D03*
D14*
X85090000Y-81280000D03*
X87630000Y-81280000D03*
X90170000Y-81280000D03*
X92710000Y-81280000D03*
D15*
X95250000Y-81280000D03*
D14*
X97790000Y-81280000D03*
X100330000Y-81280000D03*
X102870000Y-81280000D03*
X105410000Y-81280000D03*
D15*
X107950000Y-81280000D03*
D14*
X110490000Y-81280000D03*
X113030000Y-81280000D03*
X113030000Y-63500000D03*
X110490000Y-63500000D03*
D15*
X107950000Y-63500000D03*
D14*
X105410000Y-63500000D03*
X102870000Y-63500000D03*
X100330000Y-63500000D03*
X97790000Y-63500000D03*
D15*
X95250000Y-63500000D03*
D14*
X92710000Y-63500000D03*
X90170000Y-63500000D03*
X87630000Y-63500000D03*
X85090000Y-63500000D03*
D15*
X82550000Y-63500000D03*
D14*
X80010000Y-63500000D03*
X77470000Y-63500000D03*
X74930000Y-63500000D03*
X72390000Y-63500000D03*
D15*
X69850000Y-63500000D03*
D14*
X67310000Y-63500000D03*
X64770000Y-63500000D03*
X112800000Y-74930000D03*
D15*
X112800000Y-72390000D03*
D14*
X112800000Y-69850000D03*
%TD*%
D10*
%TO.C,S6*%
X65786000Y-110184000D03*
D11*
X65786000Y-103684000D03*
X70286000Y-110184000D03*
X70286000Y-103684000D03*
%TD*%
D10*
%TO.C,S13*%
X89154000Y-97738000D03*
D11*
X89154000Y-91238000D03*
X93654000Y-97738000D03*
X93654000Y-91238000D03*
%TD*%
D10*
%TO.C,S1*%
X65786000Y-122630000D03*
D11*
X65786000Y-116130000D03*
X70286000Y-122630000D03*
X70286000Y-116130000D03*
%TD*%
D10*
%TO.C,S5*%
X112522000Y-122630000D03*
D11*
X112522000Y-116130000D03*
X117022000Y-122630000D03*
X117022000Y-116130000D03*
%TD*%
M02*
