M48
; DRILL file {KiCad (6.0.7)} date Sat Oct 15 23:14:32 2022
; FORMAT={-:-/ absolute / inch / decimal}
; #@! TF.CreationDate,2022-10-15T23:14:32+02:00
; #@! TF.GenerationSoftware,Kicad,Pcbnew,(6.0.7)
; #@! TF.FileFunction,Plated,1,2,PTH
FMAT,2
INCH
; #@! TA.AperFunction,Plated,PTH,ComponentDrill
T1C0.0402
; #@! TA.AperFunction,Plated,PTH,ComponentDrill
T2C0.0472
%
G90
G05
T1
X2.55Y-2.5
X2.55Y-3.2
X2.65Y-2.5
X2.65Y-3.2
X2.75Y-2.5
X2.75Y-3.2
X2.85Y-2.5
X2.85Y-3.2
X2.95Y-2.5
X2.95Y-3.2
X3.05Y-2.5
X3.05Y-3.2
X3.15Y-2.5
X3.15Y-3.2
X3.25Y-2.5
X3.25Y-3.2
X3.35Y-2.5
X3.35Y-3.2
X3.45Y-2.5
X3.45Y-3.2
X3.55Y-2.5
X3.55Y-3.2
X3.65Y-2.5
X3.65Y-3.2
X3.75Y-2.5
X3.75Y-3.2
X3.85Y-2.5
X3.85Y-3.2
X3.95Y-2.5
X3.95Y-3.2
X4.05Y-2.5
X4.05Y-3.2
X4.15Y-2.5
X4.15Y-3.2
X4.25Y-2.5
X4.25Y-3.2
X4.35Y-2.5
X4.35Y-3.2
X4.4409Y-2.75
X4.4409Y-2.85
X4.4409Y-2.95
X4.45Y-2.5
X4.45Y-3.2
T2
X2.59Y-3.592
X2.59Y-3.848
X2.59Y-4.082
X2.59Y-4.338
X2.59Y-4.572
X2.59Y-4.828
X2.7672Y-3.592
X2.7672Y-3.848
X2.7672Y-4.082
X2.7672Y-4.338
X2.7672Y-4.572
X2.7672Y-4.828
X3.05Y-3.592
X3.05Y-3.848
X3.05Y-4.082
X3.05Y-4.338
X3.05Y-4.572
X3.05Y-4.828
X3.2272Y-3.592
X3.2272Y-3.848
X3.2272Y-4.082
X3.2272Y-4.338
X3.2272Y-4.572
X3.2272Y-4.828
X3.51Y-3.592
X3.51Y-3.848
X3.51Y-4.082
X3.51Y-4.338
X3.51Y-4.572
X3.51Y-4.828
X3.6872Y-3.592
X3.6872Y-3.848
X3.6872Y-4.082
X3.6872Y-4.338
X3.6872Y-4.572
X3.6872Y-4.828
X3.97Y-3.592
X3.97Y-3.848
X3.97Y-4.082
X3.97Y-4.338
X3.97Y-4.572
X3.97Y-4.828
X4.1472Y-3.592
X4.1472Y-3.848
X4.1472Y-4.082
X4.1472Y-4.338
X4.1472Y-4.572
X4.1472Y-4.828
X4.43Y-3.592
X4.43Y-3.848
X4.43Y-4.082
X4.43Y-4.338
X4.43Y-4.572
X4.43Y-4.828
X4.6072Y-3.592
X4.6072Y-3.848
X4.6072Y-4.082
X4.6072Y-4.338
X4.6072Y-4.572
X4.6072Y-4.828
T0
M30
