%TF.GenerationSoftware,KiCad,Pcbnew,(6.0.7)*%
%TF.CreationDate,2022-10-15T23:14:26+02:00*%
%TF.ProjectId,15_button_controller,31355f62-7574-4746-9f6e-5f636f6e7472,rev?*%
%TF.SameCoordinates,Original*%
%TF.FileFunction,Legend,Top*%
%TF.FilePolarity,Positive*%
%FSLAX46Y46*%
G04 Gerber Fmt 4.6, Leading zero omitted, Abs format (unit mm)*
G04 Created by KiCad (PCBNEW (6.0.7)) date 2022-10-15 23:14:26*
%MOMM*%
%LPD*%
G01*
G04 APERTURE LIST*
%ADD10C,0.150000*%
%ADD11C,0.450000*%
%ADD12C,0.100000*%
%ADD13C,0.120000*%
G04 APERTURE END LIST*
D10*
X67344761Y-125166380D02*
X67344761Y-124166380D01*
X67582857Y-124166380D01*
X67725714Y-124214000D01*
X67820952Y-124309238D01*
X67868571Y-124404476D01*
X67916190Y-124594952D01*
X67916190Y-124737809D01*
X67868571Y-124928285D01*
X67820952Y-125023523D01*
X67725714Y-125118761D01*
X67582857Y-125166380D01*
X67344761Y-125166380D01*
X68725714Y-125118761D02*
X68630476Y-125166380D01*
X68440000Y-125166380D01*
X68344761Y-125118761D01*
X68297142Y-125023523D01*
X68297142Y-124642571D01*
X68344761Y-124547333D01*
X68440000Y-124499714D01*
X68630476Y-124499714D01*
X68725714Y-124547333D01*
X68773333Y-124642571D01*
X68773333Y-124737809D01*
X68297142Y-124833047D01*
X69154285Y-125118761D02*
X69249523Y-125166380D01*
X69440000Y-125166380D01*
X69535238Y-125118761D01*
X69582857Y-125023523D01*
X69582857Y-124975904D01*
X69535238Y-124880666D01*
X69440000Y-124833047D01*
X69297142Y-124833047D01*
X69201904Y-124785428D01*
X69154285Y-124690190D01*
X69154285Y-124642571D01*
X69201904Y-124547333D01*
X69297142Y-124499714D01*
X69440000Y-124499714D01*
X69535238Y-124547333D01*
X70011428Y-125166380D02*
X70011428Y-124499714D01*
X70011428Y-124166380D02*
X69963809Y-124214000D01*
X70011428Y-124261619D01*
X70059047Y-124214000D01*
X70011428Y-124166380D01*
X70011428Y-124261619D01*
X70916190Y-124499714D02*
X70916190Y-125309238D01*
X70868571Y-125404476D01*
X70820952Y-125452095D01*
X70725714Y-125499714D01*
X70582857Y-125499714D01*
X70487619Y-125452095D01*
X70916190Y-125118761D02*
X70820952Y-125166380D01*
X70630476Y-125166380D01*
X70535238Y-125118761D01*
X70487619Y-125071142D01*
X70440000Y-124975904D01*
X70440000Y-124690190D01*
X70487619Y-124594952D01*
X70535238Y-124547333D01*
X70630476Y-124499714D01*
X70820952Y-124499714D01*
X70916190Y-124547333D01*
X71392380Y-124499714D02*
X71392380Y-125166380D01*
X71392380Y-124594952D02*
X71440000Y-124547333D01*
X71535238Y-124499714D01*
X71678095Y-124499714D01*
X71773333Y-124547333D01*
X71820952Y-124642571D01*
X71820952Y-125166380D01*
X72678095Y-125118761D02*
X72582857Y-125166380D01*
X72392380Y-125166380D01*
X72297142Y-125118761D01*
X72249523Y-125023523D01*
X72249523Y-124642571D01*
X72297142Y-124547333D01*
X72392380Y-124499714D01*
X72582857Y-124499714D01*
X72678095Y-124547333D01*
X72725714Y-124642571D01*
X72725714Y-124737809D01*
X72249523Y-124833047D01*
X73582857Y-125166380D02*
X73582857Y-124166380D01*
X73582857Y-125118761D02*
X73487619Y-125166380D01*
X73297142Y-125166380D01*
X73201904Y-125118761D01*
X73154285Y-125071142D01*
X73106666Y-124975904D01*
X73106666Y-124690190D01*
X73154285Y-124594952D01*
X73201904Y-124547333D01*
X73297142Y-124499714D01*
X73487619Y-124499714D01*
X73582857Y-124547333D01*
X74820952Y-125166380D02*
X74820952Y-124166380D01*
X74820952Y-124547333D02*
X74916190Y-124499714D01*
X75106666Y-124499714D01*
X75201904Y-124547333D01*
X75249523Y-124594952D01*
X75297142Y-124690190D01*
X75297142Y-124975904D01*
X75249523Y-125071142D01*
X75201904Y-125118761D01*
X75106666Y-125166380D01*
X74916190Y-125166380D01*
X74820952Y-125118761D01*
X75630476Y-124499714D02*
X75868571Y-125166380D01*
X76106666Y-124499714D02*
X75868571Y-125166380D01*
X75773333Y-125404476D01*
X75725714Y-125452095D01*
X75630476Y-125499714D01*
X77535238Y-124166380D02*
X77535238Y-124880666D01*
X77487619Y-125023523D01*
X77392380Y-125118761D01*
X77249523Y-125166380D01*
X77154285Y-125166380D01*
X78440000Y-125166380D02*
X78440000Y-124642571D01*
X78392380Y-124547333D01*
X78297142Y-124499714D01*
X78106666Y-124499714D01*
X78011428Y-124547333D01*
X78440000Y-125118761D02*
X78344761Y-125166380D01*
X78106666Y-125166380D01*
X78011428Y-125118761D01*
X77963809Y-125023523D01*
X77963809Y-124928285D01*
X78011428Y-124833047D01*
X78106666Y-124785428D01*
X78344761Y-124785428D01*
X78440000Y-124737809D01*
X78916190Y-124499714D02*
X78916190Y-125166380D01*
X78916190Y-124594952D02*
X78963809Y-124547333D01*
X79059047Y-124499714D01*
X79201904Y-124499714D01*
X79297142Y-124547333D01*
X79344761Y-124642571D01*
X79344761Y-125166380D01*
X79820952Y-124499714D02*
X79820952Y-125166380D01*
X79820952Y-124594952D02*
X79868571Y-124547333D01*
X79963809Y-124499714D01*
X80106666Y-124499714D01*
X80201904Y-124547333D01*
X80249523Y-124642571D01*
X80249523Y-125166380D01*
X81106666Y-125118761D02*
X81011428Y-125166380D01*
X80820952Y-125166380D01*
X80725714Y-125118761D01*
X80678095Y-125023523D01*
X80678095Y-124642571D01*
X80725714Y-124547333D01*
X80820952Y-124499714D01*
X81011428Y-124499714D01*
X81106666Y-124547333D01*
X81154285Y-124642571D01*
X81154285Y-124737809D01*
X80678095Y-124833047D01*
X82535238Y-124166380D02*
X82725714Y-124166380D01*
X82820952Y-124214000D01*
X82916190Y-124309238D01*
X82963809Y-124499714D01*
X82963809Y-124833047D01*
X82916190Y-125023523D01*
X82820952Y-125118761D01*
X82725714Y-125166380D01*
X82535238Y-125166380D01*
X82440000Y-125118761D01*
X82344761Y-125023523D01*
X82297142Y-124833047D01*
X82297142Y-124499714D01*
X82344761Y-124309238D01*
X82440000Y-124214000D01*
X82535238Y-124166380D01*
X83392380Y-125166380D02*
X83392380Y-124166380D01*
X83487619Y-124785428D02*
X83773333Y-125166380D01*
X83773333Y-124499714D02*
X83392380Y-124880666D01*
X84154285Y-125118761D02*
X84249523Y-125166380D01*
X84440000Y-125166380D01*
X84535238Y-125118761D01*
X84582857Y-125023523D01*
X84582857Y-124975904D01*
X84535238Y-124880666D01*
X84440000Y-124833047D01*
X84297142Y-124833047D01*
X84201904Y-124785428D01*
X84154285Y-124690190D01*
X84154285Y-124642571D01*
X84201904Y-124547333D01*
X84297142Y-124499714D01*
X84440000Y-124499714D01*
X84535238Y-124547333D01*
X85440000Y-125166380D02*
X85440000Y-124642571D01*
X85392380Y-124547333D01*
X85297142Y-124499714D01*
X85106666Y-124499714D01*
X85011428Y-124547333D01*
X85440000Y-125118761D02*
X85344761Y-125166380D01*
X85106666Y-125166380D01*
X85011428Y-125118761D01*
X84963809Y-125023523D01*
X84963809Y-124928285D01*
X85011428Y-124833047D01*
X85106666Y-124785428D01*
X85344761Y-124785428D01*
X85440000Y-124737809D01*
X85916190Y-124499714D02*
X85916190Y-125166380D01*
X85916190Y-124594952D02*
X85963809Y-124547333D01*
X86059047Y-124499714D01*
X86201904Y-124499714D01*
X86297142Y-124547333D01*
X86344761Y-124642571D01*
X86344761Y-125166380D01*
X87201904Y-125118761D02*
X87106666Y-125166380D01*
X86916190Y-125166380D01*
X86820952Y-125118761D01*
X86773333Y-125023523D01*
X86773333Y-124642571D01*
X86820952Y-124547333D01*
X86916190Y-124499714D01*
X87106666Y-124499714D01*
X87201904Y-124547333D01*
X87249523Y-124642571D01*
X87249523Y-124737809D01*
X86773333Y-124833047D01*
X87678095Y-124499714D02*
X87678095Y-125166380D01*
X87678095Y-124594952D02*
X87725714Y-124547333D01*
X87820952Y-124499714D01*
X87963809Y-124499714D01*
X88059047Y-124547333D01*
X88106666Y-124642571D01*
X88106666Y-125166380D01*
X90106666Y-124499714D02*
X89344761Y-124785428D01*
X90106666Y-125071142D01*
X90582857Y-124499714D02*
X90582857Y-125356857D01*
X90535238Y-125452095D01*
X90440000Y-125499714D01*
X90392380Y-125499714D01*
X90582857Y-124166380D02*
X90535238Y-124214000D01*
X90582857Y-124261619D01*
X90630476Y-124214000D01*
X90582857Y-124166380D01*
X90582857Y-124261619D01*
X91487619Y-125166380D02*
X91487619Y-124642571D01*
X91440000Y-124547333D01*
X91344761Y-124499714D01*
X91154285Y-124499714D01*
X91059047Y-124547333D01*
X91487619Y-125118761D02*
X91392380Y-125166380D01*
X91154285Y-125166380D01*
X91059047Y-125118761D01*
X91011428Y-125023523D01*
X91011428Y-124928285D01*
X91059047Y-124833047D01*
X91154285Y-124785428D01*
X91392380Y-124785428D01*
X91487619Y-124737809D01*
X91963809Y-124499714D02*
X91963809Y-125166380D01*
X91963809Y-124594952D02*
X92011428Y-124547333D01*
X92106666Y-124499714D01*
X92249523Y-124499714D01*
X92344761Y-124547333D01*
X92392380Y-124642571D01*
X92392380Y-125166380D01*
X92868571Y-124499714D02*
X92868571Y-125166380D01*
X92868571Y-124594952D02*
X92916190Y-124547333D01*
X93011428Y-124499714D01*
X93154285Y-124499714D01*
X93249523Y-124547333D01*
X93297142Y-124642571D01*
X93297142Y-125166380D01*
X94154285Y-125118761D02*
X94059047Y-125166380D01*
X93868571Y-125166380D01*
X93773333Y-125118761D01*
X93725714Y-125023523D01*
X93725714Y-124642571D01*
X93773333Y-124547333D01*
X93868571Y-124499714D01*
X94059047Y-124499714D01*
X94154285Y-124547333D01*
X94201904Y-124642571D01*
X94201904Y-124737809D01*
X93725714Y-124833047D01*
X94630476Y-125071142D02*
X94678095Y-125118761D01*
X94630476Y-125166380D01*
X94582857Y-125118761D01*
X94630476Y-125071142D01*
X94630476Y-125166380D01*
X95249523Y-125166380D02*
X95154285Y-125118761D01*
X95106666Y-125071142D01*
X95059047Y-124975904D01*
X95059047Y-124690190D01*
X95106666Y-124594952D01*
X95154285Y-124547333D01*
X95249523Y-124499714D01*
X95392380Y-124499714D01*
X95487619Y-124547333D01*
X95535238Y-124594952D01*
X95582857Y-124690190D01*
X95582857Y-124975904D01*
X95535238Y-125071142D01*
X95487619Y-125118761D01*
X95392380Y-125166380D01*
X95249523Y-125166380D01*
X96011428Y-125166380D02*
X96011428Y-124166380D01*
X96106666Y-124785428D02*
X96392380Y-125166380D01*
X96392380Y-124499714D02*
X96011428Y-124880666D01*
X96773333Y-125118761D02*
X96868571Y-125166380D01*
X97059047Y-125166380D01*
X97154285Y-125118761D01*
X97201904Y-125023523D01*
X97201904Y-124975904D01*
X97154285Y-124880666D01*
X97059047Y-124833047D01*
X96916190Y-124833047D01*
X96820952Y-124785428D01*
X96773333Y-124690190D01*
X96773333Y-124642571D01*
X96820952Y-124547333D01*
X96916190Y-124499714D01*
X97059047Y-124499714D01*
X97154285Y-124547333D01*
X98059047Y-125166380D02*
X98059047Y-124642571D01*
X98011428Y-124547333D01*
X97916190Y-124499714D01*
X97725714Y-124499714D01*
X97630476Y-124547333D01*
X98059047Y-125118761D02*
X97963809Y-125166380D01*
X97725714Y-125166380D01*
X97630476Y-125118761D01*
X97582857Y-125023523D01*
X97582857Y-124928285D01*
X97630476Y-124833047D01*
X97725714Y-124785428D01*
X97963809Y-124785428D01*
X98059047Y-124737809D01*
X98535238Y-124499714D02*
X98535238Y-125166380D01*
X98535238Y-124594952D02*
X98582857Y-124547333D01*
X98678095Y-124499714D01*
X98820952Y-124499714D01*
X98916190Y-124547333D01*
X98963809Y-124642571D01*
X98963809Y-125166380D01*
X99820952Y-125118761D02*
X99725714Y-125166380D01*
X99535238Y-125166380D01*
X99440000Y-125118761D01*
X99392380Y-125023523D01*
X99392380Y-124642571D01*
X99440000Y-124547333D01*
X99535238Y-124499714D01*
X99725714Y-124499714D01*
X99820952Y-124547333D01*
X99868571Y-124642571D01*
X99868571Y-124737809D01*
X99392380Y-124833047D01*
X100297142Y-124499714D02*
X100297142Y-125166380D01*
X100297142Y-124594952D02*
X100344761Y-124547333D01*
X100440000Y-124499714D01*
X100582857Y-124499714D01*
X100678095Y-124547333D01*
X100725714Y-124642571D01*
X100725714Y-125166380D01*
X101820952Y-124690190D02*
X101773333Y-124642571D01*
X101678095Y-124594952D01*
X101582857Y-124594952D01*
X101487619Y-124642571D01*
X101440000Y-124690190D01*
X101392380Y-124785428D01*
X101392380Y-124880666D01*
X101440000Y-124975904D01*
X101487619Y-125023523D01*
X101582857Y-125071142D01*
X101678095Y-125071142D01*
X101773333Y-125023523D01*
X101820952Y-124975904D01*
X101820952Y-124594952D02*
X101820952Y-124975904D01*
X101868571Y-125023523D01*
X101916190Y-125023523D01*
X102011428Y-124975904D01*
X102059047Y-124880666D01*
X102059047Y-124642571D01*
X101963809Y-124499714D01*
X101820952Y-124404476D01*
X101630476Y-124356857D01*
X101440000Y-124404476D01*
X101297142Y-124499714D01*
X101201904Y-124642571D01*
X101154285Y-124833047D01*
X101201904Y-125023523D01*
X101297142Y-125166380D01*
X101440000Y-125261619D01*
X101630476Y-125309238D01*
X101820952Y-125261619D01*
X101963809Y-125166380D01*
X102916190Y-124499714D02*
X102916190Y-125309238D01*
X102868571Y-125404476D01*
X102820952Y-125452095D01*
X102725714Y-125499714D01*
X102582857Y-125499714D01*
X102487619Y-125452095D01*
X102916190Y-125118761D02*
X102820952Y-125166380D01*
X102630476Y-125166380D01*
X102535238Y-125118761D01*
X102487619Y-125071142D01*
X102440000Y-124975904D01*
X102440000Y-124690190D01*
X102487619Y-124594952D01*
X102535238Y-124547333D01*
X102630476Y-124499714D01*
X102820952Y-124499714D01*
X102916190Y-124547333D01*
X103392380Y-125166380D02*
X103392380Y-124499714D01*
X103392380Y-124594952D02*
X103439999Y-124547333D01*
X103535238Y-124499714D01*
X103678095Y-124499714D01*
X103773333Y-124547333D01*
X103820952Y-124642571D01*
X103820952Y-125166380D01*
X103820952Y-124642571D02*
X103868571Y-124547333D01*
X103963809Y-124499714D01*
X104106666Y-124499714D01*
X104201904Y-124547333D01*
X104249523Y-124642571D01*
X104249523Y-125166380D01*
X105154285Y-125166380D02*
X105154285Y-124642571D01*
X105106666Y-124547333D01*
X105011428Y-124499714D01*
X104820952Y-124499714D01*
X104725714Y-124547333D01*
X105154285Y-125118761D02*
X105059047Y-125166380D01*
X104820952Y-125166380D01*
X104725714Y-125118761D01*
X104678095Y-125023523D01*
X104678095Y-124928285D01*
X104725714Y-124833047D01*
X104820952Y-124785428D01*
X105059047Y-124785428D01*
X105154285Y-124737809D01*
X105630476Y-125166380D02*
X105630476Y-124499714D01*
X105630476Y-124166380D02*
X105582857Y-124214000D01*
X105630476Y-124261619D01*
X105678095Y-124214000D01*
X105630476Y-124166380D01*
X105630476Y-124261619D01*
X106249523Y-125166380D02*
X106154285Y-125118761D01*
X106106666Y-125023523D01*
X106106666Y-124166380D01*
X106630476Y-125071142D02*
X106678095Y-125118761D01*
X106630476Y-125166380D01*
X106582857Y-125118761D01*
X106630476Y-125071142D01*
X106630476Y-125166380D01*
X107535238Y-125118761D02*
X107440000Y-125166380D01*
X107249523Y-125166380D01*
X107154285Y-125118761D01*
X107106666Y-125071142D01*
X107059047Y-124975904D01*
X107059047Y-124690190D01*
X107106666Y-124594952D01*
X107154285Y-124547333D01*
X107249523Y-124499714D01*
X107440000Y-124499714D01*
X107535238Y-124547333D01*
X108106666Y-125166380D02*
X108011428Y-125118761D01*
X107963809Y-125071142D01*
X107916190Y-124975904D01*
X107916190Y-124690190D01*
X107963809Y-124594952D01*
X108011428Y-124547333D01*
X108106666Y-124499714D01*
X108249523Y-124499714D01*
X108344761Y-124547333D01*
X108392380Y-124594952D01*
X108440000Y-124690190D01*
X108440000Y-124975904D01*
X108392380Y-125071142D01*
X108344761Y-125118761D01*
X108249523Y-125166380D01*
X108106666Y-125166380D01*
X108868571Y-125166380D02*
X108868571Y-124499714D01*
X108868571Y-124594952D02*
X108916190Y-124547333D01*
X109011428Y-124499714D01*
X109154285Y-124499714D01*
X109249523Y-124547333D01*
X109297142Y-124642571D01*
X109297142Y-125166380D01*
X109297142Y-124642571D02*
X109344761Y-124547333D01*
X109439999Y-124499714D01*
X109582857Y-124499714D01*
X109678095Y-124547333D01*
X109725714Y-124642571D01*
X109725714Y-125166380D01*
X110201904Y-124499714D02*
X110963809Y-124785428D01*
X110201904Y-125071142D01*
X112154285Y-124261619D02*
X112201904Y-124214000D01*
X112297142Y-124166380D01*
X112535238Y-124166380D01*
X112630476Y-124214000D01*
X112678095Y-124261619D01*
X112725714Y-124356857D01*
X112725714Y-124452095D01*
X112678095Y-124594952D01*
X112106666Y-125166380D01*
X112725714Y-125166380D01*
X113344761Y-124166380D02*
X113440000Y-124166380D01*
X113535238Y-124214000D01*
X113582857Y-124261619D01*
X113630476Y-124356857D01*
X113678095Y-124547333D01*
X113678095Y-124785428D01*
X113630476Y-124975904D01*
X113582857Y-125071142D01*
X113535238Y-125118761D01*
X113440000Y-125166380D01*
X113344761Y-125166380D01*
X113249523Y-125118761D01*
X113201904Y-125071142D01*
X113154285Y-124975904D01*
X113106666Y-124785428D01*
X113106666Y-124547333D01*
X113154285Y-124356857D01*
X113201904Y-124261619D01*
X113249523Y-124214000D01*
X113344761Y-124166380D01*
X114059047Y-124261619D02*
X114106666Y-124214000D01*
X114201904Y-124166380D01*
X114440000Y-124166380D01*
X114535238Y-124214000D01*
X114582857Y-124261619D01*
X114630476Y-124356857D01*
X114630476Y-124452095D01*
X114582857Y-124594952D01*
X114011428Y-125166380D01*
X114630476Y-125166380D01*
X115011428Y-124261619D02*
X115059047Y-124214000D01*
X115154285Y-124166380D01*
X115392380Y-124166380D01*
X115487619Y-124214000D01*
X115535238Y-124261619D01*
X115582857Y-124356857D01*
X115582857Y-124452095D01*
X115535238Y-124594952D01*
X114963809Y-125166380D01*
X115582857Y-125166380D01*
D11*
X119467142Y-85310571D02*
X116467142Y-85310571D01*
X118610000Y-84310571D01*
X116467142Y-83310571D01*
X119467142Y-83310571D01*
X119467142Y-81882000D02*
X117467142Y-81882000D01*
X116467142Y-81882000D02*
X116610000Y-82024857D01*
X116752857Y-81882000D01*
X116610000Y-81739142D01*
X116467142Y-81882000D01*
X116752857Y-81882000D01*
X117467142Y-80453428D02*
X119467142Y-80453428D01*
X117752857Y-80453428D02*
X117610000Y-80310571D01*
X117467142Y-80024857D01*
X117467142Y-79596285D01*
X117610000Y-79310571D01*
X117895714Y-79167714D01*
X119467142Y-79167714D01*
X119467142Y-77739142D02*
X117467142Y-77739142D01*
X116467142Y-77739142D02*
X116610000Y-77882000D01*
X116752857Y-77739142D01*
X116610000Y-77596285D01*
X116467142Y-77739142D01*
X116752857Y-77739142D01*
X119467142Y-74024857D02*
X116467142Y-74024857D01*
X118610000Y-73024857D01*
X116467142Y-72024857D01*
X119467142Y-72024857D01*
X119467142Y-70596285D02*
X117467142Y-70596285D01*
X116467142Y-70596285D02*
X116610000Y-70739142D01*
X116752857Y-70596285D01*
X116610000Y-70453428D01*
X116467142Y-70596285D01*
X116752857Y-70596285D01*
X119467142Y-67882000D02*
X116467142Y-67882000D01*
X119324285Y-67882000D02*
X119467142Y-68167714D01*
X119467142Y-68739142D01*
X119324285Y-69024857D01*
X119181428Y-69167714D01*
X118895714Y-69310571D01*
X118038571Y-69310571D01*
X117752857Y-69167714D01*
X117610000Y-69024857D01*
X117467142Y-68739142D01*
X117467142Y-68167714D01*
X117610000Y-67882000D01*
X119467142Y-66453428D02*
X117467142Y-66453428D01*
X116467142Y-66453428D02*
X116610000Y-66596285D01*
X116752857Y-66453428D01*
X116610000Y-66310571D01*
X116467142Y-66453428D01*
X116752857Y-66453428D01*
X119467142Y-61167714D02*
X119467142Y-62882000D01*
X119467142Y-62024857D02*
X116467142Y-62024857D01*
X116895714Y-62310571D01*
X117181428Y-62596285D01*
X117324285Y-62882000D01*
X116467142Y-58453428D02*
X116467142Y-59882000D01*
X117895714Y-60024857D01*
X117752857Y-59882000D01*
X117610000Y-59596285D01*
X117610000Y-58882000D01*
X117752857Y-58596285D01*
X117895714Y-58453428D01*
X118181428Y-58310571D01*
X118895714Y-58310571D01*
X119181428Y-58453428D01*
X119324285Y-58596285D01*
X119467142Y-58882000D01*
X119467142Y-59596285D01*
X119324285Y-59882000D01*
X119181428Y-60024857D01*
D10*
%TO.C,S3*%
X87221961Y-119581904D02*
X87269580Y-119439047D01*
X87269580Y-119200952D01*
X87221961Y-119105714D01*
X87174342Y-119058095D01*
X87079104Y-119010476D01*
X86983866Y-119010476D01*
X86888628Y-119058095D01*
X86841009Y-119105714D01*
X86793390Y-119200952D01*
X86745771Y-119391428D01*
X86698152Y-119486666D01*
X86650533Y-119534285D01*
X86555295Y-119581904D01*
X86460057Y-119581904D01*
X86364819Y-119534285D01*
X86317200Y-119486666D01*
X86269580Y-119391428D01*
X86269580Y-119153333D01*
X86317200Y-119010476D01*
X86269580Y-118677142D02*
X86269580Y-118058095D01*
X86650533Y-118391428D01*
X86650533Y-118248571D01*
X86698152Y-118153333D01*
X86745771Y-118105714D01*
X86841009Y-118058095D01*
X87079104Y-118058095D01*
X87174342Y-118105714D01*
X87221961Y-118153333D01*
X87269580Y-118248571D01*
X87269580Y-118534285D01*
X87221961Y-118629523D01*
X87174342Y-118677142D01*
%TO.C,S10*%
X110589961Y-107612095D02*
X110637580Y-107469238D01*
X110637580Y-107231142D01*
X110589961Y-107135904D01*
X110542342Y-107088285D01*
X110447104Y-107040666D01*
X110351866Y-107040666D01*
X110256628Y-107088285D01*
X110209009Y-107135904D01*
X110161390Y-107231142D01*
X110113771Y-107421619D01*
X110066152Y-107516857D01*
X110018533Y-107564476D01*
X109923295Y-107612095D01*
X109828057Y-107612095D01*
X109732819Y-107564476D01*
X109685200Y-107516857D01*
X109637580Y-107421619D01*
X109637580Y-107183523D01*
X109685200Y-107040666D01*
X110637580Y-106088285D02*
X110637580Y-106659714D01*
X110637580Y-106374000D02*
X109637580Y-106374000D01*
X109780438Y-106469238D01*
X109875676Y-106564476D01*
X109923295Y-106659714D01*
X109637580Y-105469238D02*
X109637580Y-105374000D01*
X109685200Y-105278761D01*
X109732819Y-105231142D01*
X109828057Y-105183523D01*
X110018533Y-105135904D01*
X110256628Y-105135904D01*
X110447104Y-105183523D01*
X110542342Y-105231142D01*
X110589961Y-105278761D01*
X110637580Y-105374000D01*
X110637580Y-105469238D01*
X110589961Y-105564476D01*
X110542342Y-105612095D01*
X110447104Y-105659714D01*
X110256628Y-105707333D01*
X110018533Y-105707333D01*
X109828057Y-105659714D01*
X109732819Y-105612095D01*
X109685200Y-105564476D01*
X109637580Y-105469238D01*
%TO.C,S4*%
X98905961Y-119581904D02*
X98953580Y-119439047D01*
X98953580Y-119200952D01*
X98905961Y-119105714D01*
X98858342Y-119058095D01*
X98763104Y-119010476D01*
X98667866Y-119010476D01*
X98572628Y-119058095D01*
X98525009Y-119105714D01*
X98477390Y-119200952D01*
X98429771Y-119391428D01*
X98382152Y-119486666D01*
X98334533Y-119534285D01*
X98239295Y-119581904D01*
X98144057Y-119581904D01*
X98048819Y-119534285D01*
X98001200Y-119486666D01*
X97953580Y-119391428D01*
X97953580Y-119153333D01*
X98001200Y-119010476D01*
X98286914Y-118153333D02*
X98953580Y-118153333D01*
X97905961Y-118391428D02*
X98620247Y-118629523D01*
X98620247Y-118010476D01*
%TO.C,S8*%
X87221961Y-107135904D02*
X87269580Y-106993047D01*
X87269580Y-106754952D01*
X87221961Y-106659714D01*
X87174342Y-106612095D01*
X87079104Y-106564476D01*
X86983866Y-106564476D01*
X86888628Y-106612095D01*
X86841009Y-106659714D01*
X86793390Y-106754952D01*
X86745771Y-106945428D01*
X86698152Y-107040666D01*
X86650533Y-107088285D01*
X86555295Y-107135904D01*
X86460057Y-107135904D01*
X86364819Y-107088285D01*
X86317200Y-107040666D01*
X86269580Y-106945428D01*
X86269580Y-106707333D01*
X86317200Y-106564476D01*
X86698152Y-105993047D02*
X86650533Y-106088285D01*
X86602914Y-106135904D01*
X86507676Y-106183523D01*
X86460057Y-106183523D01*
X86364819Y-106135904D01*
X86317200Y-106088285D01*
X86269580Y-105993047D01*
X86269580Y-105802571D01*
X86317200Y-105707333D01*
X86364819Y-105659714D01*
X86460057Y-105612095D01*
X86507676Y-105612095D01*
X86602914Y-105659714D01*
X86650533Y-105707333D01*
X86698152Y-105802571D01*
X86698152Y-105993047D01*
X86745771Y-106088285D01*
X86793390Y-106135904D01*
X86888628Y-106183523D01*
X87079104Y-106183523D01*
X87174342Y-106135904D01*
X87221961Y-106088285D01*
X87269580Y-105993047D01*
X87269580Y-105802571D01*
X87221961Y-105707333D01*
X87174342Y-105659714D01*
X87079104Y-105612095D01*
X86888628Y-105612095D01*
X86793390Y-105659714D01*
X86745771Y-105707333D01*
X86698152Y-105802571D01*
%TO.C,S11*%
X63853961Y-95166095D02*
X63901580Y-95023238D01*
X63901580Y-94785142D01*
X63853961Y-94689904D01*
X63806342Y-94642285D01*
X63711104Y-94594666D01*
X63615866Y-94594666D01*
X63520628Y-94642285D01*
X63473009Y-94689904D01*
X63425390Y-94785142D01*
X63377771Y-94975619D01*
X63330152Y-95070857D01*
X63282533Y-95118476D01*
X63187295Y-95166095D01*
X63092057Y-95166095D01*
X62996819Y-95118476D01*
X62949200Y-95070857D01*
X62901580Y-94975619D01*
X62901580Y-94737523D01*
X62949200Y-94594666D01*
X63901580Y-93642285D02*
X63901580Y-94213714D01*
X63901580Y-93928000D02*
X62901580Y-93928000D01*
X63044438Y-94023238D01*
X63139676Y-94118476D01*
X63187295Y-94213714D01*
X63901580Y-92689904D02*
X63901580Y-93261333D01*
X63901580Y-92975619D02*
X62901580Y-92975619D01*
X63044438Y-93070857D01*
X63139676Y-93166095D01*
X63187295Y-93261333D01*
%TO.C,S2*%
X75537961Y-119581904D02*
X75585580Y-119439047D01*
X75585580Y-119200952D01*
X75537961Y-119105714D01*
X75490342Y-119058095D01*
X75395104Y-119010476D01*
X75299866Y-119010476D01*
X75204628Y-119058095D01*
X75157009Y-119105714D01*
X75109390Y-119200952D01*
X75061771Y-119391428D01*
X75014152Y-119486666D01*
X74966533Y-119534285D01*
X74871295Y-119581904D01*
X74776057Y-119581904D01*
X74680819Y-119534285D01*
X74633200Y-119486666D01*
X74585580Y-119391428D01*
X74585580Y-119153333D01*
X74633200Y-119010476D01*
X74680819Y-118629523D02*
X74633200Y-118581904D01*
X74585580Y-118486666D01*
X74585580Y-118248571D01*
X74633200Y-118153333D01*
X74680819Y-118105714D01*
X74776057Y-118058095D01*
X74871295Y-118058095D01*
X75014152Y-118105714D01*
X75585580Y-118677142D01*
X75585580Y-118058095D01*
%TO.C,S15*%
X110589961Y-95166095D02*
X110637580Y-95023238D01*
X110637580Y-94785142D01*
X110589961Y-94689904D01*
X110542342Y-94642285D01*
X110447104Y-94594666D01*
X110351866Y-94594666D01*
X110256628Y-94642285D01*
X110209009Y-94689904D01*
X110161390Y-94785142D01*
X110113771Y-94975619D01*
X110066152Y-95070857D01*
X110018533Y-95118476D01*
X109923295Y-95166095D01*
X109828057Y-95166095D01*
X109732819Y-95118476D01*
X109685200Y-95070857D01*
X109637580Y-94975619D01*
X109637580Y-94737523D01*
X109685200Y-94594666D01*
X110637580Y-93642285D02*
X110637580Y-94213714D01*
X110637580Y-93928000D02*
X109637580Y-93928000D01*
X109780438Y-94023238D01*
X109875676Y-94118476D01*
X109923295Y-94213714D01*
X109637580Y-92737523D02*
X109637580Y-93213714D01*
X110113771Y-93261333D01*
X110066152Y-93213714D01*
X110018533Y-93118476D01*
X110018533Y-92880380D01*
X110066152Y-92785142D01*
X110113771Y-92737523D01*
X110209009Y-92689904D01*
X110447104Y-92689904D01*
X110542342Y-92737523D01*
X110589961Y-92785142D01*
X110637580Y-92880380D01*
X110637580Y-93118476D01*
X110589961Y-93213714D01*
X110542342Y-93261333D01*
%TO.C,S14*%
X98905961Y-95166095D02*
X98953580Y-95023238D01*
X98953580Y-94785142D01*
X98905961Y-94689904D01*
X98858342Y-94642285D01*
X98763104Y-94594666D01*
X98667866Y-94594666D01*
X98572628Y-94642285D01*
X98525009Y-94689904D01*
X98477390Y-94785142D01*
X98429771Y-94975619D01*
X98382152Y-95070857D01*
X98334533Y-95118476D01*
X98239295Y-95166095D01*
X98144057Y-95166095D01*
X98048819Y-95118476D01*
X98001200Y-95070857D01*
X97953580Y-94975619D01*
X97953580Y-94737523D01*
X98001200Y-94594666D01*
X98953580Y-93642285D02*
X98953580Y-94213714D01*
X98953580Y-93928000D02*
X97953580Y-93928000D01*
X98096438Y-94023238D01*
X98191676Y-94118476D01*
X98239295Y-94213714D01*
X98286914Y-92785142D02*
X98953580Y-92785142D01*
X97905961Y-93023238D02*
X98620247Y-93261333D01*
X98620247Y-92642285D01*
%TO.C,S9*%
X98905961Y-107135904D02*
X98953580Y-106993047D01*
X98953580Y-106754952D01*
X98905961Y-106659714D01*
X98858342Y-106612095D01*
X98763104Y-106564476D01*
X98667866Y-106564476D01*
X98572628Y-106612095D01*
X98525009Y-106659714D01*
X98477390Y-106754952D01*
X98429771Y-106945428D01*
X98382152Y-107040666D01*
X98334533Y-107088285D01*
X98239295Y-107135904D01*
X98144057Y-107135904D01*
X98048819Y-107088285D01*
X98001200Y-107040666D01*
X97953580Y-106945428D01*
X97953580Y-106707333D01*
X98001200Y-106564476D01*
X98953580Y-106088285D02*
X98953580Y-105897809D01*
X98905961Y-105802571D01*
X98858342Y-105754952D01*
X98715485Y-105659714D01*
X98525009Y-105612095D01*
X98144057Y-105612095D01*
X98048819Y-105659714D01*
X98001200Y-105707333D01*
X97953580Y-105802571D01*
X97953580Y-105993047D01*
X98001200Y-106088285D01*
X98048819Y-106135904D01*
X98144057Y-106183523D01*
X98382152Y-106183523D01*
X98477390Y-106135904D01*
X98525009Y-106088285D01*
X98572628Y-105993047D01*
X98572628Y-105802571D01*
X98525009Y-105707333D01*
X98477390Y-105659714D01*
X98382152Y-105612095D01*
%TO.C,S7*%
X75537961Y-107135904D02*
X75585580Y-106993047D01*
X75585580Y-106754952D01*
X75537961Y-106659714D01*
X75490342Y-106612095D01*
X75395104Y-106564476D01*
X75299866Y-106564476D01*
X75204628Y-106612095D01*
X75157009Y-106659714D01*
X75109390Y-106754952D01*
X75061771Y-106945428D01*
X75014152Y-107040666D01*
X74966533Y-107088285D01*
X74871295Y-107135904D01*
X74776057Y-107135904D01*
X74680819Y-107088285D01*
X74633200Y-107040666D01*
X74585580Y-106945428D01*
X74585580Y-106707333D01*
X74633200Y-106564476D01*
X74585580Y-106231142D02*
X74585580Y-105564476D01*
X75585580Y-105993047D01*
%TO.C,S12*%
X75537961Y-95166095D02*
X75585580Y-95023238D01*
X75585580Y-94785142D01*
X75537961Y-94689904D01*
X75490342Y-94642285D01*
X75395104Y-94594666D01*
X75299866Y-94594666D01*
X75204628Y-94642285D01*
X75157009Y-94689904D01*
X75109390Y-94785142D01*
X75061771Y-94975619D01*
X75014152Y-95070857D01*
X74966533Y-95118476D01*
X74871295Y-95166095D01*
X74776057Y-95166095D01*
X74680819Y-95118476D01*
X74633200Y-95070857D01*
X74585580Y-94975619D01*
X74585580Y-94737523D01*
X74633200Y-94594666D01*
X75585580Y-93642285D02*
X75585580Y-94213714D01*
X75585580Y-93928000D02*
X74585580Y-93928000D01*
X74728438Y-94023238D01*
X74823676Y-94118476D01*
X74871295Y-94213714D01*
X74680819Y-93261333D02*
X74633200Y-93213714D01*
X74585580Y-93118476D01*
X74585580Y-92880380D01*
X74633200Y-92785142D01*
X74680819Y-92737523D01*
X74776057Y-92689904D01*
X74871295Y-92689904D01*
X75014152Y-92737523D01*
X75585580Y-93308952D01*
X75585580Y-92689904D01*
%TO.C,U1*%
X88352380Y-73151904D02*
X89161904Y-73151904D01*
X89257142Y-73104285D01*
X89304761Y-73056666D01*
X89352380Y-72961428D01*
X89352380Y-72770952D01*
X89304761Y-72675714D01*
X89257142Y-72628095D01*
X89161904Y-72580476D01*
X88352380Y-72580476D01*
X89352380Y-71580476D02*
X89352380Y-72151904D01*
X89352380Y-71866190D02*
X88352380Y-71866190D01*
X88495238Y-71961428D01*
X88590476Y-72056666D01*
X88638095Y-72151904D01*
X92831218Y-85876903D02*
X92858155Y-85957715D01*
X92938967Y-86038528D01*
X93046717Y-86092402D01*
X93154467Y-86092402D01*
X93235279Y-86065465D01*
X93369966Y-85984653D01*
X93450778Y-85903841D01*
X93531590Y-85769154D01*
X93558528Y-85688341D01*
X93558528Y-85580592D01*
X93504653Y-85472842D01*
X93450778Y-85418967D01*
X93343028Y-85365093D01*
X93289154Y-85365093D01*
X93100592Y-85553654D01*
X93208341Y-85661404D01*
X93100592Y-85068781D02*
X92534906Y-85634467D01*
X92319407Y-85418967D01*
X92292470Y-85338155D01*
X92292470Y-85284280D01*
X92319407Y-85203468D01*
X92400219Y-85122656D01*
X92481032Y-85095719D01*
X92534906Y-85095719D01*
X92615719Y-85122656D01*
X92831218Y-85338155D01*
X92507969Y-84476158D02*
X92400219Y-84368409D01*
X92319407Y-84341471D01*
X92265532Y-84341471D01*
X92130845Y-84368409D01*
X91996158Y-84449221D01*
X91780659Y-84664720D01*
X91753722Y-84745532D01*
X91753722Y-84799407D01*
X91780659Y-84880219D01*
X91888409Y-84987969D01*
X91969221Y-85014906D01*
X92023096Y-85014906D01*
X92103908Y-84987969D01*
X92238595Y-84853282D01*
X92265532Y-84772470D01*
X92265532Y-84718595D01*
X92238595Y-84637783D01*
X92130845Y-84530033D01*
X92050033Y-84503096D01*
X91996158Y-84503096D01*
X91915346Y-84530033D01*
X100720592Y-60292277D02*
X100747529Y-60373089D01*
X100828341Y-60453902D01*
X100936091Y-60507776D01*
X101043841Y-60507776D01*
X101124653Y-60480839D01*
X101259340Y-60400027D01*
X101340152Y-60319215D01*
X101420964Y-60184528D01*
X101447902Y-60103715D01*
X101447902Y-59995966D01*
X101394027Y-59888216D01*
X101340152Y-59834341D01*
X101232402Y-59780467D01*
X101178528Y-59780467D01*
X100989966Y-59969028D01*
X101097715Y-60076778D01*
X100989966Y-59484155D02*
X100424280Y-60049841D01*
X100208781Y-59834341D01*
X100181844Y-59753529D01*
X100181844Y-59699654D01*
X100208781Y-59618842D01*
X100289593Y-59538030D01*
X100370406Y-59511093D01*
X100424280Y-59511093D01*
X100505093Y-59538030D01*
X100720592Y-59753529D01*
X99939407Y-59457218D02*
X99885532Y-59457218D01*
X99804720Y-59430280D01*
X99670033Y-59295593D01*
X99643096Y-59214781D01*
X99643096Y-59160906D01*
X99670033Y-59080094D01*
X99723908Y-59026219D01*
X99831658Y-58972345D01*
X100478155Y-58972345D01*
X100127969Y-58622158D01*
X99212097Y-58837658D02*
X99158223Y-58783783D01*
X99131285Y-58702971D01*
X99131285Y-58649096D01*
X99158223Y-58568284D01*
X99239035Y-58433597D01*
X99373722Y-58298910D01*
X99508409Y-58218097D01*
X99589221Y-58191160D01*
X99643096Y-58191160D01*
X99723908Y-58218097D01*
X99777783Y-58271972D01*
X99804720Y-58352784D01*
X99804720Y-58406659D01*
X99777783Y-58487471D01*
X99696971Y-58622158D01*
X99562284Y-58756845D01*
X99427597Y-58837658D01*
X99346784Y-58864595D01*
X99292910Y-58864595D01*
X99212097Y-58837658D01*
X95398155Y-60303841D02*
X95425093Y-60384653D01*
X95505905Y-60465465D01*
X95613654Y-60519340D01*
X95721404Y-60519340D01*
X95802216Y-60492402D01*
X95936903Y-60411590D01*
X96017715Y-60330778D01*
X96098528Y-60196091D01*
X96125465Y-60115279D01*
X96125465Y-60007529D01*
X96071590Y-59899780D01*
X96017715Y-59845905D01*
X95909966Y-59792030D01*
X95856091Y-59792030D01*
X95667529Y-59980592D01*
X95775279Y-60088341D01*
X95667529Y-59495719D02*
X95101844Y-60061404D01*
X95344280Y-59172470D01*
X94778595Y-59738155D01*
X95074906Y-58903096D02*
X94509221Y-59468781D01*
X94374534Y-59334094D01*
X94320659Y-59226345D01*
X94320659Y-59118595D01*
X94347597Y-59037783D01*
X94428409Y-58903096D01*
X94509221Y-58822284D01*
X94643908Y-58741471D01*
X94724720Y-58714534D01*
X94832470Y-58714534D01*
X94940219Y-58768409D01*
X95074906Y-58903096D01*
X98190592Y-60292277D02*
X98217529Y-60373089D01*
X98298341Y-60453902D01*
X98406091Y-60507776D01*
X98513841Y-60507776D01*
X98594653Y-60480839D01*
X98729340Y-60400027D01*
X98810152Y-60319215D01*
X98890964Y-60184528D01*
X98917902Y-60103715D01*
X98917902Y-59995966D01*
X98864027Y-59888216D01*
X98810152Y-59834341D01*
X98702402Y-59780467D01*
X98648528Y-59780467D01*
X98459966Y-59969028D01*
X98567715Y-60076778D01*
X98459966Y-59484155D02*
X97894280Y-60049841D01*
X97678781Y-59834341D01*
X97651844Y-59753529D01*
X97651844Y-59699654D01*
X97678781Y-59618842D01*
X97759593Y-59538030D01*
X97840406Y-59511093D01*
X97894280Y-59511093D01*
X97975093Y-59538030D01*
X98190592Y-59753529D01*
X97409407Y-59457218D02*
X97355532Y-59457218D01*
X97274720Y-59430280D01*
X97140033Y-59295593D01*
X97113096Y-59214781D01*
X97113096Y-59160906D01*
X97140033Y-59080094D01*
X97193908Y-59026219D01*
X97301658Y-58972345D01*
X97948155Y-58972345D01*
X97597969Y-58622158D01*
X97059221Y-58083410D02*
X97382470Y-58406659D01*
X97220845Y-58245035D02*
X96655160Y-58810720D01*
X96789847Y-58783783D01*
X96897597Y-58783783D01*
X96978409Y-58810720D01*
X72858308Y-60467868D02*
X72508122Y-60117682D01*
X72912183Y-60090744D01*
X72831370Y-60009932D01*
X72804433Y-59929120D01*
X72804433Y-59875245D01*
X72831370Y-59794433D01*
X72966057Y-59659746D01*
X73046870Y-59632809D01*
X73100744Y-59632809D01*
X73181557Y-59659746D01*
X73343181Y-59821370D01*
X73370118Y-59902183D01*
X73370118Y-59956057D01*
X72346497Y-59956057D02*
X72723621Y-59201810D01*
X71969374Y-59578934D01*
X71834687Y-59444247D02*
X71484500Y-59094061D01*
X71888561Y-59067123D01*
X71807749Y-58986311D01*
X71780812Y-58905499D01*
X71780812Y-58851624D01*
X71807749Y-58770812D01*
X71942436Y-58636125D01*
X72023248Y-58609187D01*
X72077123Y-58609187D01*
X72157935Y-58636125D01*
X72319560Y-58797749D01*
X72346497Y-58878561D01*
X72346497Y-58932436D01*
X71996311Y-58366751D02*
X71565312Y-57935752D01*
X71080439Y-58151251D02*
X70891877Y-57962690D01*
X71107377Y-57585566D02*
X71376751Y-57854940D01*
X70811065Y-58420625D01*
X70541691Y-58151251D01*
X70864940Y-57343129D02*
X70299255Y-57908815D01*
X70541691Y-57019881D01*
X69976006Y-57585566D01*
X65427309Y-60436870D02*
X65804433Y-59682622D01*
X65050186Y-60059746D01*
X64942436Y-59413248D02*
X64888561Y-59305499D01*
X64888561Y-59251624D01*
X64915499Y-59170812D01*
X64996311Y-59090000D01*
X65077123Y-59063062D01*
X65130998Y-59063062D01*
X65211810Y-59090000D01*
X65427309Y-59305499D01*
X64861624Y-59871184D01*
X64673062Y-59682622D01*
X64646125Y-59601810D01*
X64646125Y-59547935D01*
X64673062Y-59467123D01*
X64726937Y-59413248D01*
X64807749Y-59386311D01*
X64861624Y-59386311D01*
X64942436Y-59413248D01*
X65130998Y-59601810D01*
X64295938Y-59305499D02*
X64753874Y-58847563D01*
X64780812Y-58766751D01*
X64780812Y-58712876D01*
X64753874Y-58632064D01*
X64646125Y-58524314D01*
X64565312Y-58497377D01*
X64511438Y-58497377D01*
X64430625Y-58524314D01*
X63972690Y-58982250D01*
X64269001Y-58201065D02*
X64215126Y-58093316D01*
X64080439Y-57958629D01*
X63999627Y-57931691D01*
X63945752Y-57931691D01*
X63864940Y-57958629D01*
X63811065Y-58012503D01*
X63784128Y-58093316D01*
X63784128Y-58147190D01*
X63811065Y-58228003D01*
X63891877Y-58362690D01*
X63918815Y-58443502D01*
X63918815Y-58497377D01*
X63891877Y-58578189D01*
X63838003Y-58632064D01*
X63757190Y-58659001D01*
X63703316Y-58659001D01*
X63622503Y-58632064D01*
X63487816Y-58497377D01*
X63433942Y-58389627D01*
X115423809Y-79899523D02*
X115461904Y-79785238D01*
X115461904Y-79594761D01*
X115423809Y-79518571D01*
X115385714Y-79480476D01*
X115309523Y-79442380D01*
X115233333Y-79442380D01*
X115157142Y-79480476D01*
X115119047Y-79518571D01*
X115080952Y-79594761D01*
X115042857Y-79747142D01*
X115004761Y-79823333D01*
X114966666Y-79861428D01*
X114890476Y-79899523D01*
X114814285Y-79899523D01*
X114738095Y-79861428D01*
X114700000Y-79823333D01*
X114661904Y-79747142D01*
X114661904Y-79556666D01*
X114700000Y-79442380D01*
X114661904Y-79175714D02*
X115461904Y-78985238D01*
X114890476Y-78832857D01*
X115461904Y-78680476D01*
X114661904Y-78490000D01*
X115385714Y-77728095D02*
X115423809Y-77766190D01*
X115461904Y-77880476D01*
X115461904Y-77956666D01*
X115423809Y-78070952D01*
X115347619Y-78147142D01*
X115271428Y-78185238D01*
X115119047Y-78223333D01*
X115004761Y-78223333D01*
X114852380Y-78185238D01*
X114776190Y-78147142D01*
X114700000Y-78070952D01*
X114661904Y-77956666D01*
X114661904Y-77880476D01*
X114700000Y-77766190D01*
X114738095Y-77728095D01*
X115461904Y-77004285D02*
X115461904Y-77385238D01*
X114661904Y-77385238D01*
X115461904Y-76737619D02*
X114661904Y-76737619D01*
X115461904Y-76280476D02*
X115004761Y-76623333D01*
X114661904Y-76280476D02*
X115119047Y-76737619D01*
X77591218Y-85876903D02*
X77618155Y-85957715D01*
X77698967Y-86038528D01*
X77806717Y-86092402D01*
X77914467Y-86092402D01*
X77995279Y-86065465D01*
X78129966Y-85984653D01*
X78210778Y-85903841D01*
X78291590Y-85769154D01*
X78318528Y-85688341D01*
X78318528Y-85580592D01*
X78264653Y-85472842D01*
X78210778Y-85418967D01*
X78103028Y-85365093D01*
X78049154Y-85365093D01*
X77860592Y-85553654D01*
X77968341Y-85661404D01*
X77860592Y-85068781D02*
X77294906Y-85634467D01*
X77079407Y-85418967D01*
X77052470Y-85338155D01*
X77052470Y-85284280D01*
X77079407Y-85203468D01*
X77160219Y-85122656D01*
X77241032Y-85095719D01*
X77294906Y-85095719D01*
X77375719Y-85122656D01*
X77591218Y-85338155D01*
X76675346Y-84637783D02*
X77052470Y-84260659D01*
X76594534Y-84987969D02*
X77133282Y-84718595D01*
X76783096Y-84368409D01*
X103260592Y-86546277D02*
X103287529Y-86627089D01*
X103368341Y-86707902D01*
X103476091Y-86761776D01*
X103583841Y-86761776D01*
X103664653Y-86734839D01*
X103799340Y-86654027D01*
X103880152Y-86573215D01*
X103960964Y-86438528D01*
X103987902Y-86357715D01*
X103987902Y-86249966D01*
X103934027Y-86142216D01*
X103880152Y-86088341D01*
X103772402Y-86034467D01*
X103718528Y-86034467D01*
X103529966Y-86223028D01*
X103637715Y-86330778D01*
X103529966Y-85738155D02*
X102964280Y-86303841D01*
X102748781Y-86088341D01*
X102721844Y-86007529D01*
X102721844Y-85953654D01*
X102748781Y-85872842D01*
X102829593Y-85792030D01*
X102910406Y-85765093D01*
X102964280Y-85765093D01*
X103045093Y-85792030D01*
X103260592Y-86007529D01*
X102667969Y-84876158D02*
X102991218Y-85199407D01*
X102829593Y-85037783D02*
X102263908Y-85603468D01*
X102398595Y-85576531D01*
X102506345Y-85576531D01*
X102587157Y-85603468D01*
X101940659Y-85172470D02*
X101886784Y-85172470D01*
X101805972Y-85145532D01*
X101671285Y-85010845D01*
X101644348Y-84930033D01*
X101644348Y-84876158D01*
X101671285Y-84795346D01*
X101725160Y-84741471D01*
X101832910Y-84687597D01*
X102479407Y-84687597D01*
X102129221Y-84337410D01*
X85490592Y-60292277D02*
X85517529Y-60373089D01*
X85598341Y-60453902D01*
X85706091Y-60507776D01*
X85813841Y-60507776D01*
X85894653Y-60480839D01*
X86029340Y-60400027D01*
X86110152Y-60319215D01*
X86190964Y-60184528D01*
X86217902Y-60103715D01*
X86217902Y-59995966D01*
X86164027Y-59888216D01*
X86110152Y-59834341D01*
X86002402Y-59780467D01*
X85948528Y-59780467D01*
X85759966Y-59969028D01*
X85867715Y-60076778D01*
X85759966Y-59484155D02*
X85194280Y-60049841D01*
X84978781Y-59834341D01*
X84951844Y-59753529D01*
X84951844Y-59699654D01*
X84978781Y-59618842D01*
X85059593Y-59538030D01*
X85140406Y-59511093D01*
X85194280Y-59511093D01*
X85275093Y-59538030D01*
X85490592Y-59753529D01*
X84709407Y-59457218D02*
X84655532Y-59457218D01*
X84574720Y-59430280D01*
X84440033Y-59295593D01*
X84413096Y-59214781D01*
X84413096Y-59160906D01*
X84440033Y-59080094D01*
X84493908Y-59026219D01*
X84601658Y-58972345D01*
X85248155Y-58972345D01*
X84897969Y-58622158D01*
X84143722Y-58999282D02*
X83766598Y-58622158D01*
X84574720Y-58298910D01*
X69998155Y-85903841D02*
X70025093Y-85984653D01*
X70105905Y-86065465D01*
X70213654Y-86119340D01*
X70321404Y-86119340D01*
X70402216Y-86092402D01*
X70536903Y-86011590D01*
X70617715Y-85930778D01*
X70698528Y-85796091D01*
X70725465Y-85715279D01*
X70725465Y-85607529D01*
X70671590Y-85499780D01*
X70617715Y-85445905D01*
X70509966Y-85392030D01*
X70456091Y-85392030D01*
X70267529Y-85580592D01*
X70375279Y-85688341D01*
X70267529Y-85095719D02*
X69701844Y-85661404D01*
X69944280Y-84772470D01*
X69378595Y-85338155D01*
X69674906Y-84503096D02*
X69109221Y-85068781D01*
X68974534Y-84934094D01*
X68920659Y-84826345D01*
X68920659Y-84718595D01*
X68947597Y-84637783D01*
X69028409Y-84503096D01*
X69109221Y-84422284D01*
X69243908Y-84341471D01*
X69324720Y-84314534D01*
X69432470Y-84314534D01*
X69540219Y-84368409D01*
X69674906Y-84503096D01*
X110880592Y-86446277D02*
X110907529Y-86527089D01*
X110988341Y-86607902D01*
X111096091Y-86661776D01*
X111203841Y-86661776D01*
X111284653Y-86634839D01*
X111419340Y-86554027D01*
X111500152Y-86473215D01*
X111580964Y-86338528D01*
X111607902Y-86257715D01*
X111607902Y-86149966D01*
X111554027Y-86042216D01*
X111500152Y-85988341D01*
X111392402Y-85934467D01*
X111338528Y-85934467D01*
X111149966Y-86123028D01*
X111257715Y-86230778D01*
X111149966Y-85638155D02*
X110584280Y-86203841D01*
X110368781Y-85988341D01*
X110341844Y-85907529D01*
X110341844Y-85853654D01*
X110368781Y-85772842D01*
X110449593Y-85692030D01*
X110530406Y-85665093D01*
X110584280Y-85665093D01*
X110665093Y-85692030D01*
X110880592Y-85907529D01*
X110287969Y-84776158D02*
X110611218Y-85099407D01*
X110449593Y-84937783D02*
X109883908Y-85503468D01*
X110018595Y-85476531D01*
X110126345Y-85476531D01*
X110207157Y-85503468D01*
X109425972Y-84668409D02*
X109803096Y-84291285D01*
X109345160Y-85018595D02*
X109883908Y-84749221D01*
X109533722Y-84399035D01*
X72511218Y-85976903D02*
X72538155Y-86057715D01*
X72618967Y-86138528D01*
X72726717Y-86192402D01*
X72834467Y-86192402D01*
X72915279Y-86165465D01*
X73049966Y-86084653D01*
X73130778Y-86003841D01*
X73211590Y-85869154D01*
X73238528Y-85788341D01*
X73238528Y-85680592D01*
X73184653Y-85572842D01*
X73130778Y-85518967D01*
X73023028Y-85465093D01*
X72969154Y-85465093D01*
X72780592Y-85653654D01*
X72888341Y-85761404D01*
X72780592Y-85168781D02*
X72214906Y-85734467D01*
X71999407Y-85518967D01*
X71972470Y-85438155D01*
X71972470Y-85384280D01*
X71999407Y-85303468D01*
X72080219Y-85222656D01*
X72161032Y-85195719D01*
X72214906Y-85195719D01*
X72295719Y-85222656D01*
X72511218Y-85438155D01*
X71730033Y-85141844D02*
X71676158Y-85141844D01*
X71595346Y-85114906D01*
X71460659Y-84980219D01*
X71433722Y-84899407D01*
X71433722Y-84845532D01*
X71460659Y-84764720D01*
X71514534Y-84710845D01*
X71622284Y-84656971D01*
X72268781Y-84656971D01*
X71918595Y-84306784D01*
X113420592Y-60292277D02*
X113447529Y-60373089D01*
X113528341Y-60453902D01*
X113636091Y-60507776D01*
X113743841Y-60507776D01*
X113824653Y-60480839D01*
X113959340Y-60400027D01*
X114040152Y-60319215D01*
X114120964Y-60184528D01*
X114147902Y-60103715D01*
X114147902Y-59995966D01*
X114094027Y-59888216D01*
X114040152Y-59834341D01*
X113932402Y-59780467D01*
X113878528Y-59780467D01*
X113689966Y-59969028D01*
X113797715Y-60076778D01*
X113689966Y-59484155D02*
X113124280Y-60049841D01*
X112908781Y-59834341D01*
X112881844Y-59753529D01*
X112881844Y-59699654D01*
X112908781Y-59618842D01*
X112989593Y-59538030D01*
X113070406Y-59511093D01*
X113124280Y-59511093D01*
X113205093Y-59538030D01*
X113420592Y-59753529D01*
X112827969Y-58622158D02*
X113151218Y-58945407D01*
X112989593Y-58783783D02*
X112423908Y-59349468D01*
X112558595Y-59322531D01*
X112666345Y-59322531D01*
X112747157Y-59349468D01*
X111777410Y-58702971D02*
X111885160Y-58810720D01*
X111965972Y-58837658D01*
X112019847Y-58837658D01*
X112154534Y-58810720D01*
X112289221Y-58729908D01*
X112504720Y-58514409D01*
X112531658Y-58433597D01*
X112531658Y-58379722D01*
X112504720Y-58298910D01*
X112396971Y-58191160D01*
X112316158Y-58164223D01*
X112262284Y-58164223D01*
X112181471Y-58191160D01*
X112046784Y-58325847D01*
X112019847Y-58406659D01*
X112019847Y-58460534D01*
X112046784Y-58541346D01*
X112154534Y-58649096D01*
X112235346Y-58676033D01*
X112289221Y-58676033D01*
X112370033Y-58649096D01*
X67969966Y-60469526D02*
X68347089Y-59715279D01*
X67592842Y-60092402D01*
X67969966Y-59392030D02*
X67916091Y-59284280D01*
X67781404Y-59149593D01*
X67700592Y-59122656D01*
X67646717Y-59122656D01*
X67565905Y-59149593D01*
X67512030Y-59203468D01*
X67485093Y-59284280D01*
X67485093Y-59338155D01*
X67512030Y-59418967D01*
X67592842Y-59553654D01*
X67619780Y-59634467D01*
X67619780Y-59688341D01*
X67592842Y-59769154D01*
X67538967Y-59823028D01*
X67458155Y-59849966D01*
X67404280Y-59849966D01*
X67323468Y-59823028D01*
X67188781Y-59688341D01*
X67134906Y-59580592D01*
X67054094Y-58961032D02*
X67323468Y-58691658D01*
X66946345Y-59445905D02*
X67054094Y-58961032D01*
X66569221Y-59068781D01*
X66946345Y-58368409D02*
X66892470Y-58260659D01*
X66757783Y-58125972D01*
X66676971Y-58099035D01*
X66623096Y-58099035D01*
X66542284Y-58125972D01*
X66488409Y-58179847D01*
X66461471Y-58260659D01*
X66461471Y-58314534D01*
X66488409Y-58395346D01*
X66569221Y-58530033D01*
X66596158Y-58610845D01*
X66596158Y-58664720D01*
X66569221Y-58745532D01*
X66515346Y-58799407D01*
X66434534Y-58826345D01*
X66380659Y-58826345D01*
X66299847Y-58799407D01*
X66165160Y-58664720D01*
X66111285Y-58556971D01*
X85211218Y-85876903D02*
X85238155Y-85957715D01*
X85318967Y-86038528D01*
X85426717Y-86092402D01*
X85534467Y-86092402D01*
X85615279Y-86065465D01*
X85749966Y-85984653D01*
X85830778Y-85903841D01*
X85911590Y-85769154D01*
X85938528Y-85688341D01*
X85938528Y-85580592D01*
X85884653Y-85472842D01*
X85830778Y-85418967D01*
X85723028Y-85365093D01*
X85669154Y-85365093D01*
X85480592Y-85553654D01*
X85588341Y-85661404D01*
X85480592Y-85068781D02*
X84914906Y-85634467D01*
X84699407Y-85418967D01*
X84672470Y-85338155D01*
X84672470Y-85284280D01*
X84699407Y-85203468D01*
X84780219Y-85122656D01*
X84861032Y-85095719D01*
X84914906Y-85095719D01*
X84995719Y-85122656D01*
X85211218Y-85338155D01*
X84106784Y-84826345D02*
X84214534Y-84934094D01*
X84295346Y-84961032D01*
X84349221Y-84961032D01*
X84483908Y-84934094D01*
X84618595Y-84853282D01*
X84834094Y-84637783D01*
X84861032Y-84556971D01*
X84861032Y-84503096D01*
X84834094Y-84422284D01*
X84726345Y-84314534D01*
X84645532Y-84287597D01*
X84591658Y-84287597D01*
X84510845Y-84314534D01*
X84376158Y-84449221D01*
X84349221Y-84530033D01*
X84349221Y-84583908D01*
X84376158Y-84664720D01*
X84483908Y-84772470D01*
X84564720Y-84799407D01*
X84618595Y-84799407D01*
X84699407Y-84772470D01*
X90843435Y-59551624D02*
X90762622Y-60009560D01*
X91166683Y-59874873D02*
X90600998Y-60440558D01*
X90385499Y-60225059D01*
X90358561Y-60144247D01*
X90358561Y-60090372D01*
X90385499Y-60009560D01*
X90466311Y-59928748D01*
X90547123Y-59901810D01*
X90600998Y-59901810D01*
X90681810Y-59928748D01*
X90897309Y-60144247D01*
X90035312Y-59874873D02*
X90493248Y-59416937D01*
X90520186Y-59336125D01*
X90520186Y-59282250D01*
X90493248Y-59201438D01*
X90385499Y-59093688D01*
X90304687Y-59066751D01*
X90250812Y-59066751D01*
X90170000Y-59093688D01*
X89712064Y-59551624D01*
X90008375Y-58716564D02*
X89442690Y-59282250D01*
X89685126Y-58393316D01*
X89119441Y-58959001D01*
X103260592Y-60292277D02*
X103287529Y-60373089D01*
X103368341Y-60453902D01*
X103476091Y-60507776D01*
X103583841Y-60507776D01*
X103664653Y-60480839D01*
X103799340Y-60400027D01*
X103880152Y-60319215D01*
X103960964Y-60184528D01*
X103987902Y-60103715D01*
X103987902Y-59995966D01*
X103934027Y-59888216D01*
X103880152Y-59834341D01*
X103772402Y-59780467D01*
X103718528Y-59780467D01*
X103529966Y-59969028D01*
X103637715Y-60076778D01*
X103529966Y-59484155D02*
X102964280Y-60049841D01*
X102748781Y-59834341D01*
X102721844Y-59753529D01*
X102721844Y-59699654D01*
X102748781Y-59618842D01*
X102829593Y-59538030D01*
X102910406Y-59511093D01*
X102964280Y-59511093D01*
X103045093Y-59538030D01*
X103260592Y-59753529D01*
X102667969Y-58622158D02*
X102991218Y-58945407D01*
X102829593Y-58783783D02*
X102263908Y-59349468D01*
X102398595Y-59322531D01*
X102506345Y-59322531D01*
X102587157Y-59349468D01*
X102398595Y-58352784D02*
X102290845Y-58245035D01*
X102210033Y-58218097D01*
X102156158Y-58218097D01*
X102021471Y-58245035D01*
X101886784Y-58325847D01*
X101671285Y-58541346D01*
X101644348Y-58622158D01*
X101644348Y-58676033D01*
X101671285Y-58756845D01*
X101779035Y-58864595D01*
X101859847Y-58891532D01*
X101913722Y-58891532D01*
X101994534Y-58864595D01*
X102129221Y-58729908D01*
X102156158Y-58649096D01*
X102156158Y-58595221D01*
X102129221Y-58514409D01*
X102021471Y-58406659D01*
X101940659Y-58379722D01*
X101886784Y-58379722D01*
X101805972Y-58406659D01*
X115423809Y-68485238D02*
X115461904Y-68370952D01*
X115461904Y-68180476D01*
X115423809Y-68104285D01*
X115385714Y-68066190D01*
X115309523Y-68028095D01*
X115233333Y-68028095D01*
X115157142Y-68066190D01*
X115119047Y-68104285D01*
X115080952Y-68180476D01*
X115042857Y-68332857D01*
X115004761Y-68409047D01*
X114966666Y-68447142D01*
X114890476Y-68485238D01*
X114814285Y-68485238D01*
X114738095Y-68447142D01*
X114700000Y-68409047D01*
X114661904Y-68332857D01*
X114661904Y-68142380D01*
X114700000Y-68028095D01*
X114661904Y-67761428D02*
X115461904Y-67570952D01*
X114890476Y-67418571D01*
X115461904Y-67266190D01*
X114661904Y-67075714D01*
X115461904Y-66770952D02*
X114661904Y-66770952D01*
X114661904Y-66580476D01*
X114700000Y-66466190D01*
X114776190Y-66390000D01*
X114852380Y-66351904D01*
X115004761Y-66313809D01*
X115119047Y-66313809D01*
X115271428Y-66351904D01*
X115347619Y-66390000D01*
X115423809Y-66466190D01*
X115461904Y-66580476D01*
X115461904Y-66770952D01*
X115461904Y-65970952D02*
X114661904Y-65970952D01*
X114661904Y-65437619D02*
X114661904Y-65285238D01*
X114700000Y-65209047D01*
X114776190Y-65132857D01*
X114928571Y-65094761D01*
X115195238Y-65094761D01*
X115347619Y-65132857D01*
X115423809Y-65209047D01*
X115461904Y-65285238D01*
X115461904Y-65437619D01*
X115423809Y-65513809D01*
X115347619Y-65590000D01*
X115195238Y-65628095D01*
X114928571Y-65628095D01*
X114776190Y-65590000D01*
X114700000Y-65513809D01*
X114661904Y-65437619D01*
X80146592Y-60292277D02*
X80173529Y-60373089D01*
X80254341Y-60453902D01*
X80362091Y-60507776D01*
X80469841Y-60507776D01*
X80550653Y-60480839D01*
X80685340Y-60400027D01*
X80766152Y-60319215D01*
X80846964Y-60184528D01*
X80873902Y-60103715D01*
X80873902Y-59995966D01*
X80820027Y-59888216D01*
X80766152Y-59834341D01*
X80658402Y-59780467D01*
X80604528Y-59780467D01*
X80415966Y-59969028D01*
X80523715Y-60076778D01*
X80415966Y-59484155D02*
X79850280Y-60049841D01*
X79634781Y-59834341D01*
X79607844Y-59753529D01*
X79607844Y-59699654D01*
X79634781Y-59618842D01*
X79715593Y-59538030D01*
X79796406Y-59511093D01*
X79850280Y-59511093D01*
X79931093Y-59538030D01*
X80146592Y-59753529D01*
X79365407Y-59457218D02*
X79311532Y-59457218D01*
X79230720Y-59430280D01*
X79096033Y-59295593D01*
X79069096Y-59214781D01*
X79069096Y-59160906D01*
X79096033Y-59080094D01*
X79149908Y-59026219D01*
X79257658Y-58972345D01*
X79904155Y-58972345D01*
X79553969Y-58622158D01*
X78907471Y-58622158D02*
X78934409Y-58702971D01*
X78934409Y-58756845D01*
X78907471Y-58837658D01*
X78880534Y-58864595D01*
X78799722Y-58891532D01*
X78745847Y-58891532D01*
X78665035Y-58864595D01*
X78557285Y-58756845D01*
X78530348Y-58676033D01*
X78530348Y-58622158D01*
X78557285Y-58541346D01*
X78584223Y-58514409D01*
X78665035Y-58487471D01*
X78718910Y-58487471D01*
X78799722Y-58514409D01*
X78907471Y-58622158D01*
X78988284Y-58649096D01*
X79042158Y-58649096D01*
X79122971Y-58622158D01*
X79230720Y-58514409D01*
X79257658Y-58433597D01*
X79257658Y-58379722D01*
X79230720Y-58298910D01*
X79122971Y-58191160D01*
X79042158Y-58164223D01*
X78988284Y-58164223D01*
X78907471Y-58191160D01*
X78799722Y-58298910D01*
X78772784Y-58379722D01*
X78772784Y-58433597D01*
X78799722Y-58514409D01*
X98180592Y-86400277D02*
X98207529Y-86481089D01*
X98288341Y-86561902D01*
X98396091Y-86615776D01*
X98503841Y-86615776D01*
X98584653Y-86588839D01*
X98719340Y-86508027D01*
X98800152Y-86427215D01*
X98880964Y-86292528D01*
X98907902Y-86211715D01*
X98907902Y-86103966D01*
X98854027Y-85996216D01*
X98800152Y-85942341D01*
X98692402Y-85888467D01*
X98638528Y-85888467D01*
X98449966Y-86077028D01*
X98557715Y-86184778D01*
X98449966Y-85592155D02*
X97884280Y-86157841D01*
X97668781Y-85942341D01*
X97641844Y-85861529D01*
X97641844Y-85807654D01*
X97668781Y-85726842D01*
X97749593Y-85646030D01*
X97830406Y-85619093D01*
X97884280Y-85619093D01*
X97965093Y-85646030D01*
X98180592Y-85861529D01*
X97587969Y-84730158D02*
X97911218Y-85053407D01*
X97749593Y-84891783D02*
X97183908Y-85457468D01*
X97318595Y-85430531D01*
X97426345Y-85430531D01*
X97507157Y-85457468D01*
X96672097Y-84945658D02*
X96618223Y-84891783D01*
X96591285Y-84810971D01*
X96591285Y-84757096D01*
X96618223Y-84676284D01*
X96699035Y-84541597D01*
X96833722Y-84406910D01*
X96968409Y-84326097D01*
X97049221Y-84299160D01*
X97103096Y-84299160D01*
X97183908Y-84326097D01*
X97237783Y-84379972D01*
X97264720Y-84460784D01*
X97264720Y-84514659D01*
X97237783Y-84595471D01*
X97156971Y-84730158D01*
X97022284Y-84864845D01*
X96887597Y-84945658D01*
X96806784Y-84972595D01*
X96752910Y-84972595D01*
X96672097Y-84945658D01*
X75390592Y-60500152D02*
X75040406Y-60149966D01*
X75444467Y-60123028D01*
X75363654Y-60042216D01*
X75336717Y-59961404D01*
X75336717Y-59907529D01*
X75363654Y-59826717D01*
X75498341Y-59692030D01*
X75579154Y-59665093D01*
X75633028Y-59665093D01*
X75713841Y-59692030D01*
X75875465Y-59853654D01*
X75902402Y-59934467D01*
X75902402Y-59988341D01*
X74878781Y-59988341D02*
X75255905Y-59234094D01*
X74501658Y-59611218D01*
X74366971Y-59476531D02*
X74016784Y-59126345D01*
X74420845Y-59099407D01*
X74340033Y-59018595D01*
X74313096Y-58937783D01*
X74313096Y-58883908D01*
X74340033Y-58803096D01*
X74474720Y-58668409D01*
X74555532Y-58641471D01*
X74609407Y-58641471D01*
X74690219Y-58668409D01*
X74851844Y-58830033D01*
X74878781Y-58910845D01*
X74878781Y-58964720D01*
X67421218Y-85976903D02*
X67448155Y-86057715D01*
X67528967Y-86138528D01*
X67636717Y-86192402D01*
X67744467Y-86192402D01*
X67825279Y-86165465D01*
X67959966Y-86084653D01*
X68040778Y-86003841D01*
X68121590Y-85869154D01*
X68148528Y-85788341D01*
X68148528Y-85680592D01*
X68094653Y-85572842D01*
X68040778Y-85518967D01*
X67933028Y-85465093D01*
X67879154Y-85465093D01*
X67690592Y-85653654D01*
X67798341Y-85761404D01*
X67690592Y-85168781D02*
X67124906Y-85734467D01*
X66909407Y-85518967D01*
X66882470Y-85438155D01*
X66882470Y-85384280D01*
X66909407Y-85303468D01*
X66990219Y-85222656D01*
X67071032Y-85195719D01*
X67124906Y-85195719D01*
X67205719Y-85222656D01*
X67421218Y-85438155D01*
X66828595Y-84306784D02*
X67151844Y-84630033D01*
X66990219Y-84468409D02*
X66424534Y-85034094D01*
X66559221Y-85007157D01*
X66666971Y-85007157D01*
X66747783Y-85034094D01*
X90291218Y-85876903D02*
X90318155Y-85957715D01*
X90398967Y-86038528D01*
X90506717Y-86092402D01*
X90614467Y-86092402D01*
X90695279Y-86065465D01*
X90829966Y-85984653D01*
X90910778Y-85903841D01*
X90991590Y-85769154D01*
X91018528Y-85688341D01*
X91018528Y-85580592D01*
X90964653Y-85472842D01*
X90910778Y-85418967D01*
X90803028Y-85365093D01*
X90749154Y-85365093D01*
X90560592Y-85553654D01*
X90668341Y-85661404D01*
X90560592Y-85068781D02*
X89994906Y-85634467D01*
X89779407Y-85418967D01*
X89752470Y-85338155D01*
X89752470Y-85284280D01*
X89779407Y-85203468D01*
X89860219Y-85122656D01*
X89941032Y-85095719D01*
X89994906Y-85095719D01*
X90075719Y-85122656D01*
X90291218Y-85338155D01*
X89590845Y-84745532D02*
X89617783Y-84826345D01*
X89617783Y-84880219D01*
X89590845Y-84961032D01*
X89563908Y-84987969D01*
X89483096Y-85014906D01*
X89429221Y-85014906D01*
X89348409Y-84987969D01*
X89240659Y-84880219D01*
X89213722Y-84799407D01*
X89213722Y-84745532D01*
X89240659Y-84664720D01*
X89267597Y-84637783D01*
X89348409Y-84610845D01*
X89402284Y-84610845D01*
X89483096Y-84637783D01*
X89590845Y-84745532D01*
X89671658Y-84772470D01*
X89725532Y-84772470D01*
X89806345Y-84745532D01*
X89914094Y-84637783D01*
X89941032Y-84556971D01*
X89941032Y-84503096D01*
X89914094Y-84422284D01*
X89806345Y-84314534D01*
X89725532Y-84287597D01*
X89671658Y-84287597D01*
X89590845Y-84314534D01*
X89483096Y-84422284D01*
X89456158Y-84503096D01*
X89456158Y-84556971D01*
X89483096Y-84637783D01*
X64891218Y-85876903D02*
X64918155Y-85957715D01*
X64998967Y-86038528D01*
X65106717Y-86092402D01*
X65214467Y-86092402D01*
X65295279Y-86065465D01*
X65429966Y-85984653D01*
X65510778Y-85903841D01*
X65591590Y-85769154D01*
X65618528Y-85688341D01*
X65618528Y-85580592D01*
X65564653Y-85472842D01*
X65510778Y-85418967D01*
X65403028Y-85365093D01*
X65349154Y-85365093D01*
X65160592Y-85553654D01*
X65268341Y-85661404D01*
X65160592Y-85068781D02*
X64594906Y-85634467D01*
X64379407Y-85418967D01*
X64352470Y-85338155D01*
X64352470Y-85284280D01*
X64379407Y-85203468D01*
X64460219Y-85122656D01*
X64541032Y-85095719D01*
X64594906Y-85095719D01*
X64675719Y-85122656D01*
X64891218Y-85338155D01*
X63921471Y-84961032D02*
X63867597Y-84907157D01*
X63840659Y-84826345D01*
X63840659Y-84772470D01*
X63867597Y-84691658D01*
X63948409Y-84556971D01*
X64083096Y-84422284D01*
X64217783Y-84341471D01*
X64298595Y-84314534D01*
X64352470Y-84314534D01*
X64433282Y-84341471D01*
X64487157Y-84395346D01*
X64514094Y-84476158D01*
X64514094Y-84530033D01*
X64487157Y-84610845D01*
X64406345Y-84745532D01*
X64271658Y-84880219D01*
X64136971Y-84961032D01*
X64056158Y-84987969D01*
X64002284Y-84987969D01*
X63921471Y-84961032D01*
X80131218Y-85876903D02*
X80158155Y-85957715D01*
X80238967Y-86038528D01*
X80346717Y-86092402D01*
X80454467Y-86092402D01*
X80535279Y-86065465D01*
X80669966Y-85984653D01*
X80750778Y-85903841D01*
X80831590Y-85769154D01*
X80858528Y-85688341D01*
X80858528Y-85580592D01*
X80804653Y-85472842D01*
X80750778Y-85418967D01*
X80643028Y-85365093D01*
X80589154Y-85365093D01*
X80400592Y-85553654D01*
X80508341Y-85661404D01*
X80400592Y-85068781D02*
X79834906Y-85634467D01*
X79619407Y-85418967D01*
X79592470Y-85338155D01*
X79592470Y-85284280D01*
X79619407Y-85203468D01*
X79700219Y-85122656D01*
X79781032Y-85095719D01*
X79834906Y-85095719D01*
X79915719Y-85122656D01*
X80131218Y-85338155D01*
X78999847Y-84799407D02*
X79269221Y-85068781D01*
X79565532Y-84826345D01*
X79511658Y-84826345D01*
X79430845Y-84799407D01*
X79296158Y-84664720D01*
X79269221Y-84583908D01*
X79269221Y-84530033D01*
X79296158Y-84449221D01*
X79430845Y-84314534D01*
X79511658Y-84287597D01*
X79565532Y-84287597D01*
X79646345Y-84314534D01*
X79781032Y-84449221D01*
X79807969Y-84530033D01*
X79807969Y-84583908D01*
X75051218Y-85876903D02*
X75078155Y-85957715D01*
X75158967Y-86038528D01*
X75266717Y-86092402D01*
X75374467Y-86092402D01*
X75455279Y-86065465D01*
X75589966Y-85984653D01*
X75670778Y-85903841D01*
X75751590Y-85769154D01*
X75778528Y-85688341D01*
X75778528Y-85580592D01*
X75724653Y-85472842D01*
X75670778Y-85418967D01*
X75563028Y-85365093D01*
X75509154Y-85365093D01*
X75320592Y-85553654D01*
X75428341Y-85661404D01*
X75320592Y-85068781D02*
X74754906Y-85634467D01*
X74539407Y-85418967D01*
X74512470Y-85338155D01*
X74512470Y-85284280D01*
X74539407Y-85203468D01*
X74620219Y-85122656D01*
X74701032Y-85095719D01*
X74754906Y-85095719D01*
X74835719Y-85122656D01*
X75051218Y-85338155D01*
X74243096Y-85122656D02*
X73892910Y-84772470D01*
X74296971Y-84745532D01*
X74216158Y-84664720D01*
X74189221Y-84583908D01*
X74189221Y-84530033D01*
X74216158Y-84449221D01*
X74350845Y-84314534D01*
X74431658Y-84287597D01*
X74485532Y-84287597D01*
X74566345Y-84314534D01*
X74727969Y-84476158D01*
X74754906Y-84556971D01*
X74754906Y-84610845D01*
X82698155Y-85903841D02*
X82725093Y-85984653D01*
X82805905Y-86065465D01*
X82913654Y-86119340D01*
X83021404Y-86119340D01*
X83102216Y-86092402D01*
X83236903Y-86011590D01*
X83317715Y-85930778D01*
X83398528Y-85796091D01*
X83425465Y-85715279D01*
X83425465Y-85607529D01*
X83371590Y-85499780D01*
X83317715Y-85445905D01*
X83209966Y-85392030D01*
X83156091Y-85392030D01*
X82967529Y-85580592D01*
X83075279Y-85688341D01*
X82967529Y-85095719D02*
X82401844Y-85661404D01*
X82644280Y-84772470D01*
X82078595Y-85338155D01*
X82374906Y-84503096D02*
X81809221Y-85068781D01*
X81674534Y-84934094D01*
X81620659Y-84826345D01*
X81620659Y-84718595D01*
X81647597Y-84637783D01*
X81728409Y-84503096D01*
X81809221Y-84422284D01*
X81943908Y-84341471D01*
X82024720Y-84314534D01*
X82132470Y-84314534D01*
X82240219Y-84368409D01*
X82374906Y-84503096D01*
X88020592Y-60292277D02*
X88047529Y-60373089D01*
X88128341Y-60453902D01*
X88236091Y-60507776D01*
X88343841Y-60507776D01*
X88424653Y-60480839D01*
X88559340Y-60400027D01*
X88640152Y-60319215D01*
X88720964Y-60184528D01*
X88747902Y-60103715D01*
X88747902Y-59995966D01*
X88694027Y-59888216D01*
X88640152Y-59834341D01*
X88532402Y-59780467D01*
X88478528Y-59780467D01*
X88289966Y-59969028D01*
X88397715Y-60076778D01*
X88289966Y-59484155D02*
X87724280Y-60049841D01*
X87508781Y-59834341D01*
X87481844Y-59753529D01*
X87481844Y-59699654D01*
X87508781Y-59618842D01*
X87589593Y-59538030D01*
X87670406Y-59511093D01*
X87724280Y-59511093D01*
X87805093Y-59538030D01*
X88020592Y-59753529D01*
X87239407Y-59457218D02*
X87185532Y-59457218D01*
X87104720Y-59430280D01*
X86970033Y-59295593D01*
X86943096Y-59214781D01*
X86943096Y-59160906D01*
X86970033Y-59080094D01*
X87023908Y-59026219D01*
X87131658Y-58972345D01*
X87778155Y-58972345D01*
X87427969Y-58622158D01*
X86377410Y-58702971D02*
X86485160Y-58810720D01*
X86565972Y-58837658D01*
X86619847Y-58837658D01*
X86754534Y-58810720D01*
X86889221Y-58729908D01*
X87104720Y-58514409D01*
X87131658Y-58433597D01*
X87131658Y-58379722D01*
X87104720Y-58298910D01*
X86996971Y-58191160D01*
X86916158Y-58164223D01*
X86862284Y-58164223D01*
X86781471Y-58191160D01*
X86646784Y-58325847D01*
X86619847Y-58406659D01*
X86619847Y-58460534D01*
X86646784Y-58541346D01*
X86754534Y-58649096D01*
X86835346Y-58676033D01*
X86889221Y-58676033D01*
X86970033Y-58649096D01*
X108098155Y-60303841D02*
X108125093Y-60384653D01*
X108205905Y-60465465D01*
X108313654Y-60519340D01*
X108421404Y-60519340D01*
X108502216Y-60492402D01*
X108636903Y-60411590D01*
X108717715Y-60330778D01*
X108798528Y-60196091D01*
X108825465Y-60115279D01*
X108825465Y-60007529D01*
X108771590Y-59899780D01*
X108717715Y-59845905D01*
X108609966Y-59792030D01*
X108556091Y-59792030D01*
X108367529Y-59980592D01*
X108475279Y-60088341D01*
X108367529Y-59495719D02*
X107801844Y-60061404D01*
X108044280Y-59172470D01*
X107478595Y-59738155D01*
X107774906Y-58903096D02*
X107209221Y-59468781D01*
X107074534Y-59334094D01*
X107020659Y-59226345D01*
X107020659Y-59118595D01*
X107047597Y-59037783D01*
X107128409Y-58903096D01*
X107209221Y-58822284D01*
X107343908Y-58741471D01*
X107424720Y-58714534D01*
X107532470Y-58714534D01*
X107640219Y-58768409D01*
X107774906Y-58903096D01*
X108098155Y-85903841D02*
X108125093Y-85984653D01*
X108205905Y-86065465D01*
X108313654Y-86119340D01*
X108421404Y-86119340D01*
X108502216Y-86092402D01*
X108636903Y-86011590D01*
X108717715Y-85930778D01*
X108798528Y-85796091D01*
X108825465Y-85715279D01*
X108825465Y-85607529D01*
X108771590Y-85499780D01*
X108717715Y-85445905D01*
X108609966Y-85392030D01*
X108556091Y-85392030D01*
X108367529Y-85580592D01*
X108475279Y-85688341D01*
X108367529Y-85095719D02*
X107801844Y-85661404D01*
X108044280Y-84772470D01*
X107478595Y-85338155D01*
X107774906Y-84503096D02*
X107209221Y-85068781D01*
X107074534Y-84934094D01*
X107020659Y-84826345D01*
X107020659Y-84718595D01*
X107047597Y-84637783D01*
X107128409Y-84503096D01*
X107209221Y-84422284D01*
X107343908Y-84341471D01*
X107424720Y-84314534D01*
X107532470Y-84314534D01*
X107640219Y-84368409D01*
X107774906Y-84503096D01*
X83640964Y-60238402D02*
X83371590Y-59969028D01*
X83856463Y-60130653D02*
X83102216Y-60507776D01*
X83479340Y-59753529D01*
X82455719Y-59807404D02*
X82482656Y-59888216D01*
X82563468Y-59969028D01*
X82671218Y-60022903D01*
X82778967Y-60022903D01*
X82859780Y-59995966D01*
X82994467Y-59915154D01*
X83075279Y-59834341D01*
X83156091Y-59699654D01*
X83183028Y-59618842D01*
X83183028Y-59511093D01*
X83129154Y-59403343D01*
X83075279Y-59349468D01*
X82967529Y-59295593D01*
X82913654Y-59295593D01*
X82725093Y-59484155D01*
X82832842Y-59591905D01*
X82725093Y-58999282D02*
X82159407Y-59564967D01*
X82401844Y-58676033D01*
X81836158Y-59241719D01*
X82132470Y-58406659D02*
X81566784Y-58972345D01*
X81432097Y-58837658D01*
X81378223Y-58729908D01*
X81378223Y-58622158D01*
X81405160Y-58541346D01*
X81485972Y-58406659D01*
X81566784Y-58325847D01*
X81701471Y-58245035D01*
X81782284Y-58218097D01*
X81890033Y-58218097D01*
X81997783Y-58271972D01*
X82132470Y-58406659D01*
X110880592Y-60292277D02*
X110907529Y-60373089D01*
X110988341Y-60453902D01*
X111096091Y-60507776D01*
X111203841Y-60507776D01*
X111284653Y-60480839D01*
X111419340Y-60400027D01*
X111500152Y-60319215D01*
X111580964Y-60184528D01*
X111607902Y-60103715D01*
X111607902Y-59995966D01*
X111554027Y-59888216D01*
X111500152Y-59834341D01*
X111392402Y-59780467D01*
X111338528Y-59780467D01*
X111149966Y-59969028D01*
X111257715Y-60076778D01*
X111149966Y-59484155D02*
X110584280Y-60049841D01*
X110368781Y-59834341D01*
X110341844Y-59753529D01*
X110341844Y-59699654D01*
X110368781Y-59618842D01*
X110449593Y-59538030D01*
X110530406Y-59511093D01*
X110584280Y-59511093D01*
X110665093Y-59538030D01*
X110880592Y-59753529D01*
X110287969Y-58622158D02*
X110611218Y-58945407D01*
X110449593Y-58783783D02*
X109883908Y-59349468D01*
X110018595Y-59322531D01*
X110126345Y-59322531D01*
X110207157Y-59349468D01*
X109533722Y-58999282D02*
X109156598Y-58622158D01*
X109964720Y-58298910D01*
X87721218Y-85776903D02*
X87748155Y-85857715D01*
X87828967Y-85938528D01*
X87936717Y-85992402D01*
X88044467Y-85992402D01*
X88125279Y-85965465D01*
X88259966Y-85884653D01*
X88340778Y-85803841D01*
X88421590Y-85669154D01*
X88448528Y-85588341D01*
X88448528Y-85480592D01*
X88394653Y-85372842D01*
X88340778Y-85318967D01*
X88233028Y-85265093D01*
X88179154Y-85265093D01*
X87990592Y-85453654D01*
X88098341Y-85561404D01*
X87990592Y-84968781D02*
X87424906Y-85534467D01*
X87209407Y-85318967D01*
X87182470Y-85238155D01*
X87182470Y-85184280D01*
X87209407Y-85103468D01*
X87290219Y-85022656D01*
X87371032Y-84995719D01*
X87424906Y-84995719D01*
X87505719Y-85022656D01*
X87721218Y-85238155D01*
X86913096Y-85022656D02*
X86535972Y-84645532D01*
X87344094Y-84322284D01*
X78433773Y-60235211D02*
X78164399Y-59965837D01*
X78649272Y-60127462D02*
X77895025Y-60504585D01*
X78272149Y-59750338D01*
X78083587Y-59561776D02*
X77517902Y-60127462D01*
X77383215Y-59992775D01*
X77329340Y-59885025D01*
X77329340Y-59777276D01*
X77356277Y-59696463D01*
X77437089Y-59561776D01*
X77517902Y-59480964D01*
X77652589Y-59400152D01*
X77733401Y-59373215D01*
X77841150Y-59373215D01*
X77948900Y-59427089D01*
X78083587Y-59561776D01*
X77140778Y-58726717D02*
X77194653Y-58726717D01*
X77302402Y-58780592D01*
X77356277Y-58834467D01*
X77410152Y-58942216D01*
X77410152Y-59049966D01*
X77383215Y-59130778D01*
X77302402Y-59265465D01*
X77221590Y-59346277D01*
X77086903Y-59427089D01*
X77006091Y-59454027D01*
X76898341Y-59454027D01*
X76790592Y-59400152D01*
X76736717Y-59346277D01*
X76682842Y-59238528D01*
X76682842Y-59184653D01*
X77140778Y-58511218D02*
X76709780Y-58080219D01*
X76036345Y-58645905D02*
X76413468Y-57891658D01*
X75659221Y-58268781D01*
X75713096Y-57191285D02*
X75632284Y-57649221D01*
X76036345Y-57514534D02*
X75470659Y-58080219D01*
X75255160Y-57864720D01*
X75228223Y-57783908D01*
X75228223Y-57730033D01*
X75255160Y-57649221D01*
X75335972Y-57568409D01*
X75416784Y-57541471D01*
X75470659Y-57541471D01*
X75551471Y-57568409D01*
X75766971Y-57783908D01*
X75174348Y-57245160D02*
X74985786Y-57056598D01*
X75201285Y-56679475D02*
X75470659Y-56948849D01*
X74904974Y-57514534D01*
X74635600Y-57245160D01*
X74473975Y-56544788D02*
X74662537Y-56733349D01*
X74958849Y-56437038D02*
X74393163Y-57002723D01*
X74123789Y-56733349D01*
X95398155Y-85903841D02*
X95425093Y-85984653D01*
X95505905Y-86065465D01*
X95613654Y-86119340D01*
X95721404Y-86119340D01*
X95802216Y-86092402D01*
X95936903Y-86011590D01*
X96017715Y-85930778D01*
X96098528Y-85796091D01*
X96125465Y-85715279D01*
X96125465Y-85607529D01*
X96071590Y-85499780D01*
X96017715Y-85445905D01*
X95909966Y-85392030D01*
X95856091Y-85392030D01*
X95667529Y-85580592D01*
X95775279Y-85688341D01*
X95667529Y-85095719D02*
X95101844Y-85661404D01*
X95344280Y-84772470D01*
X94778595Y-85338155D01*
X95074906Y-84503096D02*
X94509221Y-85068781D01*
X94374534Y-84934094D01*
X94320659Y-84826345D01*
X94320659Y-84718595D01*
X94347597Y-84637783D01*
X94428409Y-84503096D01*
X94509221Y-84422284D01*
X94643908Y-84341471D01*
X94724720Y-84314534D01*
X94832470Y-84314534D01*
X94940219Y-84368409D01*
X95074906Y-84503096D01*
X113420592Y-86400277D02*
X113447529Y-86481089D01*
X113528341Y-86561902D01*
X113636091Y-86615776D01*
X113743841Y-86615776D01*
X113824653Y-86588839D01*
X113959340Y-86508027D01*
X114040152Y-86427215D01*
X114120964Y-86292528D01*
X114147902Y-86211715D01*
X114147902Y-86103966D01*
X114094027Y-85996216D01*
X114040152Y-85942341D01*
X113932402Y-85888467D01*
X113878528Y-85888467D01*
X113689966Y-86077028D01*
X113797715Y-86184778D01*
X113689966Y-85592155D02*
X113124280Y-86157841D01*
X112908781Y-85942341D01*
X112881844Y-85861529D01*
X112881844Y-85807654D01*
X112908781Y-85726842D01*
X112989593Y-85646030D01*
X113070406Y-85619093D01*
X113124280Y-85619093D01*
X113205093Y-85646030D01*
X113420592Y-85861529D01*
X112827969Y-84730158D02*
X113151218Y-85053407D01*
X112989593Y-84891783D02*
X112423908Y-85457468D01*
X112558595Y-85430531D01*
X112666345Y-85430531D01*
X112747157Y-85457468D01*
X111750473Y-84784033D02*
X112019847Y-85053407D01*
X112316158Y-84810971D01*
X112262284Y-84810971D01*
X112181471Y-84784033D01*
X112046784Y-84649346D01*
X112019847Y-84568534D01*
X112019847Y-84514659D01*
X112046784Y-84433847D01*
X112181471Y-84299160D01*
X112262284Y-84272223D01*
X112316158Y-84272223D01*
X112396971Y-84299160D01*
X112531658Y-84433847D01*
X112558595Y-84514659D01*
X112558595Y-84568534D01*
X100720592Y-86546277D02*
X100747529Y-86627089D01*
X100828341Y-86707902D01*
X100936091Y-86761776D01*
X101043841Y-86761776D01*
X101124653Y-86734839D01*
X101259340Y-86654027D01*
X101340152Y-86573215D01*
X101420964Y-86438528D01*
X101447902Y-86357715D01*
X101447902Y-86249966D01*
X101394027Y-86142216D01*
X101340152Y-86088341D01*
X101232402Y-86034467D01*
X101178528Y-86034467D01*
X100989966Y-86223028D01*
X101097715Y-86330778D01*
X100989966Y-85738155D02*
X100424280Y-86303841D01*
X100208781Y-86088341D01*
X100181844Y-86007529D01*
X100181844Y-85953654D01*
X100208781Y-85872842D01*
X100289593Y-85792030D01*
X100370406Y-85765093D01*
X100424280Y-85765093D01*
X100505093Y-85792030D01*
X100720592Y-86007529D01*
X100127969Y-84876158D02*
X100451218Y-85199407D01*
X100289593Y-85037783D02*
X99723908Y-85603468D01*
X99858595Y-85576531D01*
X99966345Y-85576531D01*
X100047157Y-85603468D01*
X99589221Y-84337410D02*
X99912470Y-84660659D01*
X99750845Y-84499035D02*
X99185160Y-85064720D01*
X99319847Y-85037783D01*
X99427597Y-85037783D01*
X99508409Y-85064720D01*
X105800592Y-60292277D02*
X105827529Y-60373089D01*
X105908341Y-60453902D01*
X106016091Y-60507776D01*
X106123841Y-60507776D01*
X106204653Y-60480839D01*
X106339340Y-60400027D01*
X106420152Y-60319215D01*
X106500964Y-60184528D01*
X106527902Y-60103715D01*
X106527902Y-59995966D01*
X106474027Y-59888216D01*
X106420152Y-59834341D01*
X106312402Y-59780467D01*
X106258528Y-59780467D01*
X106069966Y-59969028D01*
X106177715Y-60076778D01*
X106069966Y-59484155D02*
X105504280Y-60049841D01*
X105288781Y-59834341D01*
X105261844Y-59753529D01*
X105261844Y-59699654D01*
X105288781Y-59618842D01*
X105369593Y-59538030D01*
X105450406Y-59511093D01*
X105504280Y-59511093D01*
X105585093Y-59538030D01*
X105800592Y-59753529D01*
X105207969Y-58622158D02*
X105531218Y-58945407D01*
X105369593Y-58783783D02*
X104803908Y-59349468D01*
X104938595Y-59322531D01*
X105046345Y-59322531D01*
X105127157Y-59349468D01*
X104561471Y-58622158D02*
X104588409Y-58702971D01*
X104588409Y-58756845D01*
X104561471Y-58837658D01*
X104534534Y-58864595D01*
X104453722Y-58891532D01*
X104399847Y-58891532D01*
X104319035Y-58864595D01*
X104211285Y-58756845D01*
X104184348Y-58676033D01*
X104184348Y-58622158D01*
X104211285Y-58541346D01*
X104238223Y-58514409D01*
X104319035Y-58487471D01*
X104372910Y-58487471D01*
X104453722Y-58514409D01*
X104561471Y-58622158D01*
X104642284Y-58649096D01*
X104696158Y-58649096D01*
X104776971Y-58622158D01*
X104884720Y-58514409D01*
X104911658Y-58433597D01*
X104911658Y-58379722D01*
X104884720Y-58298910D01*
X104776971Y-58191160D01*
X104696158Y-58164223D01*
X104642284Y-58164223D01*
X104561471Y-58191160D01*
X104453722Y-58298910D01*
X104426784Y-58379722D01*
X104426784Y-58433597D01*
X104453722Y-58514409D01*
X69998155Y-60303841D02*
X70025093Y-60384653D01*
X70105905Y-60465465D01*
X70213654Y-60519340D01*
X70321404Y-60519340D01*
X70402216Y-60492402D01*
X70536903Y-60411590D01*
X70617715Y-60330778D01*
X70698528Y-60196091D01*
X70725465Y-60115279D01*
X70725465Y-60007529D01*
X70671590Y-59899780D01*
X70617715Y-59845905D01*
X70509966Y-59792030D01*
X70456091Y-59792030D01*
X70267529Y-59980592D01*
X70375279Y-60088341D01*
X70267529Y-59495719D02*
X69701844Y-60061404D01*
X69944280Y-59172470D01*
X69378595Y-59738155D01*
X69674906Y-58903096D02*
X69109221Y-59468781D01*
X68974534Y-59334094D01*
X68920659Y-59226345D01*
X68920659Y-59118595D01*
X68947597Y-59037783D01*
X69028409Y-58903096D01*
X69109221Y-58822284D01*
X69243908Y-58741471D01*
X69324720Y-58714534D01*
X69432470Y-58714534D01*
X69540219Y-58768409D01*
X69674906Y-58903096D01*
X105800592Y-86400277D02*
X105827529Y-86481089D01*
X105908341Y-86561902D01*
X106016091Y-86615776D01*
X106123841Y-86615776D01*
X106204653Y-86588839D01*
X106339340Y-86508027D01*
X106420152Y-86427215D01*
X106500964Y-86292528D01*
X106527902Y-86211715D01*
X106527902Y-86103966D01*
X106474027Y-85996216D01*
X106420152Y-85942341D01*
X106312402Y-85888467D01*
X106258528Y-85888467D01*
X106069966Y-86077028D01*
X106177715Y-86184778D01*
X106069966Y-85592155D02*
X105504280Y-86157841D01*
X105288781Y-85942341D01*
X105261844Y-85861529D01*
X105261844Y-85807654D01*
X105288781Y-85726842D01*
X105369593Y-85646030D01*
X105450406Y-85619093D01*
X105504280Y-85619093D01*
X105585093Y-85646030D01*
X105800592Y-85861529D01*
X105207969Y-84730158D02*
X105531218Y-85053407D01*
X105369593Y-84891783D02*
X104803908Y-85457468D01*
X104938595Y-85430531D01*
X105046345Y-85430531D01*
X105127157Y-85457468D01*
X104453722Y-85107282D02*
X104103536Y-84757096D01*
X104507597Y-84730158D01*
X104426784Y-84649346D01*
X104399847Y-84568534D01*
X104399847Y-84514659D01*
X104426784Y-84433847D01*
X104561471Y-84299160D01*
X104642284Y-84272223D01*
X104696158Y-84272223D01*
X104776971Y-84299160D01*
X104938595Y-84460784D01*
X104965532Y-84541597D01*
X104965532Y-84595471D01*
X93100592Y-60292277D02*
X93127529Y-60373089D01*
X93208341Y-60453902D01*
X93316091Y-60507776D01*
X93423841Y-60507776D01*
X93504653Y-60480839D01*
X93639340Y-60400027D01*
X93720152Y-60319215D01*
X93800964Y-60184528D01*
X93827902Y-60103715D01*
X93827902Y-59995966D01*
X93774027Y-59888216D01*
X93720152Y-59834341D01*
X93612402Y-59780467D01*
X93558528Y-59780467D01*
X93369966Y-59969028D01*
X93477715Y-60076778D01*
X93369966Y-59484155D02*
X92804280Y-60049841D01*
X92588781Y-59834341D01*
X92561844Y-59753529D01*
X92561844Y-59699654D01*
X92588781Y-59618842D01*
X92669593Y-59538030D01*
X92750406Y-59511093D01*
X92804280Y-59511093D01*
X92885093Y-59538030D01*
X93100592Y-59753529D01*
X92319407Y-59457218D02*
X92265532Y-59457218D01*
X92184720Y-59430280D01*
X92050033Y-59295593D01*
X92023096Y-59214781D01*
X92023096Y-59160906D01*
X92050033Y-59080094D01*
X92103908Y-59026219D01*
X92211658Y-58972345D01*
X92858155Y-58972345D01*
X92507969Y-58622158D01*
X91780659Y-58918470D02*
X91726784Y-58918470D01*
X91645972Y-58891532D01*
X91511285Y-58756845D01*
X91484348Y-58676033D01*
X91484348Y-58622158D01*
X91511285Y-58541346D01*
X91565160Y-58487471D01*
X91672910Y-58433597D01*
X92319407Y-58433597D01*
X91969221Y-58083410D01*
%TO.C,S6*%
X63853961Y-107135904D02*
X63901580Y-106993047D01*
X63901580Y-106754952D01*
X63853961Y-106659714D01*
X63806342Y-106612095D01*
X63711104Y-106564476D01*
X63615866Y-106564476D01*
X63520628Y-106612095D01*
X63473009Y-106659714D01*
X63425390Y-106754952D01*
X63377771Y-106945428D01*
X63330152Y-107040666D01*
X63282533Y-107088285D01*
X63187295Y-107135904D01*
X63092057Y-107135904D01*
X62996819Y-107088285D01*
X62949200Y-107040666D01*
X62901580Y-106945428D01*
X62901580Y-106707333D01*
X62949200Y-106564476D01*
X62901580Y-105707333D02*
X62901580Y-105897809D01*
X62949200Y-105993047D01*
X62996819Y-106040666D01*
X63139676Y-106135904D01*
X63330152Y-106183523D01*
X63711104Y-106183523D01*
X63806342Y-106135904D01*
X63853961Y-106088285D01*
X63901580Y-105993047D01*
X63901580Y-105802571D01*
X63853961Y-105707333D01*
X63806342Y-105659714D01*
X63711104Y-105612095D01*
X63473009Y-105612095D01*
X63377771Y-105659714D01*
X63330152Y-105707333D01*
X63282533Y-105802571D01*
X63282533Y-105993047D01*
X63330152Y-106088285D01*
X63377771Y-106135904D01*
X63473009Y-106183523D01*
%TO.C,S13*%
X87221961Y-95166095D02*
X87269580Y-95023238D01*
X87269580Y-94785142D01*
X87221961Y-94689904D01*
X87174342Y-94642285D01*
X87079104Y-94594666D01*
X86983866Y-94594666D01*
X86888628Y-94642285D01*
X86841009Y-94689904D01*
X86793390Y-94785142D01*
X86745771Y-94975619D01*
X86698152Y-95070857D01*
X86650533Y-95118476D01*
X86555295Y-95166095D01*
X86460057Y-95166095D01*
X86364819Y-95118476D01*
X86317200Y-95070857D01*
X86269580Y-94975619D01*
X86269580Y-94737523D01*
X86317200Y-94594666D01*
X87269580Y-93642285D02*
X87269580Y-94213714D01*
X87269580Y-93928000D02*
X86269580Y-93928000D01*
X86412438Y-94023238D01*
X86507676Y-94118476D01*
X86555295Y-94213714D01*
X86269580Y-93308952D02*
X86269580Y-92689904D01*
X86650533Y-93023238D01*
X86650533Y-92880380D01*
X86698152Y-92785142D01*
X86745771Y-92737523D01*
X86841009Y-92689904D01*
X87079104Y-92689904D01*
X87174342Y-92737523D01*
X87221961Y-92785142D01*
X87269580Y-92880380D01*
X87269580Y-93166095D01*
X87221961Y-93261333D01*
X87174342Y-93308952D01*
%TO.C,S1*%
X63853961Y-119581904D02*
X63901580Y-119439047D01*
X63901580Y-119200952D01*
X63853961Y-119105714D01*
X63806342Y-119058095D01*
X63711104Y-119010476D01*
X63615866Y-119010476D01*
X63520628Y-119058095D01*
X63473009Y-119105714D01*
X63425390Y-119200952D01*
X63377771Y-119391428D01*
X63330152Y-119486666D01*
X63282533Y-119534285D01*
X63187295Y-119581904D01*
X63092057Y-119581904D01*
X62996819Y-119534285D01*
X62949200Y-119486666D01*
X62901580Y-119391428D01*
X62901580Y-119153333D01*
X62949200Y-119010476D01*
X63901580Y-118058095D02*
X63901580Y-118629523D01*
X63901580Y-118343809D02*
X62901580Y-118343809D01*
X63044438Y-118439047D01*
X63139676Y-118534285D01*
X63187295Y-118629523D01*
%TO.C,S5*%
X110589961Y-119581904D02*
X110637580Y-119439047D01*
X110637580Y-119200952D01*
X110589961Y-119105714D01*
X110542342Y-119058095D01*
X110447104Y-119010476D01*
X110351866Y-119010476D01*
X110256628Y-119058095D01*
X110209009Y-119105714D01*
X110161390Y-119200952D01*
X110113771Y-119391428D01*
X110066152Y-119486666D01*
X110018533Y-119534285D01*
X109923295Y-119581904D01*
X109828057Y-119581904D01*
X109732819Y-119534285D01*
X109685200Y-119486666D01*
X109637580Y-119391428D01*
X109637580Y-119153333D01*
X109685200Y-119010476D01*
X109637580Y-118105714D02*
X109637580Y-118581904D01*
X110113771Y-118629523D01*
X110066152Y-118581904D01*
X110018533Y-118486666D01*
X110018533Y-118248571D01*
X110066152Y-118153333D01*
X110113771Y-118105714D01*
X110209009Y-118058095D01*
X110447104Y-118058095D01*
X110542342Y-118105714D01*
X110589961Y-118153333D01*
X110637580Y-118248571D01*
X110637580Y-118486666D01*
X110589961Y-118581904D01*
X110542342Y-118629523D01*
D12*
%TO.C,S3*%
X90354400Y-122426800D02*
X90354400Y-122676800D01*
X88112600Y-121430000D02*
X88112600Y-116762600D01*
X94716600Y-116737200D02*
X94706800Y-122030000D01*
X90347800Y-122426800D02*
X92456000Y-122426800D01*
X90358800Y-116320800D02*
X92454000Y-116320800D01*
%TO.C,S10*%
X113722400Y-109980800D02*
X113722400Y-110230800D01*
X113726800Y-103874800D02*
X115822000Y-103874800D01*
X118084600Y-104291200D02*
X118074800Y-109584000D01*
X111480600Y-108984000D02*
X111480600Y-104316600D01*
X113715800Y-109980800D02*
X115824000Y-109980800D01*
%TO.C,S4*%
X102031800Y-122426800D02*
X104140000Y-122426800D01*
X99796600Y-121430000D02*
X99796600Y-116762600D01*
X102042800Y-116320800D02*
X104138000Y-116320800D01*
X102038400Y-122426800D02*
X102038400Y-122676800D01*
X106400600Y-116737200D02*
X106390800Y-122030000D01*
%TO.C,S8*%
X88112600Y-108984000D02*
X88112600Y-104316600D01*
X94716600Y-104291200D02*
X94706800Y-109584000D01*
X90347800Y-109980800D02*
X92456000Y-109980800D01*
X90354400Y-109980800D02*
X90354400Y-110230800D01*
X90358800Y-103874800D02*
X92454000Y-103874800D01*
%TO.C,S11*%
X66979800Y-97534800D02*
X69088000Y-97534800D01*
X66990800Y-91428800D02*
X69086000Y-91428800D01*
X64744600Y-96538000D02*
X64744600Y-91870600D01*
X66986400Y-97534800D02*
X66986400Y-97784800D01*
X71348600Y-91845200D02*
X71338800Y-97138000D01*
%TO.C,S2*%
X78663800Y-122426800D02*
X80772000Y-122426800D01*
X83032600Y-116737200D02*
X83022800Y-122030000D01*
X78674800Y-116320800D02*
X80770000Y-116320800D01*
X76428600Y-121430000D02*
X76428600Y-116762600D01*
X78670400Y-122426800D02*
X78670400Y-122676800D01*
%TO.C,S15*%
X118084600Y-91845200D02*
X118074800Y-97138000D01*
X113722400Y-97534800D02*
X113722400Y-97784800D01*
X113726800Y-91428800D02*
X115822000Y-91428800D01*
X113715800Y-97534800D02*
X115824000Y-97534800D01*
X111480600Y-96538000D02*
X111480600Y-91870600D01*
%TO.C,S14*%
X102038400Y-97534800D02*
X102038400Y-97784800D01*
X99796600Y-96538000D02*
X99796600Y-91870600D01*
X102042800Y-91428800D02*
X104138000Y-91428800D01*
X106400600Y-91845200D02*
X106390800Y-97138000D01*
X102031800Y-97534800D02*
X104140000Y-97534800D01*
%TO.C,S9*%
X99796600Y-108984000D02*
X99796600Y-104316600D01*
X102042800Y-103874800D02*
X104138000Y-103874800D01*
X102031800Y-109980800D02*
X104140000Y-109980800D01*
X102038400Y-109980800D02*
X102038400Y-110230800D01*
X106400600Y-104291200D02*
X106390800Y-109584000D01*
%TO.C,S7*%
X78670400Y-109980800D02*
X78670400Y-110230800D01*
X78674800Y-103874800D02*
X80770000Y-103874800D01*
X76428600Y-108984000D02*
X76428600Y-104316600D01*
X83032600Y-104291200D02*
X83022800Y-109584000D01*
X78663800Y-109980800D02*
X80772000Y-109980800D01*
%TO.C,S12*%
X78663800Y-97534800D02*
X80772000Y-97534800D01*
X83032600Y-91845200D02*
X83022800Y-97138000D01*
X78674800Y-91428800D02*
X80770000Y-91428800D01*
X76428600Y-96538000D02*
X76428600Y-91870600D01*
X78670400Y-97534800D02*
X78670400Y-97784800D01*
D13*
%TO.C,U1*%
X111600000Y-82890000D02*
X112000000Y-82890000D01*
X73500000Y-61890000D02*
X73900000Y-61890000D01*
X101400000Y-61890000D02*
X101800000Y-61890000D01*
X73500000Y-82890000D02*
X73900000Y-82890000D01*
X114400000Y-73890000D02*
X114400000Y-73490000D01*
X96300000Y-82890000D02*
X96700000Y-82890000D01*
X78500000Y-61890000D02*
X78900000Y-61890000D01*
X81100000Y-82890000D02*
X81500000Y-82890000D01*
X65800000Y-61890000D02*
X66200000Y-61890000D01*
X86200000Y-61890000D02*
X86600000Y-61890000D01*
X63400000Y-82890000D02*
X63700000Y-82890000D01*
X83600000Y-61890000D02*
X84000000Y-61890000D01*
X93800000Y-82890000D02*
X94200000Y-82890000D01*
X93800000Y-61890000D02*
X94200000Y-61890000D01*
X109000000Y-61890000D02*
X109400000Y-61890000D01*
X91200000Y-82890000D02*
X91600000Y-82890000D01*
X104000000Y-82890000D02*
X104400000Y-82890000D01*
X70900000Y-61890000D02*
X71300000Y-61890000D01*
X63400000Y-82890000D02*
X63400000Y-61890000D01*
X111600000Y-61890000D02*
X112000000Y-61890000D01*
X109000000Y-82890000D02*
X109400000Y-82890000D01*
X66067000Y-82890000D02*
X66067000Y-79883000D01*
X88700000Y-61890000D02*
X89100000Y-61890000D01*
X76000000Y-82890000D02*
X76400000Y-82890000D01*
X98900000Y-61890000D02*
X99300000Y-61890000D01*
X106500000Y-61890000D02*
X106900000Y-61890000D01*
X114400000Y-61890000D02*
X114400000Y-68690000D01*
X81100000Y-61890000D02*
X81500000Y-61890000D01*
X63400000Y-61890000D02*
X63700000Y-61890000D01*
X66067000Y-79883000D02*
X63400000Y-79883000D01*
X78500000Y-82890000D02*
X78900000Y-82890000D01*
X98900000Y-82890000D02*
X99300000Y-82890000D01*
X96300000Y-61890000D02*
X96700000Y-61890000D01*
X83600000Y-82890000D02*
X84000000Y-82890000D01*
X88700000Y-82890000D02*
X89100000Y-82890000D01*
X106500000Y-82890000D02*
X106900000Y-82890000D01*
X86200000Y-82890000D02*
X86600000Y-82890000D01*
X91200000Y-61890000D02*
X91600000Y-61890000D01*
X65800000Y-82890000D02*
X66200000Y-82890000D01*
X68400000Y-82890000D02*
X68800000Y-82890000D01*
X114400000Y-71290000D02*
X114400000Y-70890000D01*
X104000000Y-61890000D02*
X104400000Y-61890000D01*
X68400000Y-61890000D02*
X68800000Y-61890000D01*
X101400000Y-82890000D02*
X101800000Y-82890000D01*
X76000000Y-61890000D02*
X76400000Y-61890000D01*
X114400000Y-76090000D02*
X114400000Y-82890000D01*
X70900000Y-82890000D02*
X71300000Y-82890000D01*
D12*
%TO.C,S6*%
X66986400Y-109980800D02*
X66986400Y-110230800D01*
X66990800Y-103874800D02*
X69086000Y-103874800D01*
X71348600Y-104291200D02*
X71338800Y-109584000D01*
X64744600Y-108984000D02*
X64744600Y-104316600D01*
X66979800Y-109980800D02*
X69088000Y-109980800D01*
%TO.C,S13*%
X90347800Y-97534800D02*
X92456000Y-97534800D01*
X90354400Y-97534800D02*
X90354400Y-97784800D01*
X88112600Y-96538000D02*
X88112600Y-91870600D01*
X90358800Y-91428800D02*
X92454000Y-91428800D01*
X94716600Y-91845200D02*
X94706800Y-97138000D01*
%TO.C,S1*%
X71348600Y-116737200D02*
X71338800Y-122030000D01*
X64744600Y-121430000D02*
X64744600Y-116762600D01*
X66986400Y-122426800D02*
X66986400Y-122676800D01*
X66990800Y-116320800D02*
X69086000Y-116320800D01*
X66979800Y-122426800D02*
X69088000Y-122426800D01*
%TO.C,S5*%
X111480600Y-121430000D02*
X111480600Y-116762600D01*
X113715800Y-122426800D02*
X115824000Y-122426800D01*
X118084600Y-116737200D02*
X118074800Y-122030000D01*
X113722400Y-122426800D02*
X113722400Y-122676800D01*
X113726800Y-116320800D02*
X115822000Y-116320800D01*
%TD*%
M02*
