%TF.GenerationSoftware,KiCad,Pcbnew,(6.0.7)*%
%TF.CreationDate,2022-10-15T23:14:36+02:00*%
%TF.ProjectId,15_button_controller,31355f62-7574-4746-9f6e-5f636f6e7472,rev?*%
%TF.SameCoordinates,Original*%
%TF.FileFunction,Drillmap*%
%TF.FilePolarity,Positive*%
%FSLAX45Y45*%
G04 Gerber Fmt 4.5, Leading zero omitted, Abs format (unit mm)*
G04 Created by KiCad (PCBNEW (6.0.7)) date 2022-10-15 23:14:36*
%MOMM*%
%LPD*%
G01*
G04 APERTURE LIST*
%ADD10C,0.100000*%
%ADD11C,0.200000*%
%ADD12C,0.150000*%
%ADD13C,0.180000*%
G04 APERTURE END LIST*
D10*
X12065000Y-12319000D02*
X12065000Y-5842000D01*
X12065000Y-5842000D02*
G75*
G03*
X11811000Y-5588000I-254000J0D01*
G01*
X6223000Y-5842000D02*
X6223000Y-12319000D01*
X11811000Y-5588000D02*
X6477000Y-5588000D01*
X6477000Y-5588000D02*
G75*
G03*
X6223000Y-5842000I0J-254000D01*
G01*
X6223000Y-12319000D02*
G75*
G03*
X6477000Y-12573000I254000J0D01*
G01*
X6477000Y-12573000D02*
X11811000Y-12573000D01*
X11811000Y-12573000D02*
G75*
G03*
X12065000Y-12319000I0J254000D01*
G01*
D11*
D12*
X6718000Y-6921500D02*
X6868000Y-7071500D01*
X6868000Y-6921500D02*
X6718000Y-7071500D01*
X6718000Y-7406500D02*
X6868000Y-7556500D01*
X6868000Y-7406500D02*
X6718000Y-7556500D01*
D13*
X6580000Y-6966500D02*
G75*
G03*
X6580000Y-6966500I-90000J0D01*
G01*
X6580000Y-7511500D02*
G75*
G03*
X6580000Y-7511500I-90000J0D01*
G01*
D11*
X6475619Y-12888476D02*
X6475619Y-12688476D01*
X6523238Y-12688476D01*
X6551809Y-12698000D01*
X6570857Y-12717048D01*
X6580381Y-12736095D01*
X6589905Y-12774190D01*
X6589905Y-12802762D01*
X6580381Y-12840857D01*
X6570857Y-12859905D01*
X6551809Y-12878952D01*
X6523238Y-12888476D01*
X6475619Y-12888476D01*
X6675619Y-12888476D02*
X6675619Y-12755143D01*
X6675619Y-12793238D02*
X6685143Y-12774190D01*
X6694667Y-12764667D01*
X6713714Y-12755143D01*
X6732762Y-12755143D01*
X6799428Y-12888476D02*
X6799428Y-12755143D01*
X6799428Y-12688476D02*
X6789905Y-12698000D01*
X6799428Y-12707524D01*
X6808952Y-12698000D01*
X6799428Y-12688476D01*
X6799428Y-12707524D01*
X6923238Y-12888476D02*
X6904190Y-12878952D01*
X6894667Y-12859905D01*
X6894667Y-12688476D01*
X7028000Y-12888476D02*
X7008952Y-12878952D01*
X6999428Y-12859905D01*
X6999428Y-12688476D01*
X7256571Y-12888476D02*
X7256571Y-12688476D01*
X7323238Y-12831333D01*
X7389905Y-12688476D01*
X7389905Y-12888476D01*
X7570857Y-12888476D02*
X7570857Y-12783714D01*
X7561333Y-12764667D01*
X7542286Y-12755143D01*
X7504190Y-12755143D01*
X7485143Y-12764667D01*
X7570857Y-12878952D02*
X7551809Y-12888476D01*
X7504190Y-12888476D01*
X7485143Y-12878952D01*
X7475619Y-12859905D01*
X7475619Y-12840857D01*
X7485143Y-12821809D01*
X7504190Y-12812286D01*
X7551809Y-12812286D01*
X7570857Y-12802762D01*
X7666095Y-12755143D02*
X7666095Y-12955143D01*
X7666095Y-12764667D02*
X7685143Y-12755143D01*
X7723238Y-12755143D01*
X7742286Y-12764667D01*
X7751809Y-12774190D01*
X7761333Y-12793238D01*
X7761333Y-12850381D01*
X7751809Y-12869428D01*
X7742286Y-12878952D01*
X7723238Y-12888476D01*
X7685143Y-12888476D01*
X7666095Y-12878952D01*
X7847048Y-12869428D02*
X7856571Y-12878952D01*
X7847048Y-12888476D01*
X7837524Y-12878952D01*
X7847048Y-12869428D01*
X7847048Y-12888476D01*
X7847048Y-12764667D02*
X7856571Y-12774190D01*
X7847048Y-12783714D01*
X7837524Y-12774190D01*
X7847048Y-12764667D01*
X7847048Y-12783714D01*
D12*
X6068000Y-13143000D02*
X6218000Y-13293000D01*
X6218000Y-13143000D02*
X6068000Y-13293000D01*
D11*
X6580381Y-13308476D02*
X6466095Y-13308476D01*
X6523238Y-13308476D02*
X6523238Y-13108476D01*
X6504190Y-13137048D01*
X6485143Y-13156095D01*
X6466095Y-13165619D01*
X6666095Y-13289428D02*
X6675619Y-13298952D01*
X6666095Y-13308476D01*
X6656571Y-13298952D01*
X6666095Y-13289428D01*
X6666095Y-13308476D01*
X6856571Y-13108476D02*
X6761333Y-13108476D01*
X6751809Y-13203714D01*
X6761333Y-13194190D01*
X6780381Y-13184667D01*
X6828000Y-13184667D01*
X6847048Y-13194190D01*
X6856571Y-13203714D01*
X6866095Y-13222762D01*
X6866095Y-13270381D01*
X6856571Y-13289428D01*
X6847048Y-13298952D01*
X6828000Y-13308476D01*
X6780381Y-13308476D01*
X6761333Y-13298952D01*
X6751809Y-13289428D01*
X6989905Y-13108476D02*
X7008952Y-13108476D01*
X7028000Y-13118000D01*
X7037524Y-13127524D01*
X7047048Y-13146571D01*
X7056571Y-13184667D01*
X7056571Y-13232286D01*
X7047048Y-13270381D01*
X7037524Y-13289428D01*
X7028000Y-13298952D01*
X7008952Y-13308476D01*
X6989905Y-13308476D01*
X6970857Y-13298952D01*
X6961333Y-13289428D01*
X6951809Y-13270381D01*
X6942286Y-13232286D01*
X6942286Y-13184667D01*
X6951809Y-13146571D01*
X6961333Y-13127524D01*
X6970857Y-13118000D01*
X6989905Y-13108476D01*
X7180381Y-13108476D02*
X7199428Y-13108476D01*
X7218476Y-13118000D01*
X7228000Y-13127524D01*
X7237524Y-13146571D01*
X7247048Y-13184667D01*
X7247048Y-13232286D01*
X7237524Y-13270381D01*
X7228000Y-13289428D01*
X7218476Y-13298952D01*
X7199428Y-13308476D01*
X7180381Y-13308476D01*
X7161333Y-13298952D01*
X7151809Y-13289428D01*
X7142286Y-13270381D01*
X7132762Y-13232286D01*
X7132762Y-13184667D01*
X7142286Y-13146571D01*
X7151809Y-13127524D01*
X7161333Y-13118000D01*
X7180381Y-13108476D01*
X7332762Y-13308476D02*
X7332762Y-13175143D01*
X7332762Y-13194190D02*
X7342286Y-13184667D01*
X7361333Y-13175143D01*
X7389905Y-13175143D01*
X7408952Y-13184667D01*
X7418476Y-13203714D01*
X7418476Y-13308476D01*
X7418476Y-13203714D02*
X7428000Y-13184667D01*
X7447048Y-13175143D01*
X7475619Y-13175143D01*
X7494667Y-13184667D01*
X7504190Y-13203714D01*
X7504190Y-13308476D01*
X7599428Y-13308476D02*
X7599428Y-13175143D01*
X7599428Y-13194190D02*
X7608952Y-13184667D01*
X7628000Y-13175143D01*
X7656571Y-13175143D01*
X7675619Y-13184667D01*
X7685143Y-13203714D01*
X7685143Y-13308476D01*
X7685143Y-13203714D02*
X7694667Y-13184667D01*
X7713714Y-13175143D01*
X7742286Y-13175143D01*
X7761333Y-13184667D01*
X7770857Y-13203714D01*
X7770857Y-13308476D01*
X8161333Y-13098952D02*
X7989905Y-13356095D01*
X8418476Y-13108476D02*
X8437524Y-13108476D01*
X8456571Y-13118000D01*
X8466095Y-13127524D01*
X8475619Y-13146571D01*
X8485143Y-13184667D01*
X8485143Y-13232286D01*
X8475619Y-13270381D01*
X8466095Y-13289428D01*
X8456571Y-13298952D01*
X8437524Y-13308476D01*
X8418476Y-13308476D01*
X8399429Y-13298952D01*
X8389905Y-13289428D01*
X8380381Y-13270381D01*
X8370857Y-13232286D01*
X8370857Y-13184667D01*
X8380381Y-13146571D01*
X8389905Y-13127524D01*
X8399429Y-13118000D01*
X8418476Y-13108476D01*
X8570857Y-13289428D02*
X8580381Y-13298952D01*
X8570857Y-13308476D01*
X8561333Y-13298952D01*
X8570857Y-13289428D01*
X8570857Y-13308476D01*
X8704190Y-13108476D02*
X8723238Y-13108476D01*
X8742286Y-13118000D01*
X8751810Y-13127524D01*
X8761333Y-13146571D01*
X8770857Y-13184667D01*
X8770857Y-13232286D01*
X8761333Y-13270381D01*
X8751810Y-13289428D01*
X8742286Y-13298952D01*
X8723238Y-13308476D01*
X8704190Y-13308476D01*
X8685143Y-13298952D01*
X8675619Y-13289428D01*
X8666095Y-13270381D01*
X8656571Y-13232286D01*
X8656571Y-13184667D01*
X8666095Y-13146571D01*
X8675619Y-13127524D01*
X8685143Y-13118000D01*
X8704190Y-13108476D01*
X8951810Y-13108476D02*
X8856571Y-13108476D01*
X8847048Y-13203714D01*
X8856571Y-13194190D01*
X8875619Y-13184667D01*
X8923238Y-13184667D01*
X8942286Y-13194190D01*
X8951810Y-13203714D01*
X8961333Y-13222762D01*
X8961333Y-13270381D01*
X8951810Y-13289428D01*
X8942286Y-13298952D01*
X8923238Y-13308476D01*
X8875619Y-13308476D01*
X8856571Y-13298952D01*
X8847048Y-13289428D01*
X9056571Y-13308476D02*
X9094667Y-13308476D01*
X9113714Y-13298952D01*
X9123238Y-13289428D01*
X9142286Y-13260857D01*
X9151810Y-13222762D01*
X9151810Y-13146571D01*
X9142286Y-13127524D01*
X9132762Y-13118000D01*
X9113714Y-13108476D01*
X9075619Y-13108476D01*
X9056571Y-13118000D01*
X9047048Y-13127524D01*
X9037524Y-13146571D01*
X9037524Y-13194190D01*
X9047048Y-13213238D01*
X9056571Y-13222762D01*
X9075619Y-13232286D01*
X9113714Y-13232286D01*
X9132762Y-13222762D01*
X9142286Y-13213238D01*
X9151810Y-13194190D01*
X9342286Y-13308476D02*
X9228000Y-13308476D01*
X9285143Y-13308476D02*
X9285143Y-13108476D01*
X9266095Y-13137048D01*
X9247048Y-13156095D01*
X9228000Y-13165619D01*
X9418476Y-13108476D02*
X9418476Y-13146571D01*
X9494667Y-13108476D02*
X9494667Y-13146571D01*
X9789905Y-13384667D02*
X9780381Y-13375143D01*
X9761333Y-13346571D01*
X9751810Y-13327524D01*
X9742286Y-13298952D01*
X9732762Y-13251333D01*
X9732762Y-13213238D01*
X9742286Y-13165619D01*
X9751810Y-13137048D01*
X9761333Y-13118000D01*
X9780381Y-13089428D01*
X9789905Y-13079905D01*
X9856571Y-13127524D02*
X9866095Y-13118000D01*
X9885143Y-13108476D01*
X9932762Y-13108476D01*
X9951810Y-13118000D01*
X9961333Y-13127524D01*
X9970857Y-13146571D01*
X9970857Y-13165619D01*
X9961333Y-13194190D01*
X9847048Y-13308476D01*
X9970857Y-13308476D01*
X10208952Y-13308476D02*
X10208952Y-13108476D01*
X10294667Y-13308476D02*
X10294667Y-13203714D01*
X10285143Y-13184667D01*
X10266095Y-13175143D01*
X10237524Y-13175143D01*
X10218476Y-13184667D01*
X10208952Y-13194190D01*
X10418476Y-13308476D02*
X10399429Y-13298952D01*
X10389905Y-13289428D01*
X10380381Y-13270381D01*
X10380381Y-13213238D01*
X10389905Y-13194190D01*
X10399429Y-13184667D01*
X10418476Y-13175143D01*
X10447048Y-13175143D01*
X10466095Y-13184667D01*
X10475619Y-13194190D01*
X10485143Y-13213238D01*
X10485143Y-13270381D01*
X10475619Y-13289428D01*
X10466095Y-13298952D01*
X10447048Y-13308476D01*
X10418476Y-13308476D01*
X10599429Y-13308476D02*
X10580381Y-13298952D01*
X10570857Y-13279905D01*
X10570857Y-13108476D01*
X10751810Y-13298952D02*
X10732762Y-13308476D01*
X10694667Y-13308476D01*
X10675619Y-13298952D01*
X10666095Y-13279905D01*
X10666095Y-13203714D01*
X10675619Y-13184667D01*
X10694667Y-13175143D01*
X10732762Y-13175143D01*
X10751810Y-13184667D01*
X10761333Y-13203714D01*
X10761333Y-13222762D01*
X10666095Y-13241809D01*
X10837524Y-13298952D02*
X10856571Y-13308476D01*
X10894667Y-13308476D01*
X10913714Y-13298952D01*
X10923238Y-13279905D01*
X10923238Y-13270381D01*
X10913714Y-13251333D01*
X10894667Y-13241809D01*
X10866095Y-13241809D01*
X10847048Y-13232286D01*
X10837524Y-13213238D01*
X10837524Y-13203714D01*
X10847048Y-13184667D01*
X10866095Y-13175143D01*
X10894667Y-13175143D01*
X10913714Y-13184667D01*
X10989905Y-13384667D02*
X10999429Y-13375143D01*
X11018476Y-13346571D01*
X11028000Y-13327524D01*
X11037524Y-13298952D01*
X11047048Y-13251333D01*
X11047048Y-13213238D01*
X11037524Y-13165619D01*
X11028000Y-13137048D01*
X11018476Y-13118000D01*
X10999429Y-13089428D01*
X10989905Y-13079905D01*
X11351809Y-13384667D02*
X11342286Y-13375143D01*
X11323238Y-13346571D01*
X11313714Y-13327524D01*
X11304190Y-13298952D01*
X11294667Y-13251333D01*
X11294667Y-13213238D01*
X11304190Y-13165619D01*
X11313714Y-13137048D01*
X11323238Y-13118000D01*
X11342286Y-13089428D01*
X11351809Y-13079905D01*
X11428000Y-13175143D02*
X11428000Y-13308476D01*
X11428000Y-13194190D02*
X11437524Y-13184667D01*
X11456571Y-13175143D01*
X11485143Y-13175143D01*
X11504190Y-13184667D01*
X11513714Y-13203714D01*
X11513714Y-13308476D01*
X11637524Y-13308476D02*
X11618476Y-13298952D01*
X11608952Y-13289428D01*
X11599428Y-13270381D01*
X11599428Y-13213238D01*
X11608952Y-13194190D01*
X11618476Y-13184667D01*
X11637524Y-13175143D01*
X11666095Y-13175143D01*
X11685143Y-13184667D01*
X11694667Y-13194190D01*
X11704190Y-13213238D01*
X11704190Y-13270381D01*
X11694667Y-13289428D01*
X11685143Y-13298952D01*
X11666095Y-13308476D01*
X11637524Y-13308476D01*
X11761333Y-13175143D02*
X11837524Y-13175143D01*
X11789905Y-13108476D02*
X11789905Y-13279905D01*
X11799428Y-13298952D01*
X11818476Y-13308476D01*
X11837524Y-13308476D01*
X12056571Y-13175143D02*
X12056571Y-13375143D01*
X12056571Y-13184667D02*
X12075619Y-13175143D01*
X12113714Y-13175143D01*
X12132762Y-13184667D01*
X12142286Y-13194190D01*
X12151809Y-13213238D01*
X12151809Y-13270381D01*
X12142286Y-13289428D01*
X12132762Y-13298952D01*
X12113714Y-13308476D01*
X12075619Y-13308476D01*
X12056571Y-13298952D01*
X12266095Y-13308476D02*
X12247048Y-13298952D01*
X12237524Y-13279905D01*
X12237524Y-13108476D01*
X12428000Y-13308476D02*
X12428000Y-13203714D01*
X12418476Y-13184667D01*
X12399428Y-13175143D01*
X12361333Y-13175143D01*
X12342286Y-13184667D01*
X12428000Y-13298952D02*
X12408952Y-13308476D01*
X12361333Y-13308476D01*
X12342286Y-13298952D01*
X12332762Y-13279905D01*
X12332762Y-13260857D01*
X12342286Y-13241809D01*
X12361333Y-13232286D01*
X12408952Y-13232286D01*
X12428000Y-13222762D01*
X12494667Y-13175143D02*
X12570857Y-13175143D01*
X12523238Y-13108476D02*
X12523238Y-13279905D01*
X12532762Y-13298952D01*
X12551809Y-13308476D01*
X12570857Y-13308476D01*
X12713714Y-13298952D02*
X12694667Y-13308476D01*
X12656571Y-13308476D01*
X12637524Y-13298952D01*
X12628000Y-13279905D01*
X12628000Y-13203714D01*
X12637524Y-13184667D01*
X12656571Y-13175143D01*
X12694667Y-13175143D01*
X12713714Y-13184667D01*
X12723238Y-13203714D01*
X12723238Y-13222762D01*
X12628000Y-13241809D01*
X12894667Y-13308476D02*
X12894667Y-13108476D01*
X12894667Y-13298952D02*
X12875619Y-13308476D01*
X12837524Y-13308476D01*
X12818476Y-13298952D01*
X12808952Y-13289428D01*
X12799428Y-13270381D01*
X12799428Y-13213238D01*
X12808952Y-13194190D01*
X12818476Y-13184667D01*
X12837524Y-13175143D01*
X12875619Y-13175143D01*
X12894667Y-13184667D01*
X12970857Y-13384667D02*
X12980381Y-13375143D01*
X12999428Y-13346571D01*
X13008952Y-13327524D01*
X13018476Y-13298952D01*
X13028000Y-13251333D01*
X13028000Y-13213238D01*
X13018476Y-13165619D01*
X13008952Y-13137048D01*
X12999428Y-13118000D01*
X12980381Y-13089428D01*
X12970857Y-13079905D01*
D13*
X6218000Y-13488000D02*
G75*
G03*
X6218000Y-13488000I-90000J0D01*
G01*
D11*
X6580381Y-13578476D02*
X6466095Y-13578476D01*
X6523238Y-13578476D02*
X6523238Y-13378476D01*
X6504190Y-13407048D01*
X6485143Y-13426095D01*
X6466095Y-13435619D01*
X6666095Y-13559428D02*
X6675619Y-13568952D01*
X6666095Y-13578476D01*
X6656571Y-13568952D01*
X6666095Y-13559428D01*
X6666095Y-13578476D01*
X6789905Y-13464190D02*
X6770857Y-13454667D01*
X6761333Y-13445143D01*
X6751809Y-13426095D01*
X6751809Y-13416571D01*
X6761333Y-13397524D01*
X6770857Y-13388000D01*
X6789905Y-13378476D01*
X6828000Y-13378476D01*
X6847048Y-13388000D01*
X6856571Y-13397524D01*
X6866095Y-13416571D01*
X6866095Y-13426095D01*
X6856571Y-13445143D01*
X6847048Y-13454667D01*
X6828000Y-13464190D01*
X6789905Y-13464190D01*
X6770857Y-13473714D01*
X6761333Y-13483238D01*
X6751809Y-13502286D01*
X6751809Y-13540381D01*
X6761333Y-13559428D01*
X6770857Y-13568952D01*
X6789905Y-13578476D01*
X6828000Y-13578476D01*
X6847048Y-13568952D01*
X6856571Y-13559428D01*
X6866095Y-13540381D01*
X6866095Y-13502286D01*
X6856571Y-13483238D01*
X6847048Y-13473714D01*
X6828000Y-13464190D01*
X6989905Y-13378476D02*
X7008952Y-13378476D01*
X7028000Y-13388000D01*
X7037524Y-13397524D01*
X7047048Y-13416571D01*
X7056571Y-13454667D01*
X7056571Y-13502286D01*
X7047048Y-13540381D01*
X7037524Y-13559428D01*
X7028000Y-13568952D01*
X7008952Y-13578476D01*
X6989905Y-13578476D01*
X6970857Y-13568952D01*
X6961333Y-13559428D01*
X6951809Y-13540381D01*
X6942286Y-13502286D01*
X6942286Y-13454667D01*
X6951809Y-13416571D01*
X6961333Y-13397524D01*
X6970857Y-13388000D01*
X6989905Y-13378476D01*
X7180381Y-13378476D02*
X7199428Y-13378476D01*
X7218476Y-13388000D01*
X7228000Y-13397524D01*
X7237524Y-13416571D01*
X7247048Y-13454667D01*
X7247048Y-13502286D01*
X7237524Y-13540381D01*
X7228000Y-13559428D01*
X7218476Y-13568952D01*
X7199428Y-13578476D01*
X7180381Y-13578476D01*
X7161333Y-13568952D01*
X7151809Y-13559428D01*
X7142286Y-13540381D01*
X7132762Y-13502286D01*
X7132762Y-13454667D01*
X7142286Y-13416571D01*
X7151809Y-13397524D01*
X7161333Y-13388000D01*
X7180381Y-13378476D01*
X7332762Y-13578476D02*
X7332762Y-13445143D01*
X7332762Y-13464190D02*
X7342286Y-13454667D01*
X7361333Y-13445143D01*
X7389905Y-13445143D01*
X7408952Y-13454667D01*
X7418476Y-13473714D01*
X7418476Y-13578476D01*
X7418476Y-13473714D02*
X7428000Y-13454667D01*
X7447048Y-13445143D01*
X7475619Y-13445143D01*
X7494667Y-13454667D01*
X7504190Y-13473714D01*
X7504190Y-13578476D01*
X7599428Y-13578476D02*
X7599428Y-13445143D01*
X7599428Y-13464190D02*
X7608952Y-13454667D01*
X7628000Y-13445143D01*
X7656571Y-13445143D01*
X7675619Y-13454667D01*
X7685143Y-13473714D01*
X7685143Y-13578476D01*
X7685143Y-13473714D02*
X7694667Y-13454667D01*
X7713714Y-13445143D01*
X7742286Y-13445143D01*
X7761333Y-13454667D01*
X7770857Y-13473714D01*
X7770857Y-13578476D01*
X8161333Y-13368952D02*
X7989905Y-13626095D01*
X8418476Y-13378476D02*
X8437524Y-13378476D01*
X8456571Y-13388000D01*
X8466095Y-13397524D01*
X8475619Y-13416571D01*
X8485143Y-13454667D01*
X8485143Y-13502286D01*
X8475619Y-13540381D01*
X8466095Y-13559428D01*
X8456571Y-13568952D01*
X8437524Y-13578476D01*
X8418476Y-13578476D01*
X8399429Y-13568952D01*
X8389905Y-13559428D01*
X8380381Y-13540381D01*
X8370857Y-13502286D01*
X8370857Y-13454667D01*
X8380381Y-13416571D01*
X8389905Y-13397524D01*
X8399429Y-13388000D01*
X8418476Y-13378476D01*
X8570857Y-13559428D02*
X8580381Y-13568952D01*
X8570857Y-13578476D01*
X8561333Y-13568952D01*
X8570857Y-13559428D01*
X8570857Y-13578476D01*
X8704190Y-13378476D02*
X8723238Y-13378476D01*
X8742286Y-13388000D01*
X8751810Y-13397524D01*
X8761333Y-13416571D01*
X8770857Y-13454667D01*
X8770857Y-13502286D01*
X8761333Y-13540381D01*
X8751810Y-13559428D01*
X8742286Y-13568952D01*
X8723238Y-13578476D01*
X8704190Y-13578476D01*
X8685143Y-13568952D01*
X8675619Y-13559428D01*
X8666095Y-13540381D01*
X8656571Y-13502286D01*
X8656571Y-13454667D01*
X8666095Y-13416571D01*
X8675619Y-13397524D01*
X8685143Y-13388000D01*
X8704190Y-13378476D01*
X8837524Y-13378476D02*
X8970857Y-13378476D01*
X8885143Y-13578476D01*
X9085143Y-13378476D02*
X9104190Y-13378476D01*
X9123238Y-13388000D01*
X9132762Y-13397524D01*
X9142286Y-13416571D01*
X9151810Y-13454667D01*
X9151810Y-13502286D01*
X9142286Y-13540381D01*
X9132762Y-13559428D01*
X9123238Y-13568952D01*
X9104190Y-13578476D01*
X9085143Y-13578476D01*
X9066095Y-13568952D01*
X9056571Y-13559428D01*
X9047048Y-13540381D01*
X9037524Y-13502286D01*
X9037524Y-13454667D01*
X9047048Y-13416571D01*
X9056571Y-13397524D01*
X9066095Y-13388000D01*
X9085143Y-13378476D01*
X9247048Y-13578476D02*
X9285143Y-13578476D01*
X9304190Y-13568952D01*
X9313714Y-13559428D01*
X9332762Y-13530857D01*
X9342286Y-13492762D01*
X9342286Y-13416571D01*
X9332762Y-13397524D01*
X9323238Y-13388000D01*
X9304190Y-13378476D01*
X9266095Y-13378476D01*
X9247048Y-13388000D01*
X9237524Y-13397524D01*
X9228000Y-13416571D01*
X9228000Y-13464190D01*
X9237524Y-13483238D01*
X9247048Y-13492762D01*
X9266095Y-13502286D01*
X9304190Y-13502286D01*
X9323238Y-13492762D01*
X9332762Y-13483238D01*
X9342286Y-13464190D01*
X9418476Y-13378476D02*
X9418476Y-13416571D01*
X9494667Y-13378476D02*
X9494667Y-13416571D01*
X9789905Y-13654667D02*
X9780381Y-13645143D01*
X9761333Y-13616571D01*
X9751810Y-13597524D01*
X9742286Y-13568952D01*
X9732762Y-13521333D01*
X9732762Y-13483238D01*
X9742286Y-13435619D01*
X9751810Y-13407048D01*
X9761333Y-13388000D01*
X9780381Y-13359428D01*
X9789905Y-13349905D01*
X9856571Y-13397524D02*
X9866095Y-13388000D01*
X9885143Y-13378476D01*
X9932762Y-13378476D01*
X9951810Y-13388000D01*
X9961333Y-13397524D01*
X9970857Y-13416571D01*
X9970857Y-13435619D01*
X9961333Y-13464190D01*
X9847048Y-13578476D01*
X9970857Y-13578476D01*
X10208952Y-13578476D02*
X10208952Y-13378476D01*
X10294667Y-13578476D02*
X10294667Y-13473714D01*
X10285143Y-13454667D01*
X10266095Y-13445143D01*
X10237524Y-13445143D01*
X10218476Y-13454667D01*
X10208952Y-13464190D01*
X10418476Y-13578476D02*
X10399429Y-13568952D01*
X10389905Y-13559428D01*
X10380381Y-13540381D01*
X10380381Y-13483238D01*
X10389905Y-13464190D01*
X10399429Y-13454667D01*
X10418476Y-13445143D01*
X10447048Y-13445143D01*
X10466095Y-13454667D01*
X10475619Y-13464190D01*
X10485143Y-13483238D01*
X10485143Y-13540381D01*
X10475619Y-13559428D01*
X10466095Y-13568952D01*
X10447048Y-13578476D01*
X10418476Y-13578476D01*
X10599429Y-13578476D02*
X10580381Y-13568952D01*
X10570857Y-13549905D01*
X10570857Y-13378476D01*
X10751810Y-13568952D02*
X10732762Y-13578476D01*
X10694667Y-13578476D01*
X10675619Y-13568952D01*
X10666095Y-13549905D01*
X10666095Y-13473714D01*
X10675619Y-13454667D01*
X10694667Y-13445143D01*
X10732762Y-13445143D01*
X10751810Y-13454667D01*
X10761333Y-13473714D01*
X10761333Y-13492762D01*
X10666095Y-13511809D01*
X10837524Y-13568952D02*
X10856571Y-13578476D01*
X10894667Y-13578476D01*
X10913714Y-13568952D01*
X10923238Y-13549905D01*
X10923238Y-13540381D01*
X10913714Y-13521333D01*
X10894667Y-13511809D01*
X10866095Y-13511809D01*
X10847048Y-13502286D01*
X10837524Y-13483238D01*
X10837524Y-13473714D01*
X10847048Y-13454667D01*
X10866095Y-13445143D01*
X10894667Y-13445143D01*
X10913714Y-13454667D01*
X10989905Y-13654667D02*
X10999429Y-13645143D01*
X11018476Y-13616571D01*
X11028000Y-13597524D01*
X11037524Y-13568952D01*
X11047048Y-13521333D01*
X11047048Y-13483238D01*
X11037524Y-13435619D01*
X11028000Y-13407048D01*
X11018476Y-13388000D01*
X10999429Y-13359428D01*
X10989905Y-13349905D01*
X11351809Y-13654667D02*
X11342286Y-13645143D01*
X11323238Y-13616571D01*
X11313714Y-13597524D01*
X11304190Y-13568952D01*
X11294667Y-13521333D01*
X11294667Y-13483238D01*
X11304190Y-13435619D01*
X11313714Y-13407048D01*
X11323238Y-13388000D01*
X11342286Y-13359428D01*
X11351809Y-13349905D01*
X11428000Y-13445143D02*
X11428000Y-13578476D01*
X11428000Y-13464190D02*
X11437524Y-13454667D01*
X11456571Y-13445143D01*
X11485143Y-13445143D01*
X11504190Y-13454667D01*
X11513714Y-13473714D01*
X11513714Y-13578476D01*
X11637524Y-13578476D02*
X11618476Y-13568952D01*
X11608952Y-13559428D01*
X11599428Y-13540381D01*
X11599428Y-13483238D01*
X11608952Y-13464190D01*
X11618476Y-13454667D01*
X11637524Y-13445143D01*
X11666095Y-13445143D01*
X11685143Y-13454667D01*
X11694667Y-13464190D01*
X11704190Y-13483238D01*
X11704190Y-13540381D01*
X11694667Y-13559428D01*
X11685143Y-13568952D01*
X11666095Y-13578476D01*
X11637524Y-13578476D01*
X11761333Y-13445143D02*
X11837524Y-13445143D01*
X11789905Y-13378476D02*
X11789905Y-13549905D01*
X11799428Y-13568952D01*
X11818476Y-13578476D01*
X11837524Y-13578476D01*
X12056571Y-13445143D02*
X12056571Y-13645143D01*
X12056571Y-13454667D02*
X12075619Y-13445143D01*
X12113714Y-13445143D01*
X12132762Y-13454667D01*
X12142286Y-13464190D01*
X12151809Y-13483238D01*
X12151809Y-13540381D01*
X12142286Y-13559428D01*
X12132762Y-13568952D01*
X12113714Y-13578476D01*
X12075619Y-13578476D01*
X12056571Y-13568952D01*
X12266095Y-13578476D02*
X12247048Y-13568952D01*
X12237524Y-13549905D01*
X12237524Y-13378476D01*
X12428000Y-13578476D02*
X12428000Y-13473714D01*
X12418476Y-13454667D01*
X12399428Y-13445143D01*
X12361333Y-13445143D01*
X12342286Y-13454667D01*
X12428000Y-13568952D02*
X12408952Y-13578476D01*
X12361333Y-13578476D01*
X12342286Y-13568952D01*
X12332762Y-13549905D01*
X12332762Y-13530857D01*
X12342286Y-13511809D01*
X12361333Y-13502286D01*
X12408952Y-13502286D01*
X12428000Y-13492762D01*
X12494667Y-13445143D02*
X12570857Y-13445143D01*
X12523238Y-13378476D02*
X12523238Y-13549905D01*
X12532762Y-13568952D01*
X12551809Y-13578476D01*
X12570857Y-13578476D01*
X12713714Y-13568952D02*
X12694667Y-13578476D01*
X12656571Y-13578476D01*
X12637524Y-13568952D01*
X12628000Y-13549905D01*
X12628000Y-13473714D01*
X12637524Y-13454667D01*
X12656571Y-13445143D01*
X12694667Y-13445143D01*
X12713714Y-13454667D01*
X12723238Y-13473714D01*
X12723238Y-13492762D01*
X12628000Y-13511809D01*
X12894667Y-13578476D02*
X12894667Y-13378476D01*
X12894667Y-13568952D02*
X12875619Y-13578476D01*
X12837524Y-13578476D01*
X12818476Y-13568952D01*
X12808952Y-13559428D01*
X12799428Y-13540381D01*
X12799428Y-13483238D01*
X12808952Y-13464190D01*
X12818476Y-13454667D01*
X12837524Y-13445143D01*
X12875619Y-13445143D01*
X12894667Y-13454667D01*
X12970857Y-13654667D02*
X12980381Y-13645143D01*
X12999428Y-13616571D01*
X13008952Y-13597524D01*
X13018476Y-13568952D01*
X13028000Y-13521333D01*
X13028000Y-13483238D01*
X13018476Y-13435619D01*
X13008952Y-13407048D01*
X12999428Y-13388000D01*
X12980381Y-13359428D01*
X12970857Y-13349905D01*
M02*
