%TF.GenerationSoftware,KiCad,Pcbnew,(6.0.7)*%
%TF.CreationDate,2022-10-18T19:39:03+02:00*%
%TF.ProjectId,15_button_controller,31355f62-7574-4746-9f6e-5f636f6e7472,rev?*%
%TF.SameCoordinates,Original*%
%TF.FileFunction,Copper,L1,Top*%
%TF.FilePolarity,Positive*%
%FSLAX46Y46*%
G04 Gerber Fmt 4.6, Leading zero omitted, Abs format (unit mm)*
G04 Created by KiCad (PCBNEW (6.0.7)) date 2022-10-18 19:39:03*
%MOMM*%
%LPD*%
G01*
G04 APERTURE LIST*
%TA.AperFunction,ComponentPad*%
%ADD10R,2.200000X2.200000*%
%TD*%
%TA.AperFunction,ComponentPad*%
%ADD11C,2.200000*%
%TD*%
%TA.AperFunction,ComponentPad*%
%ADD12O,1.700000X1.700000*%
%TD*%
%TA.AperFunction,SMDPad,CuDef*%
%ADD13R,1.700000X3.500000*%
%TD*%
%TA.AperFunction,ComponentPad*%
%ADD14R,1.700000X1.700000*%
%TD*%
%TA.AperFunction,SMDPad,CuDef*%
%ADD15R,3.500000X1.700000*%
%TD*%
%TA.AperFunction,Conductor*%
%ADD16C,0.250000*%
%TD*%
G04 APERTURE END LIST*
D10*
%TO.P,S3,1*%
%TO.N,Net-(S1-Pad1)*%
X89154000Y-122630000D03*
D11*
%TO.P,S3,2*%
%TO.N,Net-(S3-Pad2)*%
X89154000Y-116130000D03*
%TO.P,S3,3*%
%TO.N,unconnected-(S3-Pad3)*%
X93654000Y-122630000D03*
%TO.P,S3,4*%
%TO.N,Net-(S3-Pad4)*%
X93654000Y-116130000D03*
%TD*%
D10*
%TO.P,S10,1*%
%TO.N,Net-(S10-Pad1)*%
X112522000Y-110184000D03*
D11*
%TO.P,S10,2*%
%TO.N,Net-(S10-Pad2)*%
X112522000Y-103684000D03*
%TO.P,S10,3*%
%TO.N,unconnected-(S10-Pad3)*%
X117022000Y-110184000D03*
%TO.P,S10,4*%
%TO.N,Net-(S10-Pad4)*%
X117022000Y-103684000D03*
%TD*%
D10*
%TO.P,S4,1*%
%TO.N,Net-(S1-Pad1)*%
X100838000Y-122630000D03*
D11*
%TO.P,S4,2*%
%TO.N,Net-(S4-Pad2)*%
X100838000Y-116130000D03*
%TO.P,S4,3*%
%TO.N,unconnected-(S4-Pad3)*%
X105338000Y-122630000D03*
%TO.P,S4,4*%
%TO.N,Net-(S4-Pad4)*%
X105338000Y-116130000D03*
%TD*%
D10*
%TO.P,S8,1*%
%TO.N,Net-(S3-Pad2)*%
X89154000Y-110184000D03*
D11*
%TO.P,S8,2*%
%TO.N,Net-(S13-Pad1)*%
X89154000Y-103684000D03*
%TO.P,S8,3*%
%TO.N,unconnected-(S8-Pad3)*%
X93654000Y-110184000D03*
%TO.P,S8,4*%
%TO.N,Net-(S8-Pad4)*%
X93654000Y-103684000D03*
%TD*%
D10*
%TO.P,S11,1*%
%TO.N,Net-(S11-Pad1)*%
X65786000Y-97738000D03*
D11*
%TO.P,S11,2*%
%TO.N,Net-(S11-Pad2)*%
X65786000Y-91238000D03*
%TO.P,S11,3*%
%TO.N,unconnected-(S11-Pad3)*%
X70286000Y-97738000D03*
%TO.P,S11,4*%
%TO.N,Net-(S11-Pad4)*%
X70286000Y-91238000D03*
%TD*%
D10*
%TO.P,S2,1*%
%TO.N,Net-(S1-Pad1)*%
X77470000Y-122630000D03*
D11*
%TO.P,S2,2*%
%TO.N,Net-(S2-Pad2)*%
X77470000Y-116130000D03*
%TO.P,S2,3*%
%TO.N,unconnected-(S2-Pad3)*%
X81970000Y-122630000D03*
%TO.P,S2,4*%
%TO.N,Net-(S2-Pad4)*%
X81970000Y-116130000D03*
%TD*%
D10*
%TO.P,S15,1*%
%TO.N,Net-(S10-Pad2)*%
X112522000Y-97738000D03*
D11*
%TO.P,S15,2*%
%TO.N,unconnected-(S15-Pad2)*%
X112522000Y-91238000D03*
%TO.P,S15,3*%
%TO.N,unconnected-(S15-Pad3)*%
X117022000Y-97738000D03*
%TO.P,S15,4*%
%TO.N,Net-(S15-Pad4)*%
X117022000Y-91238000D03*
%TD*%
D10*
%TO.P,S14,1*%
%TO.N,Net-(S14-Pad1)*%
X100838000Y-97738000D03*
D11*
%TO.P,S14,2*%
%TO.N,unconnected-(S14-Pad2)*%
X100838000Y-91238000D03*
%TO.P,S14,3*%
%TO.N,unconnected-(S14-Pad3)*%
X105338000Y-97738000D03*
%TO.P,S14,4*%
%TO.N,Net-(S14-Pad4)*%
X105338000Y-91238000D03*
%TD*%
D10*
%TO.P,S9,1*%
%TO.N,Net-(S4-Pad2)*%
X100838000Y-110184000D03*
D11*
%TO.P,S9,2*%
%TO.N,Net-(S14-Pad1)*%
X100838000Y-103684000D03*
%TO.P,S9,3*%
%TO.N,unconnected-(S9-Pad3)*%
X105338000Y-110184000D03*
%TO.P,S9,4*%
%TO.N,Net-(S9-Pad4)*%
X105338000Y-103684000D03*
%TD*%
D10*
%TO.P,S7,1*%
%TO.N,Net-(S2-Pad2)*%
X77470000Y-110184000D03*
D11*
%TO.P,S7,2*%
%TO.N,Net-(S12-Pad1)*%
X77470000Y-103684000D03*
%TO.P,S7,3*%
%TO.N,unconnected-(S7-Pad3)*%
X81970000Y-110184000D03*
%TO.P,S7,4*%
%TO.N,Net-(S7-Pad4)*%
X81970000Y-103684000D03*
%TD*%
D10*
%TO.P,S12,1*%
%TO.N,Net-(S12-Pad1)*%
X77470000Y-97738000D03*
D11*
%TO.P,S12,2*%
%TO.N,unconnected-(S12-Pad2)*%
X77470000Y-91238000D03*
%TO.P,S12,3*%
%TO.N,unconnected-(S12-Pad3)*%
X81970000Y-97738000D03*
%TO.P,S12,4*%
%TO.N,Net-(S12-Pad4)*%
X81970000Y-91238000D03*
%TD*%
D12*
%TO.P,U1,1,GPIO0*%
%TO.N,unconnected-(U1-Pad1)*%
X64770000Y-81280000D03*
D13*
X64770000Y-82180000D03*
%TO.P,U1,2,GPIO1*%
%TO.N,unconnected-(U1-Pad2)*%
X67310000Y-82180000D03*
D12*
X67310000Y-81280000D03*
D13*
%TO.P,U1,3,GND*%
%TO.N,unconnected-(U1-Pad3)*%
X69850000Y-82180000D03*
D14*
X69850000Y-81280000D03*
D12*
%TO.P,U1,4,GPIO2*%
%TO.N,Net-(S11-Pad4)*%
X72390000Y-81280000D03*
D13*
X72390000Y-82180000D03*
D12*
%TO.P,U1,5,GPIO3*%
%TO.N,Net-(S6-Pad4)*%
X74930000Y-81280000D03*
D13*
X74930000Y-82180000D03*
%TO.P,U1,6,GPIO4*%
%TO.N,Net-(S1-Pad4)*%
X77470000Y-82180000D03*
D12*
X77470000Y-81280000D03*
D13*
%TO.P,U1,7,GPIO5*%
%TO.N,Net-(S12-Pad4)*%
X80010000Y-82180000D03*
D12*
X80010000Y-81280000D03*
D14*
%TO.P,U1,8,GND*%
%TO.N,unconnected-(U1-Pad8)*%
X82550000Y-81280000D03*
D13*
X82550000Y-82180000D03*
%TO.P,U1,9,GPIO6*%
%TO.N,Net-(S7-Pad4)*%
X85090000Y-82180000D03*
D12*
X85090000Y-81280000D03*
%TO.P,U1,10,GPIO7*%
%TO.N,Net-(S2-Pad4)*%
X87630000Y-81280000D03*
D13*
X87630000Y-82180000D03*
D12*
%TO.P,U1,11,GPIO8*%
%TO.N,Net-(S13-Pad4)*%
X90170000Y-81280000D03*
D13*
X90170000Y-82180000D03*
D12*
%TO.P,U1,12,GPIO9*%
%TO.N,Net-(S8-Pad4)*%
X92710000Y-81280000D03*
D13*
X92710000Y-82180000D03*
%TO.P,U1,13,GND*%
%TO.N,unconnected-(U1-Pad13)*%
X95250000Y-82180000D03*
D14*
X95250000Y-81280000D03*
D12*
%TO.P,U1,14,GPIO10*%
%TO.N,Net-(S3-Pad4)*%
X97790000Y-81280000D03*
D13*
X97790000Y-82180000D03*
D12*
%TO.P,U1,15,GPIO11*%
%TO.N,Net-(S14-Pad4)*%
X100330000Y-81280000D03*
D13*
X100330000Y-82180000D03*
D12*
%TO.P,U1,16,GPIO12*%
%TO.N,Net-(S9-Pad4)*%
X102870000Y-81280000D03*
D13*
X102870000Y-82180000D03*
%TO.P,U1,17,GPIO13*%
%TO.N,Net-(S4-Pad4)*%
X105410000Y-82180000D03*
D12*
X105410000Y-81280000D03*
D13*
%TO.P,U1,18,GND*%
%TO.N,unconnected-(U1-Pad18)*%
X107950000Y-82180000D03*
D14*
X107950000Y-81280000D03*
D12*
%TO.P,U1,19,GPIO14*%
%TO.N,Net-(S15-Pad4)*%
X110490000Y-81280000D03*
D13*
X110490000Y-82180000D03*
%TO.P,U1,20,GPIO15*%
%TO.N,Net-(S10-Pad4)*%
X113030000Y-82180000D03*
D12*
X113030000Y-81280000D03*
%TO.P,U1,21,GPIO16*%
%TO.N,Net-(S5-Pad4)*%
X113030000Y-63500000D03*
D13*
X113030000Y-62600000D03*
D12*
%TO.P,U1,22,GPIO17*%
%TO.N,unconnected-(U1-Pad22)*%
X110490000Y-63500000D03*
D13*
X110490000Y-62600000D03*
D14*
%TO.P,U1,23,GND*%
%TO.N,unconnected-(U1-Pad23)*%
X107950000Y-63500000D03*
D13*
X107950000Y-62600000D03*
D12*
%TO.P,U1,24,GPIO18*%
%TO.N,unconnected-(U1-Pad24)*%
X105410000Y-63500000D03*
D13*
X105410000Y-62600000D03*
D12*
%TO.P,U1,25,GPIO19*%
%TO.N,unconnected-(U1-Pad25)*%
X102870000Y-63500000D03*
D13*
X102870000Y-62600000D03*
%TO.P,U1,26,GPIO20*%
%TO.N,unconnected-(U1-Pad26)*%
X100330000Y-62600000D03*
D12*
X100330000Y-63500000D03*
D13*
%TO.P,U1,27,GPIO21*%
%TO.N,unconnected-(U1-Pad27)*%
X97790000Y-62600000D03*
D12*
X97790000Y-63500000D03*
D14*
%TO.P,U1,28,GND*%
%TO.N,unconnected-(U1-Pad28)*%
X95250000Y-63500000D03*
D13*
X95250000Y-62600000D03*
%TO.P,U1,29,GPIO22*%
%TO.N,unconnected-(U1-Pad29)*%
X92710000Y-62600000D03*
D12*
X92710000Y-63500000D03*
%TO.P,U1,30,RUN*%
%TO.N,unconnected-(U1-Pad30)*%
X90170000Y-63500000D03*
D13*
X90170000Y-62600000D03*
%TO.P,U1,31,GPIO26_ADC0*%
%TO.N,unconnected-(U1-Pad31)*%
X87630000Y-62600000D03*
D12*
X87630000Y-63500000D03*
D13*
%TO.P,U1,32,GPIO27_ADC1*%
%TO.N,unconnected-(U1-Pad32)*%
X85090000Y-62600000D03*
D12*
X85090000Y-63500000D03*
D14*
%TO.P,U1,33,AGND*%
%TO.N,unconnected-(U1-Pad33)*%
X82550000Y-63500000D03*
D13*
X82550000Y-62600000D03*
%TO.P,U1,34,GPIO28_ADC2*%
%TO.N,unconnected-(U1-Pad34)*%
X80010000Y-62600000D03*
D12*
X80010000Y-63500000D03*
%TO.P,U1,35,ADC_VREF*%
%TO.N,unconnected-(U1-Pad35)*%
X77470000Y-63500000D03*
D13*
X77470000Y-62600000D03*
D12*
%TO.P,U1,36,3V3*%
%TO.N,Net-(S11-Pad2)*%
X74930000Y-63500000D03*
D13*
X74930000Y-62600000D03*
D12*
%TO.P,U1,37,3V3_EN*%
%TO.N,unconnected-(U1-Pad37)*%
X72390000Y-63500000D03*
D13*
X72390000Y-62600000D03*
D14*
%TO.P,U1,38,GND*%
%TO.N,unconnected-(U1-Pad38)*%
X69850000Y-63500000D03*
D13*
X69850000Y-62600000D03*
D12*
%TO.P,U1,39,VSYS*%
%TO.N,unconnected-(U1-Pad39)*%
X67310000Y-63500000D03*
D13*
X67310000Y-62600000D03*
%TO.P,U1,40,VBUS*%
%TO.N,unconnected-(U1-Pad40)*%
X64770000Y-62600000D03*
D12*
X64770000Y-63500000D03*
D15*
%TO.P,U1,41,SWCLK*%
%TO.N,unconnected-(U1-Pad41)*%
X113700000Y-74930000D03*
D12*
X112800000Y-74930000D03*
D14*
%TO.P,U1,42,GND*%
%TO.N,unconnected-(U1-Pad42)*%
X112800000Y-72390000D03*
D15*
X113700000Y-72390000D03*
D12*
%TO.P,U1,43,SWDIO*%
%TO.N,unconnected-(U1-Pad43)*%
X112800000Y-69850000D03*
D15*
X113700000Y-69850000D03*
%TD*%
D10*
%TO.P,S6,1*%
%TO.N,Net-(S1-Pad2)*%
X65786000Y-110184000D03*
D11*
%TO.P,S6,2*%
%TO.N,Net-(S11-Pad1)*%
X65786000Y-103684000D03*
%TO.P,S6,3*%
%TO.N,unconnected-(S6-Pad3)*%
X70286000Y-110184000D03*
%TO.P,S6,4*%
%TO.N,Net-(S6-Pad4)*%
X70286000Y-103684000D03*
%TD*%
D10*
%TO.P,S13,1*%
%TO.N,Net-(S13-Pad1)*%
X89154000Y-97738000D03*
D11*
%TO.P,S13,2*%
%TO.N,unconnected-(S13-Pad2)*%
X89154000Y-91238000D03*
%TO.P,S13,3*%
%TO.N,unconnected-(S13-Pad3)*%
X93654000Y-97738000D03*
%TO.P,S13,4*%
%TO.N,Net-(S13-Pad4)*%
X93654000Y-91238000D03*
%TD*%
D10*
%TO.P,S1,1*%
%TO.N,Net-(S1-Pad1)*%
X65786000Y-122630000D03*
D11*
%TO.P,S1,2*%
%TO.N,Net-(S1-Pad2)*%
X65786000Y-116130000D03*
%TO.P,S1,3*%
%TO.N,unconnected-(S1-Pad3)*%
X70286000Y-122630000D03*
%TO.P,S1,4*%
%TO.N,Net-(S1-Pad4)*%
X70286000Y-116130000D03*
%TD*%
D10*
%TO.P,S5,1*%
%TO.N,Net-(S1-Pad1)*%
X112522000Y-122630000D03*
D11*
%TO.P,S5,2*%
%TO.N,Net-(S10-Pad1)*%
X112522000Y-116130000D03*
%TO.P,S5,3*%
%TO.N,unconnected-(S5-Pad3)*%
X117022000Y-122630000D03*
%TO.P,S5,4*%
%TO.N,Net-(S5-Pad4)*%
X117022000Y-116130000D03*
%TD*%
D16*
%TO.N,Net-(S1-Pad4)*%
X74930000Y-86360000D02*
X74930000Y-111486000D01*
X77470000Y-83820000D02*
X74930000Y-86360000D01*
X74930000Y-111486000D02*
X70286000Y-116130000D01*
%TO.N,Net-(S2-Pad4)*%
X86614000Y-111486000D02*
X86614000Y-87376000D01*
X86614000Y-87376000D02*
X87630000Y-86360000D01*
X87630000Y-86360000D02*
X87630000Y-81280000D01*
X81970000Y-116130000D02*
X86614000Y-111486000D01*
%TO.N,Net-(S3-Pad4)*%
X97790000Y-111994000D02*
X93654000Y-116130000D01*
X97790000Y-111994000D02*
X97790000Y-81280000D01*
%TO.N,Net-(S4-Pad4)*%
X108712000Y-112756000D02*
X105338000Y-116130000D01*
X108712000Y-87122000D02*
X108712000Y-112756000D01*
X105410000Y-83820000D02*
X108712000Y-87122000D01*
%TO.N,Net-(S5-Pad4)*%
X119888000Y-69088000D02*
X119888000Y-113264000D01*
X113030000Y-62230000D02*
X119888000Y-69088000D01*
X119888000Y-113264000D02*
X117022000Y-116130000D01*
%TO.N,Net-(S6-Pad4)*%
X73660000Y-100310000D02*
X70286000Y-103684000D01*
X73660000Y-85598000D02*
X73660000Y-100310000D01*
X74930000Y-84328000D02*
X74930000Y-81280000D01*
X74930000Y-84328000D02*
X73660000Y-85598000D01*
%TO.N,Net-(S7-Pad4)*%
X85090000Y-100564000D02*
X85090000Y-81280000D01*
X85090000Y-100564000D02*
X81970000Y-103684000D01*
%TO.N,Net-(S8-Pad4)*%
X95885000Y-89789000D02*
X95885000Y-101453000D01*
X92710000Y-86614000D02*
X95885000Y-89789000D01*
X92710000Y-86614000D02*
X92710000Y-81280000D01*
X95885000Y-101453000D02*
X93654000Y-103684000D01*
%TO.N,Net-(S9-Pad4)*%
X107442000Y-101580000D02*
X105338000Y-103684000D01*
X102870000Y-84582000D02*
X102870000Y-81280000D01*
X102870000Y-84582000D02*
X107442000Y-89154000D01*
X107442000Y-89154000D02*
X107442000Y-101580000D01*
%TO.N,Net-(S10-Pad4)*%
X118872000Y-101834000D02*
X117022000Y-103684000D01*
X113030000Y-83820000D02*
X118872000Y-89662000D01*
X118872000Y-89662000D02*
X118872000Y-101834000D01*
%TO.N,Net-(S11-Pad4)*%
X72390000Y-89134000D02*
X72390000Y-81280000D01*
X72390000Y-89134000D02*
X70286000Y-91238000D01*
%TO.N,Net-(S12-Pad4)*%
X80010000Y-89278000D02*
X80010000Y-81280000D01*
X80010000Y-89278000D02*
X81970000Y-91238000D01*
%TO.N,Net-(S13-Pad4)*%
X90170000Y-87754000D02*
X93654000Y-91238000D01*
X90170000Y-87754000D02*
X90170000Y-81280000D01*
%TO.N,Net-(S14-Pad4)*%
X100330000Y-86230000D02*
X100330000Y-81280000D01*
X100330000Y-86230000D02*
X105338000Y-91238000D01*
%TO.N,Net-(S15-Pad4)*%
X110490000Y-84706000D02*
X117022000Y-91238000D01*
X110490000Y-84706000D02*
X110490000Y-81280000D01*
%TD*%
M02*
